<?xml version="1.0" encoding="utf-8" standalone="no"?>
<!DOCTYPE svg PUBLIC "-//W3C//DTD SVG 1.1//EN"
  "http://www.w3.org/Graphics/SVG/1.1/DTD/svg11.dtd">
<svg xmlns:xlink="http://www.w3.org/1999/xlink" width="165.6pt" height="165.6pt" viewBox="0 0 165.6 165.6" xmlns="http://www.w3.org/2000/svg" version="1.1">
 <metadata>
  <rdf:RDF xmlns:dc="http://purl.org/dc/elements/1.1/" xmlns:cc="http://creativecommons.org/ns#" xmlns:rdf="http://www.w3.org/1999/02/22-rdf-syntax-ns#">
   <cc:Work>
    <dc:type rdf:resource="http://purl.org/dc/dcmitype/StillImage"/>
    <dc:date>2026-03-30T10:39:45.921363</dc:date>
    <dc:format>image/svg+xml</dc:format>
    <dc:creator>
     <cc:Agent>
      <dc:title>Matplotlib v3.8.0, https://matplotlib.org/</dc:title>
     </cc:Agent>
    </dc:creator>
   </cc:Work>
  </rdf:RDF>
 </metadata>
 <defs>
  <style type="text/css">*{stroke-linejoin: round; stroke-linecap: butt}</style>
 </defs>
 <g id="figure_1">
  <g id="patch_1">
   <path d="M 0 165.6 
L 165.6 165.6 
L 165.6 0 
L 0 0 
L 0 165.6 
z
" style="fill: none"/>
  </g>
  <g id="axes_1">
   <g id="patch_2">
    <path d="M 36.26 128.296 
L 155.143636 128.296 
L 155.143636 22.56 
L 36.26 22.56 
L 36.26 128.296 
z
" style="fill: none"/>
   </g>
   <g id="PolyCollection_1">
    <defs>
     <path id="m85583f1229" d="M 41.663802 -86.501368 
L 41.663802 -82.099893 
L 47.352014 -67.638887 
L 53.040226 -53.429688 
L 58.728438 -53.074847 
L 64.416651 -54.659813 
L 70.104863 -57.372206 
L 75.793075 -61.508762 
L 81.481288 -63.131351 
L 87.1695 -57.677941 
L 92.857712 -59.698223 
L 98.545924 -61.155682 
L 104.234137 -69.935833 
L 109.922349 -77.655962 
L 115.610561 -80.228879 
L 121.298773 -79.361931 
L 126.986986 -79.536288 
L 132.675198 -81.612186 
L 138.36341 -82.356923 
L 144.051622 -79.793957 
L 149.739835 -76.148747 
L 149.739835 -89.3315 
L 149.739835 -89.3315 
L 144.051622 -87.644761 
L 138.36341 -86.762472 
L 132.675198 -86.687751 
L 126.986986 -88.461784 
L 121.298773 -90.404645 
L 115.610561 -89.653107 
L 109.922349 -88.484214 
L 104.234137 -86.796433 
L 98.545924 -77.669523 
L 92.857712 -73.717918 
L 87.1695 -82.827136 
L 81.481288 -85.70574 
L 75.793075 -96.489062 
L 70.104863 -83.942027 
L 64.416651 -58.894689 
L 58.728438 -56.630155 
L 53.040226 -58.403372 
L 47.352014 -71.196377 
L 41.663802 -86.501368 
z
" style="stroke: #fbb61a; stroke-opacity: 0.15"/>
    </defs>
    <g clip-path="url(#pff3322d7e0)">
     <use xlink:href="#m85583f1229" x="0" y="165.6" style="fill: #fbb61a; fill-opacity: 0.15; stroke: #fbb61a; stroke-opacity: 0.15"/>
    </g>
   </g>
   <g id="PolyCollection_2">
    <defs>
     <path id="meccab06536" d="M 41.663802 -90.797669 
L 41.663802 -80.278555 
L 47.352014 -47.622934 
L 53.040226 -52.926546 
L 58.728438 -62.819476 
L 64.416651 -66.279006 
L 70.104863 -61.417744 
L 75.793075 -69.128752 
L 81.481288 -74.990759 
L 87.1695 -66.038525 
L 92.857712 -68.192138 
L 98.545924 -80.435571 
L 104.234137 -86.454 
L 109.922349 -76.219868 
L 115.610561 -79.046103 
L 121.298773 -83.067815 
L 126.986986 -77.983386 
L 132.675198 -82.453993 
L 138.36341 -86.275631 
L 144.051622 -79.069677 
L 149.739835 -81.487425 
L 149.739835 -94.149055 
L 149.739835 -94.149055 
L 144.051622 -93.428397 
L 138.36341 -94.548176 
L 132.675198 -91.874418 
L 126.986986 -89.449696 
L 121.298773 -91.230812 
L 115.610561 -96.059791 
L 109.922349 -91.358363 
L 104.234137 -91.729981 
L 98.545924 -89.669736 
L 92.857712 -87.010932 
L 87.1695 -87.700015 
L 81.481288 -84.467677 
L 75.793075 -83.46833 
L 70.104863 -89.233305 
L 64.416651 -97.187352 
L 58.728438 -96.991158 
L 53.040226 -56.95186 
L 47.352014 -68.678735 
L 41.663802 -90.797669 
z
" style="stroke: #ed6925; stroke-opacity: 0.15"/>
    </defs>
    <g clip-path="url(#pff3322d7e0)">
     <use xlink:href="#meccab06536" x="0" y="165.6" style="fill: #ed6925; fill-opacity: 0.15; stroke: #ed6925; stroke-opacity: 0.15"/>
    </g>
   </g>
   <g id="PolyCollection_3">
    <defs>
     <path id="meb7ce2d290" d="M 41.663802 -96.931119 
L 41.663802 -81.202784 
L 47.352014 -52.762781 
L 53.040226 -45.44258 
L 58.728438 -50.677462 
L 64.416651 -60.712884 
L 70.104863 -67.408507 
L 75.793075 -75.83808 
L 81.481288 -85.85904 
L 87.1695 -83.649106 
L 92.857712 -68.075707 
L 98.545924 -68.77836 
L 104.234137 -76.315079 
L 109.922349 -86.117406 
L 115.610561 -74.272881 
L 121.298773 -80.022269 
L 126.986986 -81.868762 
L 132.675198 -79.252643 
L 138.36341 -85.458329 
L 144.051622 -83.075971 
L 149.739835 -81.335046 
L 149.739835 -97.54652 
L 149.739835 -97.54652 
L 144.051622 -93.110753 
L 138.36341 -90.278526 
L 132.675198 -90.578997 
L 126.986986 -89.673244 
L 121.298773 -92.430034 
L 115.610561 -85.055585 
L 109.922349 -94.115758 
L 104.234137 -94.216135 
L 98.545924 -94.991265 
L 92.857712 -94.277028 
L 87.1695 -95.117392 
L 81.481288 -96.919599 
L 75.793075 -89.49485 
L 70.104863 -98.348195 
L 64.416651 -84.03548 
L 58.728438 -60.96745 
L 53.040226 -74.296786 
L 47.352014 -68.795435 
L 41.663802 -96.931119 
z
" style="stroke: #ba3655; stroke-opacity: 0.15"/>
    </defs>
    <g clip-path="url(#pff3322d7e0)">
     <use xlink:href="#meb7ce2d290" x="0" y="165.6" style="fill: #ba3655; fill-opacity: 0.15; stroke: #ba3655; stroke-opacity: 0.15"/>
    </g>
   </g>
   <g id="PolyCollection_4">
    <defs>
     <path id="maf835be82e" d="M 41.663802 -101.958091 
L 41.663802 -81.118899 
L 47.352014 -50.561768 
L 53.040226 -47.80833 
L 58.728438 -85.690437 
L 64.416651 -94.34728 
L 70.104863 -48.868792 
L 75.793075 -59.224605 
L 81.481288 -70.932159 
L 87.1695 -80.4775 
L 92.857712 -75.984664 
L 98.545924 -80.991865 
L 104.234137 -97.107235 
L 109.922349 -93.735131 
L 115.610561 -76.761154 
L 121.298773 -79.506679 
L 126.986986 -86.263447 
L 132.675198 -85.052498 
L 138.36341 -79.189529 
L 144.051622 -84.870286 
L 149.739835 -78.733894 
L 149.739835 -101.832048 
L 149.739835 -101.832048 
L 144.051622 -101.082286 
L 138.36341 -110.847465 
L 132.675198 -101.093694 
L 126.986986 -91.271758 
L 121.298773 -99.432089 
L 115.610561 -101.261962 
L 109.922349 -99.892564 
L 104.234137 -101.791693 
L 98.545924 -98.309874 
L 92.857712 -103.086216 
L 87.1695 -106.291173 
L 81.481288 -100.116877 
L 75.793075 -90.507374 
L 70.104863 -87.281841 
L 64.416651 -103.050269 
L 58.728438 -115.652374 
L 53.040226 -87.228115 
L 47.352014 -68.377354 
L 41.663802 -101.958091 
z
" style="stroke: #781c6d; stroke-opacity: 0.15"/>
    </defs>
    <g clip-path="url(#pff3322d7e0)">
     <use xlink:href="#maf835be82e" x="0" y="165.6" style="fill: #781c6d; fill-opacity: 0.15; stroke: #781c6d; stroke-opacity: 0.15"/>
    </g>
   </g>
   <g id="PolyCollection_5">
    <defs>
     <path id="m3b0e499032" d="M 41.663802 -42.773103 
L 41.663802 -42.773103 
L 47.352014 -42.773103 
L 53.040226 -42.773103 
L 58.728438 -42.773103 
L 64.416651 -42.773103 
L 70.104863 -42.773103 
L 75.793075 -42.773103 
L 81.481288 -42.773103 
L 87.1695 -42.773103 
L 92.857712 -42.773103 
L 98.545924 -42.773103 
L 104.234137 -42.773103 
L 109.922349 -42.773103 
L 115.610561 -42.773103 
L 121.298773 -42.773103 
L 126.986986 -42.773103 
L 132.675198 -42.773103 
L 138.36341 -42.773103 
L 144.051622 -42.773103 
L 149.739835 -42.773103 
L 149.739835 -42.773103 
L 149.739835 -42.773103 
L 144.051622 -42.773103 
L 138.36341 -42.773103 
L 132.675198 -42.773103 
L 126.986986 -42.773103 
L 121.298773 -42.773103 
L 115.610561 -42.773103 
L 109.922349 -42.773103 
L 104.234137 -42.773103 
L 98.545924 -42.773103 
L 92.857712 -42.773103 
L 87.1695 -42.773103 
L 81.481288 -42.773103 
L 75.793075 -42.773103 
L 70.104863 -42.773103 
L 64.416651 -42.773103 
L 58.728438 -42.773103 
L 53.040226 -42.773103 
L 47.352014 -42.773103 
L 41.663802 -42.773103 
z
" style="stroke: #320a5e; stroke-opacity: 0.15"/>
    </defs>
    <g clip-path="url(#pff3322d7e0)">
     <use xlink:href="#m3b0e499032" x="0" y="165.6" style="fill: #320a5e; fill-opacity: 0.15; stroke: #320a5e; stroke-opacity: 0.15"/>
    </g>
   </g>
   <g id="matplotlib.axis_1">
    <g id="xtick_1">
     <g id="line2d_1">
      <path d="M 41.663802 128.296 
L 41.663802 22.56 
" clip-path="url(#pff3322d7e0)" style="fill: none; stroke-dasharray: 1.85,0.8; stroke-dashoffset: 0; stroke: #b0b0b0; stroke-opacity: 0.5; stroke-width: 0.5"/>
     </g>
     <g id="line2d_2">
      <defs>
       <path id="me107fe4a4f" d="M 0 0 
L 0 3.5 
" style="stroke: #000000; stroke-width: 0.8"/>
      </defs>
      <g>
       <use xlink:href="#me107fe4a4f" x="41.663802" y="128.296" style="stroke: #000000; stroke-width: 0.8"/>
      </g>
     </g>
     <g id="text_1">
      <!-- 0 -->
      <g transform="translate(39.118802 141.37475) scale(0.08 -0.08)">
       <defs>
        <path id="DejaVuSans-30" d="M 2034 4250 
Q 1547 4250 1301 3770 
Q 1056 3291 1056 2328 
Q 1056 1369 1301 889 
Q 1547 409 2034 409 
Q 2525 409 2770 889 
Q 3016 1369 3016 2328 
Q 3016 3291 2770 3770 
Q 2525 4250 2034 4250 
z
M 2034 4750 
Q 2819 4750 3233 4129 
Q 3647 3509 3647 2328 
Q 3647 1150 3233 529 
Q 2819 -91 2034 -91 
Q 1250 -91 836 529 
Q 422 1150 422 2328 
Q 422 3509 836 4129 
Q 1250 4750 2034 4750 
z
" transform="scale(0.015625)"/>
       </defs>
       <use xlink:href="#DejaVuSans-30"/>
      </g>
     </g>
    </g>
    <g id="xtick_2">
     <g id="line2d_3">
      <path d="M 68.68281 128.296 
L 68.68281 22.56 
" clip-path="url(#pff3322d7e0)" style="fill: none; stroke-dasharray: 1.85,0.8; stroke-dashoffset: 0; stroke: #b0b0b0; stroke-opacity: 0.5; stroke-width: 0.5"/>
     </g>
     <g id="line2d_4">
      <g>
       <use xlink:href="#me107fe4a4f" x="68.68281" y="128.296" style="stroke: #000000; stroke-width: 0.8"/>
      </g>
     </g>
     <g id="text_2">
      <!-- 25 -->
      <g transform="translate(63.59281 141.37475) scale(0.08 -0.08)">
       <defs>
        <path id="DejaVuSans-32" d="M 1228 531 
L 3431 531 
L 3431 0 
L 469 0 
L 469 531 
Q 828 903 1448 1529 
Q 2069 2156 2228 2338 
Q 2531 2678 2651 2914 
Q 2772 3150 2772 3378 
Q 2772 3750 2511 3984 
Q 2250 4219 1831 4219 
Q 1534 4219 1204 4116 
Q 875 4013 500 3803 
L 500 4441 
Q 881 4594 1212 4672 
Q 1544 4750 1819 4750 
Q 2544 4750 2975 4387 
Q 3406 4025 3406 3419 
Q 3406 3131 3298 2873 
Q 3191 2616 2906 2266 
Q 2828 2175 2409 1742 
Q 1991 1309 1228 531 
z
" transform="scale(0.015625)"/>
        <path id="DejaVuSans-35" d="M 691 4666 
L 3169 4666 
L 3169 4134 
L 1269 4134 
L 1269 2991 
Q 1406 3038 1543 3061 
Q 1681 3084 1819 3084 
Q 2600 3084 3056 2656 
Q 3513 2228 3513 1497 
Q 3513 744 3044 326 
Q 2575 -91 1722 -91 
Q 1428 -91 1123 -41 
Q 819 9 494 109 
L 494 744 
Q 775 591 1075 516 
Q 1375 441 1709 441 
Q 2250 441 2565 725 
Q 2881 1009 2881 1497 
Q 2881 1984 2565 2268 
Q 2250 2553 1709 2553 
Q 1456 2553 1204 2497 
Q 953 2441 691 2322 
L 691 4666 
z
" transform="scale(0.015625)"/>
       </defs>
       <use xlink:href="#DejaVuSans-32"/>
       <use xlink:href="#DejaVuSans-35" x="63.623047"/>
      </g>
     </g>
    </g>
    <g id="xtick_3">
     <g id="line2d_5">
      <path d="M 95.701818 128.296 
L 95.701818 22.56 
" clip-path="url(#pff3322d7e0)" style="fill: none; stroke-dasharray: 1.85,0.8; stroke-dashoffset: 0; stroke: #b0b0b0; stroke-opacity: 0.5; stroke-width: 0.5"/>
     </g>
     <g id="line2d_6">
      <g>
       <use xlink:href="#me107fe4a4f" x="95.701818" y="128.296" style="stroke: #000000; stroke-width: 0.8"/>
      </g>
     </g>
     <g id="text_3">
      <!-- 50 -->
      <g transform="translate(90.611818 141.37475) scale(0.08 -0.08)">
       <use xlink:href="#DejaVuSans-35"/>
       <use xlink:href="#DejaVuSans-30" x="63.623047"/>
      </g>
     </g>
    </g>
    <g id="xtick_4">
     <g id="line2d_7">
      <path d="M 122.720826 128.296 
L 122.720826 22.56 
" clip-path="url(#pff3322d7e0)" style="fill: none; stroke-dasharray: 1.85,0.8; stroke-dashoffset: 0; stroke: #b0b0b0; stroke-opacity: 0.5; stroke-width: 0.5"/>
     </g>
     <g id="line2d_8">
      <g>
       <use xlink:href="#me107fe4a4f" x="122.720826" y="128.296" style="stroke: #000000; stroke-width: 0.8"/>
      </g>
     </g>
     <g id="text_4">
      <!-- 75 -->
      <g transform="translate(117.630826 141.37475) scale(0.08 -0.08)">
       <defs>
        <path id="DejaVuSans-37" d="M 525 4666 
L 3525 4666 
L 3525 4397 
L 1831 0 
L 1172 0 
L 2766 4134 
L 525 4134 
L 525 4666 
z
" transform="scale(0.015625)"/>
       </defs>
       <use xlink:href="#DejaVuSans-37"/>
       <use xlink:href="#DejaVuSans-35" x="63.623047"/>
      </g>
     </g>
    </g>
    <g id="xtick_5">
     <g id="line2d_9">
      <path d="M 149.739835 128.296 
L 149.739835 22.56 
" clip-path="url(#pff3322d7e0)" style="fill: none; stroke-dasharray: 1.85,0.8; stroke-dashoffset: 0; stroke: #b0b0b0; stroke-opacity: 0.5; stroke-width: 0.5"/>
     </g>
     <g id="line2d_10">
      <g>
       <use xlink:href="#me107fe4a4f" x="149.739835" y="128.296" style="stroke: #000000; stroke-width: 0.8"/>
      </g>
     </g>
     <g id="text_5">
      <!-- 100 -->
      <g transform="translate(142.104835 141.37475) scale(0.08 -0.08)">
       <defs>
        <path id="DejaVuSans-31" d="M 794 531 
L 1825 531 
L 1825 4091 
L 703 3866 
L 703 4441 
L 1819 4666 
L 2450 4666 
L 2450 531 
L 3481 531 
L 3481 0 
L 794 0 
L 794 531 
z
" transform="scale(0.015625)"/>
       </defs>
       <use xlink:href="#DejaVuSans-31"/>
       <use xlink:href="#DejaVuSans-30" x="63.623047"/>
       <use xlink:href="#DejaVuSans-30" x="127.246094"/>
      </g>
     </g>
    </g>
    <g id="text_6">
     <!-- $N_t$ -->
     <g transform="translate(90.451818 154.636937) scale(0.1 -0.1)">
      <defs>
       <path id="DejaVuSans-Oblique-4e" d="M 1081 4666 
L 1931 4666 
L 3219 666 
L 4000 4666 
L 4616 4666 
L 3706 0 
L 2853 0 
L 1569 4025 
L 788 0 
L 172 0 
L 1081 4666 
z
" transform="scale(0.015625)"/>
       <path id="DejaVuSans-Oblique-74" d="M 2706 3500 
L 2619 3053 
L 1472 3053 
L 1100 1153 
Q 1081 1047 1072 975 
Q 1063 903 1063 863 
Q 1063 663 1183 572 
Q 1303 481 1569 481 
L 2150 481 
L 2053 0 
L 1503 0 
Q 991 0 739 200 
Q 488 400 488 806 
Q 488 878 497 964 
Q 506 1050 525 1153 
L 897 3053 
L 409 3053 
L 500 3500 
L 978 3500 
L 1172 4494 
L 1747 4494 
L 1556 3500 
L 2706 3500 
z
" transform="scale(0.015625)"/>
      </defs>
      <use xlink:href="#DejaVuSans-Oblique-4e" transform="translate(0 0.09375)"/>
      <use xlink:href="#DejaVuSans-Oblique-74" transform="translate(74.804688 -16.3125) scale(0.7)"/>
     </g>
    </g>
   </g>
   <g id="matplotlib.axis_2">
    <g id="ytick_1">
     <g id="line2d_11">
      <path d="M 36.26 122.826897 
L 155.143636 122.826897 
" clip-path="url(#pff3322d7e0)" style="fill: none; stroke-dasharray: 1.85,0.8; stroke-dashoffset: 0; stroke: #b0b0b0; stroke-opacity: 0.5; stroke-width: 0.5"/>
     </g>
     <g id="line2d_12">
      <defs>
       <path id="mb4fad17a28" d="M 0 0 
L -3.5 0 
" style="stroke: #000000; stroke-width: 0.8"/>
      </defs>
      <g>
       <use xlink:href="#mb4fad17a28" x="36.26" y="122.826897" style="stroke: #000000; stroke-width: 0.8"/>
      </g>
     </g>
     <g id="text_7">
      <!-- 0 -->
      <g transform="translate(24.17 125.866272) scale(0.08 -0.08)">
       <use xlink:href="#DejaVuSans-30"/>
      </g>
     </g>
    </g>
    <g id="ytick_2">
     <g id="line2d_13">
      <path d="M 36.26 104.596552 
L 155.143636 104.596552 
" clip-path="url(#pff3322d7e0)" style="fill: none; stroke-dasharray: 1.85,0.8; stroke-dashoffset: 0; stroke: #b0b0b0; stroke-opacity: 0.5; stroke-width: 0.5"/>
     </g>
     <g id="line2d_14">
      <g>
       <use xlink:href="#mb4fad17a28" x="36.26" y="104.596552" style="stroke: #000000; stroke-width: 0.8"/>
      </g>
     </g>
     <g id="text_8">
      <!-- 1 -->
      <g transform="translate(24.17 107.635927) scale(0.08 -0.08)">
       <use xlink:href="#DejaVuSans-31"/>
      </g>
     </g>
    </g>
    <g id="ytick_3">
     <g id="line2d_15">
      <path d="M 36.26 86.366207 
L 155.143636 86.366207 
" clip-path="url(#pff3322d7e0)" style="fill: none; stroke-dasharray: 1.85,0.8; stroke-dashoffset: 0; stroke: #b0b0b0; stroke-opacity: 0.5; stroke-width: 0.5"/>
     </g>
     <g id="line2d_16">
      <g>
       <use xlink:href="#mb4fad17a28" x="36.26" y="86.366207" style="stroke: #000000; stroke-width: 0.8"/>
      </g>
     </g>
     <g id="text_9">
      <!-- 2 -->
      <g transform="translate(24.17 89.405582) scale(0.08 -0.08)">
       <use xlink:href="#DejaVuSans-32"/>
      </g>
     </g>
    </g>
    <g id="ytick_4">
     <g id="line2d_17">
      <path d="M 36.26 68.135862 
L 155.143636 68.135862 
" clip-path="url(#pff3322d7e0)" style="fill: none; stroke-dasharray: 1.85,0.8; stroke-dashoffset: 0; stroke: #b0b0b0; stroke-opacity: 0.5; stroke-width: 0.5"/>
     </g>
     <g id="line2d_18">
      <g>
       <use xlink:href="#mb4fad17a28" x="36.26" y="68.135862" style="stroke: #000000; stroke-width: 0.8"/>
      </g>
     </g>
     <g id="text_10">
      <!-- 3 -->
      <g transform="translate(24.17 71.175237) scale(0.08 -0.08)">
       <defs>
        <path id="DejaVuSans-33" d="M 2597 2516 
Q 3050 2419 3304 2112 
Q 3559 1806 3559 1356 
Q 3559 666 3084 287 
Q 2609 -91 1734 -91 
Q 1441 -91 1130 -33 
Q 819 25 488 141 
L 488 750 
Q 750 597 1062 519 
Q 1375 441 1716 441 
Q 2309 441 2620 675 
Q 2931 909 2931 1356 
Q 2931 1769 2642 2001 
Q 2353 2234 1838 2234 
L 1294 2234 
L 1294 2753 
L 1863 2753 
Q 2328 2753 2575 2939 
Q 2822 3125 2822 3475 
Q 2822 3834 2567 4026 
Q 2313 4219 1838 4219 
Q 1578 4219 1281 4162 
Q 984 4106 628 3988 
L 628 4550 
Q 988 4650 1302 4700 
Q 1616 4750 1894 4750 
Q 2613 4750 3031 4423 
Q 3450 4097 3450 3541 
Q 3450 3153 3228 2886 
Q 3006 2619 2597 2516 
z
" transform="scale(0.015625)"/>
       </defs>
       <use xlink:href="#DejaVuSans-33"/>
      </g>
     </g>
    </g>
    <g id="ytick_5">
     <g id="line2d_19">
      <path d="M 36.26 49.905517 
L 155.143636 49.905517 
" clip-path="url(#pff3322d7e0)" style="fill: none; stroke-dasharray: 1.85,0.8; stroke-dashoffset: 0; stroke: #b0b0b0; stroke-opacity: 0.5; stroke-width: 0.5"/>
     </g>
     <g id="line2d_20">
      <g>
       <use xlink:href="#mb4fad17a28" x="36.26" y="49.905517" style="stroke: #000000; stroke-width: 0.8"/>
      </g>
     </g>
     <g id="text_11">
      <!-- 4 -->
      <g transform="translate(24.17 52.944892) scale(0.08 -0.08)">
       <defs>
        <path id="DejaVuSans-34" d="M 2419 4116 
L 825 1625 
L 2419 1625 
L 2419 4116 
z
M 2253 4666 
L 3047 4666 
L 3047 1625 
L 3713 1625 
L 3713 1100 
L 3047 1100 
L 3047 0 
L 2419 0 
L 2419 1100 
L 313 1100 
L 313 1709 
L 2253 4666 
z
" transform="scale(0.015625)"/>
       </defs>
       <use xlink:href="#DejaVuSans-34"/>
      </g>
     </g>
    </g>
    <g id="ytick_6">
     <g id="line2d_21">
      <path d="M 36.26 31.675172 
L 155.143636 31.675172 
" clip-path="url(#pff3322d7e0)" style="fill: none; stroke-dasharray: 1.85,0.8; stroke-dashoffset: 0; stroke: #b0b0b0; stroke-opacity: 0.5; stroke-width: 0.5"/>
     </g>
     <g id="line2d_22">
      <g>
       <use xlink:href="#mb4fad17a28" x="36.26" y="31.675172" style="stroke: #000000; stroke-width: 0.8"/>
      </g>
     </g>
     <g id="text_12">
      <!-- 5 -->
      <g transform="translate(24.17 34.714547) scale(0.08 -0.08)">
       <use xlink:href="#DejaVuSans-35"/>
      </g>
     </g>
    </g>
    <g id="text_13">
     <!-- $D_{N_k} \left(\mathbf{x}_i, \mathbf{x}_j \right)$ -->
     <g transform="translate(17.07 98.778) rotate(-90) scale(0.1 -0.1)">
      <defs>
       <path id="DejaVuSans-Oblique-44" d="M 1081 4666 
L 2438 4666 
Q 3519 4666 4070 4208 
Q 4622 3750 4622 2847 
Q 4622 2250 4412 1698 
Q 4203 1147 3834 769 
Q 3463 381 2891 190 
Q 2319 0 1538 0 
L 172 0 
L 1081 4666 
z
M 1613 4147 
L 909 519 
L 1734 519 
Q 2794 519 3375 1128 
Q 3956 1738 3956 2847 
Q 3956 3519 3581 3833 
Q 3206 4147 2406 4147 
L 1613 4147 
z
" transform="scale(0.015625)"/>
       <path id="DejaVuSans-Oblique-6b" d="M 1172 4863 
L 1747 4863 
L 1197 2028 
L 3169 3500 
L 3916 3500 
L 1716 1825 
L 3322 0 
L 2625 0 
L 1131 1709 
L 800 0 
L 225 0 
L 1172 4863 
z
" transform="scale(0.015625)"/>
       <path id="DejaVuSans-28" d="M 1984 4856 
Q 1566 4138 1362 3434 
Q 1159 2731 1159 2009 
Q 1159 1288 1364 580 
Q 1569 -128 1984 -844 
L 1484 -844 
Q 1016 -109 783 600 
Q 550 1309 550 2009 
Q 550 2706 781 3412 
Q 1013 4119 1484 4856 
L 1984 4856 
z
" transform="scale(0.015625)"/>
       <path id="DejaVuSans-Bold-78" d="M 1422 1791 
L 159 3500 
L 1344 3500 
L 2059 2463 
L 2784 3500 
L 3969 3500 
L 2706 1797 
L 4031 0 
L 2847 0 
L 2059 1106 
L 1281 0 
L 97 0 
L 1422 1791 
z
" transform="scale(0.015625)"/>
       <path id="DejaVuSans-Oblique-69" d="M 1172 4863 
L 1747 4863 
L 1606 4134 
L 1031 4134 
L 1172 4863 
z
M 909 3500 
L 1484 3500 
L 800 0 
L 225 0 
L 909 3500 
z
" transform="scale(0.015625)"/>
       <path id="DejaVuSans-2c" d="M 750 794 
L 1409 794 
L 1409 256 
L 897 -744 
L 494 -744 
L 750 256 
L 750 794 
z
" transform="scale(0.015625)"/>
       <path id="DejaVuSans-Oblique-6a" d="M 928 3500 
L 1503 3500 
L 813 -63 
L 809 -78 
Q 694 -675 544 -897 
Q 403 -1106 132 -1218 
Q -138 -1331 -506 -1331 
L -722 -1331 
L -628 -844 
L -481 -844 
Q -144 -844 -1 -703 
Q 141 -563 238 -63 
L 928 3500 
z
M 1197 4863 
L 1772 4863 
L 1631 4134 
L 1056 4134 
L 1197 4863 
z
" transform="scale(0.015625)"/>
       <path id="DejaVuSans-29" d="M 513 4856 
L 1013 4856 
Q 1481 4119 1714 3412 
Q 1947 2706 1947 2009 
Q 1947 1309 1714 600 
Q 1481 -109 1013 -844 
L 513 -844 
Q 928 -128 1133 580 
Q 1338 1288 1338 2009 
Q 1338 2731 1133 3434 
Q 928 4138 513 4856 
z
" transform="scale(0.015625)"/>
      </defs>
      <use xlink:href="#DejaVuSans-Oblique-44" transform="translate(0 0.125)"/>
      <use xlink:href="#DejaVuSans-Oblique-4e" transform="translate(77.001953 -16.28125) scale(0.7)"/>
      <use xlink:href="#DejaVuSans-Oblique-6b" transform="translate(129.365234 -27.765625) scale(0.49)"/>
      <use xlink:href="#DejaVuSans-28" transform="translate(162.389648 0.125)"/>
      <use xlink:href="#DejaVuSans-Bold-78" transform="translate(201.40332 0.125)"/>
      <use xlink:href="#DejaVuSans-Oblique-69" transform="translate(266.862305 -16.28125) scale(0.7)"/>
      <use xlink:href="#DejaVuSans-2c" transform="translate(289.044922 0.125)"/>
      <use xlink:href="#DejaVuSans-Bold-78" transform="translate(340.314453 0.125)"/>
      <use xlink:href="#DejaVuSans-Oblique-6a" transform="translate(405.773438 -16.28125) scale(0.7)"/>
      <use xlink:href="#DejaVuSans-29" transform="translate(427.956055 0.125)"/>
     </g>
    </g>
   </g>
   <g id="line2d_23">
    <path d="M 41.663802 81.299369 
L 47.352014 96.182368 
L 53.040226 109.68347 
L 58.728438 110.747499 
L 64.416651 108.822749 
L 70.104863 94.942884 
L 75.793075 86.601088 
L 81.481288 91.181455 
L 87.1695 95.347461 
L 92.857712 98.891929 
L 98.545924 96.187398 
L 104.234137 87.233867 
L 109.922349 82.529912 
L 115.610561 80.659007 
L 121.298773 80.716712 
L 126.986986 81.600964 
L 132.675198 81.450031 
L 138.36341 81.040303 
L 144.051622 81.880641 
L 149.739835 82.859876 
" clip-path="url(#pff3322d7e0)" style="fill: none; stroke: #fbb61a; stroke-width: 2; stroke-linecap: square"/>
   </g>
   <g id="line2d_24">
    <path d="M 41.663802 80.061888 
L 47.352014 107.449165 
L 53.040226 110.660797 
L 58.728438 85.694683 
L 64.416651 83.866821 
L 70.104863 90.274475 
L 75.793075 89.301459 
L 81.481288 85.870782 
L 87.1695 88.73073 
L 92.857712 87.998465 
L 98.545924 80.547347 
L 104.234137 76.508009 
L 109.922349 81.810884 
L 115.610561 78.047053 
L 121.298773 78.450686 
L 126.986986 81.883459 
L 132.675198 78.435795 
L 138.36341 75.188097 
L 144.051622 79.350963 
L 149.739835 77.78176 
" clip-path="url(#pff3322d7e0)" style="fill: none; stroke: #ed6925; stroke-width: 2; stroke-linecap: square"/>
   </g>
   <g id="line2d_25">
    <path d="M 41.663802 76.533048 
L 47.352014 104.820892 
L 53.040226 105.730317 
L 58.728438 109.777544 
L 64.416651 93.225818 
L 70.104863 82.721649 
L 75.793075 82.933535 
L 81.481288 74.21068 
L 87.1695 76.216751 
L 92.857712 84.423633 
L 98.545924 83.715188 
L 104.234137 80.334393 
L 109.922349 75.483418 
L 115.610561 85.935767 
L 121.298773 79.373849 
L 126.986986 79.828997 
L 132.675198 80.68418 
L 138.36341 77.731573 
L 144.051622 77.506638 
L 149.739835 76.159217 
" clip-path="url(#pff3322d7e0)" style="fill: none; stroke: #ba3655; stroke-width: 2; stroke-linecap: square"/>
   </g>
   <g id="line2d_26">
    <path d="M 41.663802 74.061505 
L 47.352014 106.130439 
L 53.040226 98.081778 
L 58.728438 64.928594 
L 64.416651 66.901226 
L 70.104863 97.524683 
L 75.793075 90.734011 
L 81.481288 80.075482 
L 87.1695 72.215664 
L 92.857712 76.06456 
L 98.545924 75.949131 
L 104.234137 66.150536 
L 109.922349 68.786153 
L 115.610561 76.588442 
L 121.298773 76.130616 
L 126.986986 76.832398 
L 132.675198 72.526904 
L 138.36341 70.581503 
L 144.051622 72.623714 
L 149.739835 75.317029 
" clip-path="url(#pff3322d7e0)" style="fill: none; stroke: #781c6d; stroke-width: 2; stroke-linecap: square"/>
   </g>
   <g id="line2d_27">
    <path d="M 41.663802 122.826897 
L 47.352014 122.826897 
L 53.040226 122.826897 
L 58.728438 122.826897 
L 64.416651 122.826897 
L 70.104863 122.826897 
L 75.793075 122.826897 
L 81.481288 122.826897 
L 87.1695 122.826897 
L 92.857712 122.826897 
L 98.545924 122.826897 
L 104.234137 122.826897 
L 109.922349 122.826897 
L 115.610561 122.826897 
L 121.298773 122.826897 
L 126.986986 122.826897 
L 132.675198 122.826897 
L 138.36341 122.826897 
L 144.051622 122.826897 
L 149.739835 122.826897 
" clip-path="url(#pff3322d7e0)" style="fill: none; stroke: #320a5e; stroke-width: 2; stroke-linecap: square"/>
   </g>
   <g id="patch_3">
    <path d="M 36.26 128.296 
L 36.26 22.56 
" style="fill: none; stroke: #000000; stroke-width: 0.8; stroke-linejoin: miter; stroke-linecap: square"/>
   </g>
   <g id="patch_4">
    <path d="M 155.143636 128.296 
L 155.143636 22.56 
" style="fill: none; stroke: #000000; stroke-width: 0.8; stroke-linejoin: miter; stroke-linecap: square"/>
   </g>
   <g id="patch_5">
    <path d="M 36.26 128.296 
L 155.143636 128.296 
" style="fill: none; stroke: #000000; stroke-width: 0.8; stroke-linejoin: miter; stroke-linecap: square"/>
   </g>
   <g id="patch_6">
    <path d="M 36.26 22.56 
L 155.143636 22.56 
" style="fill: none; stroke: #000000; stroke-width: 0.8; stroke-linejoin: miter; stroke-linecap: square"/>
   </g>
   <g id="text_14">
    <!-- $N_k \left(\xi = \mathrm{EI} \right)$ Diversity -->
    <g transform="translate(48.501818 16.56) scale(0.1 -0.1)">
     <defs>
      <path id="DejaVuSans-Oblique-3be" d="M 2016 397 
Q 2428 394 2628 159 
Q 2844 -88 2772 -463 
Q 2700 -822 2422 -1072 
Q 2119 -1344 1609 -1344 
Q 1656 -1109 1700 -872 
Q 1913 -888 2072 -750 
Q 2194 -641 2216 -525 
Q 2247 -359 2175 -222 
Q 2100 -91 1922 -91 
Q -25 -91 241 1275 
Q 422 2213 1516 2488 
Q 663 2600 822 3413 
Q 941 4028 1678 4284 
L 1028 4284 
L 1141 4863 
L 3606 4863 
L 3494 4284 
Q 1528 4284 1350 3375 
Q 1234 2778 2881 2750 
L 2778 2219 
Q 1009 2288 819 1275 
Q 659 428 2016 397 
z
" transform="scale(0.015625)"/>
      <path id="DejaVuSans-3d" d="M 678 2906 
L 4684 2906 
L 4684 2381 
L 678 2381 
L 678 2906 
z
M 678 1631 
L 4684 1631 
L 4684 1100 
L 678 1100 
L 678 1631 
z
" transform="scale(0.015625)"/>
      <path id="DejaVuSans-45" d="M 628 4666 
L 3578 4666 
L 3578 4134 
L 1259 4134 
L 1259 2753 
L 3481 2753 
L 3481 2222 
L 1259 2222 
L 1259 531 
L 3634 531 
L 3634 0 
L 628 0 
L 628 4666 
z
" transform="scale(0.015625)"/>
      <path id="DejaVuSans-49" d="M 628 4666 
L 1259 4666 
L 1259 0 
L 628 0 
L 628 4666 
z
" transform="scale(0.015625)"/>
      <path id="DejaVuSans-20" transform="scale(0.015625)"/>
      <path id="DejaVuSans-44" d="M 1259 4147 
L 1259 519 
L 2022 519 
Q 2988 519 3436 956 
Q 3884 1394 3884 2338 
Q 3884 3275 3436 3711 
Q 2988 4147 2022 4147 
L 1259 4147 
z
M 628 4666 
L 1925 4666 
Q 3281 4666 3915 4102 
Q 4550 3538 4550 2338 
Q 4550 1131 3912 565 
Q 3275 0 1925 0 
L 628 0 
L 628 4666 
z
" transform="scale(0.015625)"/>
      <path id="DejaVuSans-69" d="M 603 3500 
L 1178 3500 
L 1178 0 
L 603 0 
L 603 3500 
z
M 603 4863 
L 1178 4863 
L 1178 4134 
L 603 4134 
L 603 4863 
z
" transform="scale(0.015625)"/>
      <path id="DejaVuSans-76" d="M 191 3500 
L 800 3500 
L 1894 563 
L 2988 3500 
L 3597 3500 
L 2284 0 
L 1503 0 
L 191 3500 
z
" transform="scale(0.015625)"/>
      <path id="DejaVuSans-65" d="M 3597 1894 
L 3597 1613 
L 953 1613 
Q 991 1019 1311 708 
Q 1631 397 2203 397 
Q 2534 397 2845 478 
Q 3156 559 3463 722 
L 3463 178 
Q 3153 47 2828 -22 
Q 2503 -91 2169 -91 
Q 1331 -91 842 396 
Q 353 884 353 1716 
Q 353 2575 817 3079 
Q 1281 3584 2069 3584 
Q 2775 3584 3186 3129 
Q 3597 2675 3597 1894 
z
M 3022 2063 
Q 3016 2534 2758 2815 
Q 2500 3097 2075 3097 
Q 1594 3097 1305 2825 
Q 1016 2553 972 2059 
L 3022 2063 
z
" transform="scale(0.015625)"/>
      <path id="DejaVuSans-72" d="M 2631 2963 
Q 2534 3019 2420 3045 
Q 2306 3072 2169 3072 
Q 1681 3072 1420 2755 
Q 1159 2438 1159 1844 
L 1159 0 
L 581 0 
L 581 3500 
L 1159 3500 
L 1159 2956 
Q 1341 3275 1631 3429 
Q 1922 3584 2338 3584 
Q 2397 3584 2469 3576 
Q 2541 3569 2628 3553 
L 2631 2963 
z
" transform="scale(0.015625)"/>
      <path id="DejaVuSans-73" d="M 2834 3397 
L 2834 2853 
Q 2591 2978 2328 3040 
Q 2066 3103 1784 3103 
Q 1356 3103 1142 2972 
Q 928 2841 928 2578 
Q 928 2378 1081 2264 
Q 1234 2150 1697 2047 
L 1894 2003 
Q 2506 1872 2764 1633 
Q 3022 1394 3022 966 
Q 3022 478 2636 193 
Q 2250 -91 1575 -91 
Q 1294 -91 989 -36 
Q 684 19 347 128 
L 347 722 
Q 666 556 975 473 
Q 1284 391 1588 391 
Q 1994 391 2212 530 
Q 2431 669 2431 922 
Q 2431 1156 2273 1281 
Q 2116 1406 1581 1522 
L 1381 1569 
Q 847 1681 609 1914 
Q 372 2147 372 2553 
Q 372 3047 722 3315 
Q 1072 3584 1716 3584 
Q 2034 3584 2315 3537 
Q 2597 3491 2834 3397 
z
" transform="scale(0.015625)"/>
      <path id="DejaVuSans-74" d="M 1172 4494 
L 1172 3500 
L 2356 3500 
L 2356 3053 
L 1172 3053 
L 1172 1153 
Q 1172 725 1289 603 
Q 1406 481 1766 481 
L 2356 481 
L 2356 0 
L 1766 0 
Q 1100 0 847 248 
Q 594 497 594 1153 
L 594 3053 
L 172 3053 
L 172 3500 
L 594 3500 
L 594 4494 
L 1172 4494 
z
" transform="scale(0.015625)"/>
      <path id="DejaVuSans-79" d="M 2059 -325 
Q 1816 -950 1584 -1140 
Q 1353 -1331 966 -1331 
L 506 -1331 
L 506 -850 
L 844 -850 
Q 1081 -850 1212 -737 
Q 1344 -625 1503 -206 
L 1606 56 
L 191 3500 
L 800 3500 
L 1894 763 
L 2988 3500 
L 3597 3500 
L 2059 -325 
z
" transform="scale(0.015625)"/>
     </defs>
     <use xlink:href="#DejaVuSans-Oblique-4e" transform="translate(0 0.015625)"/>
     <use xlink:href="#DejaVuSans-Oblique-6b" transform="translate(74.804688 -16.390625) scale(0.7)"/>
     <use xlink:href="#DejaVuSans-28" transform="translate(118.076172 0.015625)"/>
     <use xlink:href="#DejaVuSans-Oblique-3be" transform="translate(157.089844 0.015625)"/>
     <use xlink:href="#DejaVuSans-3d" transform="translate(232.333984 0.015625)"/>
     <use xlink:href="#DejaVuSans-45" transform="translate(335.605469 0.015625)"/>
     <use xlink:href="#DejaVuSans-49" transform="translate(398.789062 0.015625)"/>
     <use xlink:href="#DejaVuSans-29" transform="translate(428.28125 0.015625)"/>
     <use xlink:href="#DejaVuSans-20" transform="translate(467.294922 0.015625)"/>
     <use xlink:href="#DejaVuSans-44" transform="translate(499.082031 0.015625)"/>
     <use xlink:href="#DejaVuSans-69" transform="translate(576.083984 0.015625)"/>
     <use xlink:href="#DejaVuSans-76" transform="translate(603.867188 0.015625)"/>
     <use xlink:href="#DejaVuSans-65" transform="translate(663.046875 0.015625)"/>
     <use xlink:href="#DejaVuSans-72" transform="translate(724.570312 0.015625)"/>
     <use xlink:href="#DejaVuSans-73" transform="translate(765.683594 0.015625)"/>
     <use xlink:href="#DejaVuSans-69" transform="translate(817.783203 0.015625)"/>
     <use xlink:href="#DejaVuSans-74" transform="translate(845.566406 0.015625)"/>
     <use xlink:href="#DejaVuSans-79" transform="translate(884.775391 0.015625)"/>
    </g>
   </g>
   <g id="legend_1">
    <g id="patch_7">
     <path d="M 41.16 48.709375 
L 148.575 48.709375 
Q 149.975 48.709375 149.975 47.309375 
L 149.975 27.46 
Q 149.975 26.06 148.575 26.06 
L 41.16 26.06 
Q 39.76 26.06 39.76 27.46 
L 39.76 47.309375 
Q 39.76 48.709375 41.16 48.709375 
z
" style="fill: #ffffff; opacity: 0.8; stroke: #cccccc; stroke-linejoin: miter"/>
    </g>
    <g id="line2d_28">
     <path d="M 42.56 31.728906 
L 49.56 31.728906 
L 56.56 31.728906 
" style="fill: none; stroke: #fbb61a; stroke-width: 2; stroke-linecap: square"/>
    </g>
    <g id="text_15">
     <!-- 10 -->
     <g transform="translate(62.16 34.178906) scale(0.07 -0.07)">
      <use xlink:href="#DejaVuSans-31"/>
      <use xlink:href="#DejaVuSans-30" x="63.623047"/>
     </g>
    </g>
    <g id="line2d_29">
     <path d="M 42.56 42.003594 
L 49.56 42.003594 
L 56.56 42.003594 
" style="fill: none; stroke: #ed6925; stroke-width: 2; stroke-linecap: square"/>
    </g>
    <g id="text_16">
     <!-- 5 -->
     <g transform="translate(62.16 44.453594) scale(0.07 -0.07)">
      <use xlink:href="#DejaVuSans-35"/>
     </g>
    </g>
    <g id="line2d_30">
     <path d="M 85.0675 31.728906 
L 92.0675 31.728906 
L 99.0675 31.728906 
" style="fill: none; stroke: #ba3655; stroke-width: 2; stroke-linecap: square"/>
    </g>
    <g id="text_17">
     <!-- 4 -->
     <g transform="translate(104.6675 34.178906) scale(0.07 -0.07)">
      <use xlink:href="#DejaVuSans-34"/>
     </g>
    </g>
    <g id="line2d_31">
     <path d="M 85.0675 42.003594 
L 92.0675 42.003594 
L 99.0675 42.003594 
" style="fill: none; stroke: #781c6d; stroke-width: 2; stroke-linecap: square"/>
    </g>
    <g id="text_18">
     <!-- 2 -->
     <g transform="translate(104.6675 44.453594) scale(0.07 -0.07)">
      <use xlink:href="#DejaVuSans-32"/>
     </g>
    </g>
    <g id="line2d_32">
     <path d="M 123.12125 31.728906 
L 130.12125 31.728906 
L 137.12125 31.728906 
" style="fill: none; stroke: #320a5e; stroke-width: 2; stroke-linecap: square"/>
    </g>
    <g id="text_19">
     <!-- 1 -->
     <g transform="translate(142.72125 34.178906) scale(0.07 -0.07)">
      <use xlink:href="#DejaVuSans-31"/>
     </g>
    </g>
   </g>
  </g>
 </g>
 <defs>
  <clipPath id="pff3322d7e0">
   <rect x="36.26" y="22.56" width="118.883636" height="105.736"/>
  </clipPath>
 </defs>
</svg>
