<?xml version="1.0" encoding="utf-8" standalone="no"?>
<!DOCTYPE svg PUBLIC "-//W3C//DTD SVG 1.1//EN"
  "http://www.w3.org/Graphics/SVG/1.1/DTD/svg11.dtd">
<svg xmlns:xlink="http://www.w3.org/1999/xlink" width="266.4pt" height="165.6pt" viewBox="0 0 266.4 165.6" xmlns="http://www.w3.org/2000/svg" version="1.1">
 <metadata>
  <rdf:RDF xmlns:dc="http://purl.org/dc/elements/1.1/" xmlns:cc="http://creativecommons.org/ns#" xmlns:rdf="http://www.w3.org/1999/02/22-rdf-syntax-ns#">
   <cc:Work>
    <dc:type rdf:resource="http://purl.org/dc/dcmitype/StillImage"/>
    <dc:date>2026-03-30T10:39:45.568888</dc:date>
    <dc:format>image/svg+xml</dc:format>
    <dc:creator>
     <cc:Agent>
      <dc:title>Matplotlib v3.8.0, https://matplotlib.org/</dc:title>
     </cc:Agent>
    </dc:creator>
   </cc:Work>
  </rdf:RDF>
 </metadata>
 <defs>
  <style type="text/css">*{stroke-linejoin: round; stroke-linecap: butt}</style>
 </defs>
 <g id="figure_1">
  <g id="patch_1">
   <path d="M 0 165.6 
L 266.4 165.6 
L 266.4 0 
L 0 0 
L 0 165.6 
z
" style="fill: none"/>
  </g>
  <g id="axes_1">
   <g id="patch_2">
    <path d="M 44.684 127.48 
L 257.76 127.48 
L 257.76 22.296 
L 44.684 22.296 
L 44.684 127.48 
z
" style="fill: none"/>
   </g>
   <g id="line2d_1">
    <path d="M 44.684 101.184 
L 257.76 101.184 
" clip-path="url(#p7652497ad1)" style="fill: none; stroke-dasharray: 5.12,1.28,0.8,1.28; stroke-dashoffset: 0; stroke: #ff0000; stroke-opacity: 0.5; stroke-width: 0.8"/>
   </g>
   <g id="line2d_2">
    <path d="M 44.684 74.888 
L 257.76 74.888 
" clip-path="url(#p7652497ad1)" style="fill: none; stroke-dasharray: 5.12,1.28,0.8,1.28; stroke-dashoffset: 0; stroke: #ff0000; stroke-opacity: 0.5; stroke-width: 0.8"/>
   </g>
   <g id="line2d_3">
    <path d="M 44.684 48.592 
L 257.76 48.592 
" clip-path="url(#p7652497ad1)" style="fill: none; stroke-dasharray: 5.12,1.28,0.8,1.28; stroke-dashoffset: 0; stroke: #ff0000; stroke-opacity: 0.5; stroke-width: 0.8"/>
   </g>
   <g id="patch_3">
    <path d="M 54.369273 127.48 
L 60.826121 127.48 
L 60.826121 116.9616 
L 54.369273 116.9616 
z
" clip-path="url(#p7652497ad1)" style="fill: #332345; opacity: 0.8"/>
   </g>
   <g id="patch_4">
    <path d="M 94.724576 127.48 
L 101.181424 127.48 
L 101.181424 121.16896 
L 94.724576 121.16896 
z
" clip-path="url(#p7652497ad1)" style="fill: #332345; opacity: 0.8"/>
   </g>
   <g id="patch_5">
    <path d="M 135.079879 127.48 
L 141.536727 127.48 
L 141.536727 120.748224 
L 135.079879 120.748224 
z
" clip-path="url(#p7652497ad1)" style="fill: #332345; opacity: 0.8"/>
   </g>
   <g id="patch_6">
    <path d="M 175.435182 127.48 
L 181.89203 127.48 
L 181.89203 120.327488 
L 175.435182 120.327488 
z
" clip-path="url(#p7652497ad1)" style="fill: #332345; opacity: 0.8"/>
   </g>
   <g id="patch_7">
    <path d="M 215.790485 127.48 
L 222.247333 127.48 
L 222.247333 121.379328 
L 215.790485 121.379328 
z
" clip-path="url(#p7652497ad1)" style="fill: #332345; opacity: 0.8"/>
   </g>
   <g id="patch_8">
    <path d="M 60.826121 127.48 
L 67.28297 127.48 
L 67.28297 116.9616 
L 60.826121 116.9616 
z
" clip-path="url(#p7652497ad1)" style="fill: #40498e; opacity: 0.8"/>
   </g>
   <g id="patch_9">
    <path d="M 101.181424 127.48 
L 107.638273 127.48 
L 107.638273 120.11712 
L 101.181424 120.11712 
z
" clip-path="url(#p7652497ad1)" style="fill: #40498e; opacity: 0.8"/>
   </g>
   <g id="patch_10">
    <path d="M 141.536727 127.48 
L 147.993576 127.48 
L 147.993576 117.382336 
L 141.536727 117.382336 
z
" clip-path="url(#p7652497ad1)" style="fill: #40498e; opacity: 0.8"/>
   </g>
   <g id="patch_11">
    <path d="M 181.89203 127.48 
L 188.348879 127.48 
L 188.348879 117.382336 
L 181.89203 117.382336 
z
" clip-path="url(#p7652497ad1)" style="fill: #40498e; opacity: 0.8"/>
   </g>
   <g id="patch_12">
    <path d="M 222.247333 127.48 
L 228.704182 127.48 
L 228.704182 119.275648 
L 222.247333 119.275648 
z
" clip-path="url(#p7652497ad1)" style="fill: #40498e; opacity: 0.8"/>
   </g>
   <g id="patch_13">
    <path d="M 67.28297 127.48 
L 73.739818 127.48 
L 73.739818 104.33952 
L 67.28297 104.33952 
z
" clip-path="url(#p7652497ad1)" style="fill: #357ba3; opacity: 0.8"/>
   </g>
   <g id="patch_14">
    <path d="M 107.638273 127.48 
L 114.095121 127.48 
L 114.095121 107.49504 
L 107.638273 107.49504 
z
" clip-path="url(#p7652497ad1)" style="fill: #357ba3; opacity: 0.8"/>
   </g>
   <g id="patch_15">
    <path d="M 147.993576 127.48 
L 154.450424 127.48 
L 154.450424 109.809088 
L 147.993576 109.809088 
z
" clip-path="url(#p7652497ad1)" style="fill: #357ba3; opacity: 0.8"/>
   </g>
   <g id="patch_16">
    <path d="M 188.348879 127.48 
L 194.805727 127.48 
L 194.805727 112.333504 
L 188.348879 112.333504 
z
" clip-path="url(#p7652497ad1)" style="fill: #357ba3; opacity: 0.8"/>
   </g>
   <g id="patch_17">
    <path d="M 228.704182 127.48 
L 235.16103 127.48 
L 235.16103 111.281664 
L 228.704182 111.281664 
z
" clip-path="url(#p7652497ad1)" style="fill: #357ba3; opacity: 0.8"/>
   </g>
   <g id="patch_18">
    <path d="M 73.739818 127.48 
L 80.196667 127.48 
L 80.196667 98.02848 
L 73.739818 98.02848 
z
" clip-path="url(#p7652497ad1)" style="fill: #38aaac; opacity: 0.8"/>
   </g>
   <g id="patch_19">
    <path d="M 114.095121 127.48 
L 120.55197 127.48 
L 120.55197 99.08032 
L 114.095121 99.08032 
z
" clip-path="url(#p7652497ad1)" style="fill: #38aaac; opacity: 0.8"/>
   </g>
   <g id="patch_20">
    <path d="M 154.450424 127.48 
L 160.907273 127.48 
L 160.907273 104.760256 
L 154.450424 104.760256 
z
" clip-path="url(#p7652497ad1)" style="fill: #38aaac; opacity: 0.8"/>
   </g>
   <g id="patch_21">
    <path d="M 194.805727 127.48 
L 201.262576 127.48 
L 201.262576 106.022464 
L 194.805727 106.022464 
z
" clip-path="url(#p7652497ad1)" style="fill: #38aaac; opacity: 0.8"/>
   </g>
   <g id="patch_22">
    <path d="M 235.16103 127.48 
L 241.617879 127.48 
L 241.617879 106.863936 
L 235.16103 106.863936 
z
" clip-path="url(#p7652497ad1)" style="fill: #38aaac; opacity: 0.8"/>
   </g>
   <g id="patch_23">
    <path d="M 80.196667 127.48 
L 86.653515 127.48 
L 86.653515 81.19904 
L 80.196667 81.19904 
z
" clip-path="url(#p7652497ad1)" style="fill: #79d6ae; opacity: 0.8"/>
   </g>
   <g id="patch_24">
    <path d="M 120.55197 127.48 
L 127.008818 127.48 
L 127.008818 88.56192 
L 120.55197 88.56192 
z
" clip-path="url(#p7652497ad1)" style="fill: #79d6ae; opacity: 0.8"/>
   </g>
   <g id="patch_25">
    <path d="M 160.907273 127.48 
L 167.364121 127.48 
L 167.364121 96.345536 
L 160.907273 96.345536 
z
" clip-path="url(#p7652497ad1)" style="fill: #79d6ae; opacity: 0.8"/>
   </g>
   <g id="patch_26">
    <path d="M 201.262576 127.48 
L 207.719424 127.48 
L 207.719424 95.083328 
L 201.262576 95.083328 
z
" clip-path="url(#p7652497ad1)" style="fill: #79d6ae; opacity: 0.8"/>
   </g>
   <g id="patch_27">
    <path d="M 241.617879 127.48 
L 248.074727 127.48 
L 248.074727 99.921792 
L 241.617879 99.921792 
z
" clip-path="url(#p7652497ad1)" style="fill: #79d6ae; opacity: 0.8"/>
   </g>
   <g id="matplotlib.axis_1">
    <g id="xtick_1">
     <g id="line2d_4">
      <defs>
       <path id="m8fa56ee355" d="M 0 0 
L 0 3.5 
" style="stroke: #000000; stroke-width: 0.8"/>
      </defs>
      <g>
       <use xlink:href="#m8fa56ee355" x="70.511394" y="127.48" style="stroke: #000000; stroke-width: 0.8"/>
      </g>
     </g>
     <g id="text_1">
      <!-- 10(EI) -->
      <g transform="translate(58.592644 140.55875) scale(0.08 -0.08)">
       <defs>
        <path id="DejaVuSans-31" d="M 794 531 
L 1825 531 
L 1825 4091 
L 703 3866 
L 703 4441 
L 1819 4666 
L 2450 4666 
L 2450 531 
L 3481 531 
L 3481 0 
L 794 0 
L 794 531 
z
" transform="scale(0.015625)"/>
        <path id="DejaVuSans-30" d="M 2034 4250 
Q 1547 4250 1301 3770 
Q 1056 3291 1056 2328 
Q 1056 1369 1301 889 
Q 1547 409 2034 409 
Q 2525 409 2770 889 
Q 3016 1369 3016 2328 
Q 3016 3291 2770 3770 
Q 2525 4250 2034 4250 
z
M 2034 4750 
Q 2819 4750 3233 4129 
Q 3647 3509 3647 2328 
Q 3647 1150 3233 529 
Q 2819 -91 2034 -91 
Q 1250 -91 836 529 
Q 422 1150 422 2328 
Q 422 3509 836 4129 
Q 1250 4750 2034 4750 
z
" transform="scale(0.015625)"/>
        <path id="DejaVuSans-28" d="M 1984 4856 
Q 1566 4138 1362 3434 
Q 1159 2731 1159 2009 
Q 1159 1288 1364 580 
Q 1569 -128 1984 -844 
L 1484 -844 
Q 1016 -109 783 600 
Q 550 1309 550 2009 
Q 550 2706 781 3412 
Q 1013 4119 1484 4856 
L 1984 4856 
z
" transform="scale(0.015625)"/>
        <path id="DejaVuSans-45" d="M 628 4666 
L 3578 4666 
L 3578 4134 
L 1259 4134 
L 1259 2753 
L 3481 2753 
L 3481 2222 
L 1259 2222 
L 1259 531 
L 3634 531 
L 3634 0 
L 628 0 
L 628 4666 
z
" transform="scale(0.015625)"/>
        <path id="DejaVuSans-49" d="M 628 4666 
L 1259 4666 
L 1259 0 
L 628 0 
L 628 4666 
z
" transform="scale(0.015625)"/>
        <path id="DejaVuSans-29" d="M 513 4856 
L 1013 4856 
Q 1481 4119 1714 3412 
Q 1947 2706 1947 2009 
Q 1947 1309 1714 600 
Q 1481 -109 1013 -844 
L 513 -844 
Q 928 -128 1133 580 
Q 1338 1288 1338 2009 
Q 1338 2731 1133 3434 
Q 928 4138 513 4856 
z
" transform="scale(0.015625)"/>
       </defs>
       <use xlink:href="#DejaVuSans-31"/>
       <use xlink:href="#DejaVuSans-30" x="63.623047"/>
       <use xlink:href="#DejaVuSans-28" x="127.246094"/>
       <use xlink:href="#DejaVuSans-45" x="166.259766"/>
       <use xlink:href="#DejaVuSans-49" x="229.443359"/>
       <use xlink:href="#DejaVuSans-29" x="258.935547"/>
      </g>
     </g>
    </g>
    <g id="xtick_2">
     <g id="line2d_5">
      <g>
       <use xlink:href="#m8fa56ee355" x="110.866697" y="127.48" style="stroke: #000000; stroke-width: 0.8"/>
      </g>
     </g>
     <g id="text_2">
      <!-- 5(EI) -->
      <g transform="translate(101.492947 140.55875) scale(0.08 -0.08)">
       <defs>
        <path id="DejaVuSans-35" d="M 691 4666 
L 3169 4666 
L 3169 4134 
L 1269 4134 
L 1269 2991 
Q 1406 3038 1543 3061 
Q 1681 3084 1819 3084 
Q 2600 3084 3056 2656 
Q 3513 2228 3513 1497 
Q 3513 744 3044 326 
Q 2575 -91 1722 -91 
Q 1428 -91 1123 -41 
Q 819 9 494 109 
L 494 744 
Q 775 591 1075 516 
Q 1375 441 1709 441 
Q 2250 441 2565 725 
Q 2881 1009 2881 1497 
Q 2881 1984 2565 2268 
Q 2250 2553 1709 2553 
Q 1456 2553 1204 2497 
Q 953 2441 691 2322 
L 691 4666 
z
" transform="scale(0.015625)"/>
       </defs>
       <use xlink:href="#DejaVuSans-35"/>
       <use xlink:href="#DejaVuSans-28" x="63.623047"/>
       <use xlink:href="#DejaVuSans-45" x="102.636719"/>
       <use xlink:href="#DejaVuSans-49" x="165.820312"/>
       <use xlink:href="#DejaVuSans-29" x="195.3125"/>
      </g>
     </g>
    </g>
    <g id="xtick_3">
     <g id="line2d_6">
      <g>
       <use xlink:href="#m8fa56ee355" x="151.222" y="127.48" style="stroke: #000000; stroke-width: 0.8"/>
      </g>
     </g>
     <g id="text_3">
      <!-- 4(EI) -->
      <g transform="translate(141.84825 140.55875) scale(0.08 -0.08)">
       <defs>
        <path id="DejaVuSans-34" d="M 2419 4116 
L 825 1625 
L 2419 1625 
L 2419 4116 
z
M 2253 4666 
L 3047 4666 
L 3047 1625 
L 3713 1625 
L 3713 1100 
L 3047 1100 
L 3047 0 
L 2419 0 
L 2419 1100 
L 313 1100 
L 313 1709 
L 2253 4666 
z
" transform="scale(0.015625)"/>
       </defs>
       <use xlink:href="#DejaVuSans-34"/>
       <use xlink:href="#DejaVuSans-28" x="63.623047"/>
       <use xlink:href="#DejaVuSans-45" x="102.636719"/>
       <use xlink:href="#DejaVuSans-49" x="165.820312"/>
       <use xlink:href="#DejaVuSans-29" x="195.3125"/>
      </g>
     </g>
    </g>
    <g id="xtick_4">
     <g id="line2d_7">
      <g>
       <use xlink:href="#m8fa56ee355" x="191.577303" y="127.48" style="stroke: #000000; stroke-width: 0.8"/>
      </g>
     </g>
     <g id="text_4">
      <!-- 2(EI) -->
      <g transform="translate(182.203553 140.55875) scale(0.08 -0.08)">
       <defs>
        <path id="DejaVuSans-32" d="M 1228 531 
L 3431 531 
L 3431 0 
L 469 0 
L 469 531 
Q 828 903 1448 1529 
Q 2069 2156 2228 2338 
Q 2531 2678 2651 2914 
Q 2772 3150 2772 3378 
Q 2772 3750 2511 3984 
Q 2250 4219 1831 4219 
Q 1534 4219 1204 4116 
Q 875 4013 500 3803 
L 500 4441 
Q 881 4594 1212 4672 
Q 1544 4750 1819 4750 
Q 2544 4750 2975 4387 
Q 3406 4025 3406 3419 
Q 3406 3131 3298 2873 
Q 3191 2616 2906 2266 
Q 2828 2175 2409 1742 
Q 1991 1309 1228 531 
z
" transform="scale(0.015625)"/>
       </defs>
       <use xlink:href="#DejaVuSans-32"/>
       <use xlink:href="#DejaVuSans-28" x="63.623047"/>
       <use xlink:href="#DejaVuSans-45" x="102.636719"/>
       <use xlink:href="#DejaVuSans-49" x="165.820312"/>
       <use xlink:href="#DejaVuSans-29" x="195.3125"/>
      </g>
     </g>
    </g>
    <g id="xtick_5">
     <g id="line2d_8">
      <g>
       <use xlink:href="#m8fa56ee355" x="231.932606" y="127.48" style="stroke: #000000; stroke-width: 0.8"/>
      </g>
     </g>
     <g id="text_5">
      <!-- 1(EI) -->
      <g transform="translate(222.558856 140.55875) scale(0.08 -0.08)">
       <use xlink:href="#DejaVuSans-31"/>
       <use xlink:href="#DejaVuSans-28" x="63.623047"/>
       <use xlink:href="#DejaVuSans-45" x="102.636719"/>
       <use xlink:href="#DejaVuSans-49" x="165.820312"/>
       <use xlink:href="#DejaVuSans-29" x="195.3125"/>
      </g>
     </g>
    </g>
    <g id="text_6">
     <!-- $N_k \left(\xi = \mathrm{EI} \right)$ -->
     <g transform="translate(127.822 153.8225) scale(0.1 -0.1)">
      <defs>
       <path id="DejaVuSans-Oblique-4e" d="M 1081 4666 
L 1931 4666 
L 3219 666 
L 4000 4666 
L 4616 4666 
L 3706 0 
L 2853 0 
L 1569 4025 
L 788 0 
L 172 0 
L 1081 4666 
z
" transform="scale(0.015625)"/>
       <path id="DejaVuSans-Oblique-6b" d="M 1172 4863 
L 1747 4863 
L 1197 2028 
L 3169 3500 
L 3916 3500 
L 1716 1825 
L 3322 0 
L 2625 0 
L 1131 1709 
L 800 0 
L 225 0 
L 1172 4863 
z
" transform="scale(0.015625)"/>
       <path id="DejaVuSans-Oblique-3be" d="M 2016 397 
Q 2428 394 2628 159 
Q 2844 -88 2772 -463 
Q 2700 -822 2422 -1072 
Q 2119 -1344 1609 -1344 
Q 1656 -1109 1700 -872 
Q 1913 -888 2072 -750 
Q 2194 -641 2216 -525 
Q 2247 -359 2175 -222 
Q 2100 -91 1922 -91 
Q -25 -91 241 1275 
Q 422 2213 1516 2488 
Q 663 2600 822 3413 
Q 941 4028 1678 4284 
L 1028 4284 
L 1141 4863 
L 3606 4863 
L 3494 4284 
Q 1528 4284 1350 3375 
Q 1234 2778 2881 2750 
L 2778 2219 
Q 1009 2288 819 1275 
Q 659 428 2016 397 
z
" transform="scale(0.015625)"/>
       <path id="DejaVuSans-3d" d="M 678 2906 
L 4684 2906 
L 4684 2381 
L 678 2381 
L 678 2906 
z
M 678 1631 
L 4684 1631 
L 4684 1100 
L 678 1100 
L 678 1631 
z
" transform="scale(0.015625)"/>
      </defs>
      <use xlink:href="#DejaVuSans-Oblique-4e" transform="translate(0 0.015625)"/>
      <use xlink:href="#DejaVuSans-Oblique-6b" transform="translate(74.804688 -16.390625) scale(0.7)"/>
      <use xlink:href="#DejaVuSans-28" transform="translate(118.076172 0.015625)"/>
      <use xlink:href="#DejaVuSans-Oblique-3be" transform="translate(157.089844 0.015625)"/>
      <use xlink:href="#DejaVuSans-3d" transform="translate(232.333984 0.015625)"/>
      <use xlink:href="#DejaVuSans-45" transform="translate(335.605469 0.015625)"/>
      <use xlink:href="#DejaVuSans-49" transform="translate(398.789062 0.015625)"/>
      <use xlink:href="#DejaVuSans-29" transform="translate(428.28125 0.015625)"/>
     </g>
    </g>
   </g>
   <g id="matplotlib.axis_2">
    <g id="ytick_1">
     <g id="line2d_9">
      <defs>
       <path id="m66e5945a46" d="M 0 0 
L -3.5 0 
" style="stroke: #000000; stroke-width: 0.8"/>
      </defs>
      <g>
       <use xlink:href="#m66e5945a46" x="44.684" y="127.48" style="stroke: #000000; stroke-width: 0.8"/>
      </g>
     </g>
     <g id="text_7">
      <!-- 0 -->
      <g transform="translate(32.594 130.519375) scale(0.08 -0.08)">
       <use xlink:href="#DejaVuSans-30"/>
      </g>
     </g>
    </g>
    <g id="ytick_2">
     <g id="line2d_10">
      <g>
       <use xlink:href="#m66e5945a46" x="44.684" y="101.184" style="stroke: #000000; stroke-width: 0.8"/>
      </g>
     </g>
     <g id="text_8">
      <!-- 25 -->
      <g transform="translate(27.504 104.223375) scale(0.08 -0.08)">
       <use xlink:href="#DejaVuSans-32"/>
       <use xlink:href="#DejaVuSans-35" x="63.623047"/>
      </g>
     </g>
    </g>
    <g id="ytick_3">
     <g id="line2d_11">
      <g>
       <use xlink:href="#m66e5945a46" x="44.684" y="74.888" style="stroke: #000000; stroke-width: 0.8"/>
      </g>
     </g>
     <g id="text_9">
      <!-- 50 -->
      <g transform="translate(27.504 77.927375) scale(0.08 -0.08)">
       <use xlink:href="#DejaVuSans-35"/>
       <use xlink:href="#DejaVuSans-30" x="63.623047"/>
      </g>
     </g>
    </g>
    <g id="ytick_4">
     <g id="line2d_12">
      <g>
       <use xlink:href="#m66e5945a46" x="44.684" y="48.592" style="stroke: #000000; stroke-width: 0.8"/>
      </g>
     </g>
     <g id="text_10">
      <!-- 75 -->
      <g transform="translate(27.504 51.631375) scale(0.08 -0.08)">
       <defs>
        <path id="DejaVuSans-37" d="M 525 4666 
L 3525 4666 
L 3525 4397 
L 1831 0 
L 1172 0 
L 2766 4134 
L 525 4134 
L 525 4666 
z
" transform="scale(0.015625)"/>
       </defs>
       <use xlink:href="#DejaVuSans-37"/>
       <use xlink:href="#DejaVuSans-35" x="63.623047"/>
      </g>
     </g>
    </g>
    <g id="ytick_5">
     <g id="line2d_13">
      <g>
       <use xlink:href="#m66e5945a46" x="44.684" y="22.296" style="stroke: #000000; stroke-width: 0.8"/>
      </g>
     </g>
     <g id="text_11">
      <!-- 100 -->
      <g transform="translate(22.414 25.335375) scale(0.08 -0.08)">
       <use xlink:href="#DejaVuSans-31"/>
       <use xlink:href="#DejaVuSans-30" x="63.623047"/>
       <use xlink:href="#DejaVuSans-30" x="127.246094"/>
      </g>
     </g>
    </g>
    <g id="text_12">
     <!-- $N_t$ -->
     <g transform="translate(16.334313 80.138) rotate(-90) scale(0.1 -0.1)">
      <defs>
       <path id="DejaVuSans-Oblique-74" d="M 2706 3500 
L 2619 3053 
L 1472 3053 
L 1100 1153 
Q 1081 1047 1072 975 
Q 1063 903 1063 863 
Q 1063 663 1183 572 
Q 1303 481 1569 481 
L 2150 481 
L 2053 0 
L 1503 0 
Q 991 0 739 200 
Q 488 400 488 806 
Q 488 878 497 964 
Q 506 1050 525 1153 
L 897 3053 
L 409 3053 
L 500 3500 
L 978 3500 
L 1172 4494 
L 1747 4494 
L 1556 3500 
L 2706 3500 
z
" transform="scale(0.015625)"/>
      </defs>
      <use xlink:href="#DejaVuSans-Oblique-4e" transform="translate(0 0.09375)"/>
      <use xlink:href="#DejaVuSans-Oblique-74" transform="translate(74.804688 -16.3125) scale(0.7)"/>
     </g>
    </g>
   </g>
   <g id="LineCollection_1">
    <path d="M 57.597697 116.9616 
L 57.597697 116.9616 
" clip-path="url(#p7652497ad1)" style="fill: none; stroke: #000000; stroke-width: 1.5"/>
    <path d="M 97.953 123.27264 
L 97.953 119.06528 
" clip-path="url(#p7652497ad1)" style="fill: none; stroke: #000000; stroke-width: 1.5"/>
    <path d="M 138.308303 124.114112 
L 138.308303 117.382336 
" clip-path="url(#p7652497ad1)" style="fill: none; stroke: #000000; stroke-width: 1.5"/>
    <path d="M 178.663606 123.475988 
L 178.663606 117.178988 
" clip-path="url(#p7652497ad1)" style="fill: none; stroke: #000000; stroke-width: 1.5"/>
    <path d="M 219.018909 124.456747 
L 219.018909 118.301909 
" clip-path="url(#p7652497ad1)" style="fill: none; stroke: #000000; stroke-width: 1.5"/>
   </g>
   <g id="line2d_14">
    <defs>
     <path id="m65e29f96a0" d="M 3 0 
L -3 -0 
" style="stroke: #000000"/>
    </defs>
    <g clip-path="url(#p7652497ad1)">
     <use xlink:href="#m65e29f96a0" x="57.597697" y="116.9616" style="stroke: #000000"/>
     <use xlink:href="#m65e29f96a0" x="97.953" y="123.27264" style="stroke: #000000"/>
     <use xlink:href="#m65e29f96a0" x="138.308303" y="124.114112" style="stroke: #000000"/>
     <use xlink:href="#m65e29f96a0" x="178.663606" y="123.475988" style="stroke: #000000"/>
     <use xlink:href="#m65e29f96a0" x="219.018909" y="124.456747" style="stroke: #000000"/>
    </g>
   </g>
   <g id="line2d_15">
    <g clip-path="url(#p7652497ad1)">
     <use xlink:href="#m65e29f96a0" x="57.597697" y="116.9616" style="stroke: #000000"/>
     <use xlink:href="#m65e29f96a0" x="97.953" y="119.06528" style="stroke: #000000"/>
     <use xlink:href="#m65e29f96a0" x="138.308303" y="117.382336" style="stroke: #000000"/>
     <use xlink:href="#m65e29f96a0" x="178.663606" y="117.178988" style="stroke: #000000"/>
     <use xlink:href="#m65e29f96a0" x="219.018909" y="118.301909" style="stroke: #000000"/>
    </g>
   </g>
   <g id="LineCollection_2">
    <path d="M 64.054545 116.9616 
L 64.054545 116.9616 
" clip-path="url(#p7652497ad1)" style="fill: none; stroke: #000000; stroke-width: 1.5"/>
    <path d="M 104.409848 124.32448 
L 104.409848 115.90976 
" clip-path="url(#p7652497ad1)" style="fill: none; stroke: #000000; stroke-width: 1.5"/>
    <path d="M 144.765152 120.748224 
L 144.765152 114.016448 
" clip-path="url(#p7652497ad1)" style="fill: none; stroke: #000000; stroke-width: 1.5"/>
    <path d="M 185.120455 121.001644 
L 185.120455 113.763028 
" clip-path="url(#p7652497ad1)" style="fill: none; stroke: #000000; stroke-width: 1.5"/>
    <path d="M 225.475758 122.205735 
L 225.475758 116.345561 
" clip-path="url(#p7652497ad1)" style="fill: none; stroke: #000000; stroke-width: 1.5"/>
   </g>
   <g id="line2d_16">
    <g clip-path="url(#p7652497ad1)">
     <use xlink:href="#m65e29f96a0" x="64.054545" y="116.9616" style="stroke: #000000"/>
     <use xlink:href="#m65e29f96a0" x="104.409848" y="124.32448" style="stroke: #000000"/>
     <use xlink:href="#m65e29f96a0" x="144.765152" y="120.748224" style="stroke: #000000"/>
     <use xlink:href="#m65e29f96a0" x="185.120455" y="121.001644" style="stroke: #000000"/>
     <use xlink:href="#m65e29f96a0" x="225.475758" y="122.205735" style="stroke: #000000"/>
    </g>
   </g>
   <g id="line2d_17">
    <g clip-path="url(#p7652497ad1)">
     <use xlink:href="#m65e29f96a0" x="64.054545" y="116.9616" style="stroke: #000000"/>
     <use xlink:href="#m65e29f96a0" x="104.409848" y="115.90976" style="stroke: #000000"/>
     <use xlink:href="#m65e29f96a0" x="144.765152" y="114.016448" style="stroke: #000000"/>
     <use xlink:href="#m65e29f96a0" x="185.120455" y="113.763028" style="stroke: #000000"/>
     <use xlink:href="#m65e29f96a0" x="225.475758" y="116.345561" style="stroke: #000000"/>
    </g>
   </g>
   <g id="LineCollection_3">
    <path d="M 70.511394 116.605977 
L 70.511394 92.073063 
" clip-path="url(#p7652497ad1)" style="fill: none; stroke: #000000; stroke-width: 1.5"/>
    <path d="M 110.866697 123.23754 
L 110.866697 91.75254 
" clip-path="url(#p7652497ad1)" style="fill: none; stroke: #000000; stroke-width: 1.5"/>
    <path d="M 151.222 117.521306 
L 151.222 102.09687 
" clip-path="url(#p7652497ad1)" style="fill: none; stroke: #000000; stroke-width: 1.5"/>
    <path d="M 191.577303 119.788965 
L 191.577303 104.878043 
" clip-path="url(#p7652497ad1)" style="fill: none; stroke: #000000; stroke-width: 1.5"/>
    <path d="M 231.932606 119.816488 
L 231.932606 102.74684 
" clip-path="url(#p7652497ad1)" style="fill: none; stroke: #000000; stroke-width: 1.5"/>
   </g>
   <g id="line2d_18">
    <g clip-path="url(#p7652497ad1)">
     <use xlink:href="#m65e29f96a0" x="70.511394" y="116.605977" style="stroke: #000000"/>
     <use xlink:href="#m65e29f96a0" x="110.866697" y="123.23754" style="stroke: #000000"/>
     <use xlink:href="#m65e29f96a0" x="151.222" y="117.521306" style="stroke: #000000"/>
     <use xlink:href="#m65e29f96a0" x="191.577303" y="119.788965" style="stroke: #000000"/>
     <use xlink:href="#m65e29f96a0" x="231.932606" y="119.816488" style="stroke: #000000"/>
    </g>
   </g>
   <g id="line2d_19">
    <g clip-path="url(#p7652497ad1)">
     <use xlink:href="#m65e29f96a0" x="70.511394" y="92.073063" style="stroke: #000000"/>
     <use xlink:href="#m65e29f96a0" x="110.866697" y="91.75254" style="stroke: #000000"/>
     <use xlink:href="#m65e29f96a0" x="151.222" y="102.09687" style="stroke: #000000"/>
     <use xlink:href="#m65e29f96a0" x="191.577303" y="104.878043" style="stroke: #000000"/>
     <use xlink:href="#m65e29f96a0" x="231.932606" y="102.74684" style="stroke: #000000"/>
    </g>
   </g>
   <g id="LineCollection_4">
    <path d="M 76.968242 110.294937 
L 76.968242 85.762023 
" clip-path="url(#p7652497ad1)" style="fill: none; stroke: #000000; stroke-width: 1.5"/>
    <path d="M 117.323545 116.235311 
L 117.323545 81.925329 
" clip-path="url(#p7652497ad1)" style="fill: none; stroke: #000000; stroke-width: 1.5"/>
    <path d="M 157.678848 108.126144 
L 157.678848 101.394368 
" clip-path="url(#p7652497ad1)" style="fill: none; stroke: #000000; stroke-width: 1.5"/>
    <path d="M 198.034152 116.447891 
L 198.034152 95.597037 
" clip-path="url(#p7652497ad1)" style="fill: none; stroke: #000000; stroke-width: 1.5"/>
    <path d="M 238.389455 115.853323 
L 238.389455 97.874549 
" clip-path="url(#p7652497ad1)" style="fill: none; stroke: #000000; stroke-width: 1.5"/>
   </g>
   <g id="line2d_20">
    <g clip-path="url(#p7652497ad1)">
     <use xlink:href="#m65e29f96a0" x="76.968242" y="110.294937" style="stroke: #000000"/>
     <use xlink:href="#m65e29f96a0" x="117.323545" y="116.235311" style="stroke: #000000"/>
     <use xlink:href="#m65e29f96a0" x="157.678848" y="108.126144" style="stroke: #000000"/>
     <use xlink:href="#m65e29f96a0" x="198.034152" y="116.447891" style="stroke: #000000"/>
     <use xlink:href="#m65e29f96a0" x="238.389455" y="115.853323" style="stroke: #000000"/>
    </g>
   </g>
   <g id="line2d_21">
    <g clip-path="url(#p7652497ad1)">
     <use xlink:href="#m65e29f96a0" x="76.968242" y="85.762023" style="stroke: #000000"/>
     <use xlink:href="#m65e29f96a0" x="117.323545" y="81.925329" style="stroke: #000000"/>
     <use xlink:href="#m65e29f96a0" x="157.678848" y="101.394368" style="stroke: #000000"/>
     <use xlink:href="#m65e29f96a0" x="198.034152" y="95.597037" style="stroke: #000000"/>
     <use xlink:href="#m65e29f96a0" x="238.389455" y="97.874549" style="stroke: #000000"/>
    </g>
   </g>
   <g id="LineCollection_5">
    <path d="M 83.425091 99.538497 
L 83.425091 62.859583 
" clip-path="url(#p7652497ad1)" style="fill: none; stroke: #000000; stroke-width: 1.5"/>
    <path d="M 123.780394 104.720593 
L 123.780394 72.403247 
" clip-path="url(#p7652497ad1)" style="fill: none; stroke: #000000; stroke-width: 1.5"/>
    <path d="M 164.135697 108.422931 
L 164.135697 84.268141 
" clip-path="url(#p7652497ad1)" style="fill: none; stroke: #000000; stroke-width: 1.5"/>
    <path d="M 204.491 102.443202 
L 204.491 87.723454 
" clip-path="url(#p7652497ad1)" style="fill: none; stroke: #000000; stroke-width: 1.5"/>
    <path d="M 244.846303 108.503156 
L 244.846303 91.340428 
" clip-path="url(#p7652497ad1)" style="fill: none; stroke: #000000; stroke-width: 1.5"/>
   </g>
   <g id="line2d_22">
    <g clip-path="url(#p7652497ad1)">
     <use xlink:href="#m65e29f96a0" x="83.425091" y="99.538497" style="stroke: #000000"/>
     <use xlink:href="#m65e29f96a0" x="123.780394" y="104.720593" style="stroke: #000000"/>
     <use xlink:href="#m65e29f96a0" x="164.135697" y="108.422931" style="stroke: #000000"/>
     <use xlink:href="#m65e29f96a0" x="204.491" y="102.443202" style="stroke: #000000"/>
     <use xlink:href="#m65e29f96a0" x="244.846303" y="108.503156" style="stroke: #000000"/>
    </g>
   </g>
   <g id="line2d_23">
    <g clip-path="url(#p7652497ad1)">
     <use xlink:href="#m65e29f96a0" x="83.425091" y="62.859583" style="stroke: #000000"/>
     <use xlink:href="#m65e29f96a0" x="123.780394" y="72.403247" style="stroke: #000000"/>
     <use xlink:href="#m65e29f96a0" x="164.135697" y="84.268141" style="stroke: #000000"/>
     <use xlink:href="#m65e29f96a0" x="204.491" y="87.723454" style="stroke: #000000"/>
     <use xlink:href="#m65e29f96a0" x="244.846303" y="91.340428" style="stroke: #000000"/>
    </g>
   </g>
   <g id="patch_28">
    <path d="M 44.684 127.48 
L 44.684 22.296 
" style="fill: none; stroke: #000000; stroke-width: 0.8; stroke-linejoin: miter; stroke-linecap: square"/>
   </g>
   <g id="patch_29">
    <path d="M 257.76 127.48 
L 257.76 22.296 
" style="fill: none; stroke: #000000; stroke-width: 0.8; stroke-linejoin: miter; stroke-linecap: square"/>
   </g>
   <g id="patch_30">
    <path d="M 44.684 127.48 
L 257.76 127.48 
" style="fill: none; stroke: #000000; stroke-width: 0.8; stroke-linejoin: miter; stroke-linecap: square"/>
   </g>
   <g id="patch_31">
    <path d="M 44.684 22.296 
L 257.76 22.296 
" style="fill: none; stroke: #000000; stroke-width: 0.8; stroke-linejoin: miter; stroke-linecap: square"/>
   </g>
   <g id="text_13">
    <!-- Time to Threshold ($\tau_{\alpha}$) -->
    <g transform="translate(94.922 16.296) scale(0.1 -0.1)">
     <defs>
      <path id="DejaVuSans-54" d="M -19 4666 
L 3928 4666 
L 3928 4134 
L 2272 4134 
L 2272 0 
L 1638 0 
L 1638 4134 
L -19 4134 
L -19 4666 
z
" transform="scale(0.015625)"/>
      <path id="DejaVuSans-69" d="M 603 3500 
L 1178 3500 
L 1178 0 
L 603 0 
L 603 3500 
z
M 603 4863 
L 1178 4863 
L 1178 4134 
L 603 4134 
L 603 4863 
z
" transform="scale(0.015625)"/>
      <path id="DejaVuSans-6d" d="M 3328 2828 
Q 3544 3216 3844 3400 
Q 4144 3584 4550 3584 
Q 5097 3584 5394 3201 
Q 5691 2819 5691 2113 
L 5691 0 
L 5113 0 
L 5113 2094 
Q 5113 2597 4934 2840 
Q 4756 3084 4391 3084 
Q 3944 3084 3684 2787 
Q 3425 2491 3425 1978 
L 3425 0 
L 2847 0 
L 2847 2094 
Q 2847 2600 2669 2842 
Q 2491 3084 2119 3084 
Q 1678 3084 1418 2786 
Q 1159 2488 1159 1978 
L 1159 0 
L 581 0 
L 581 3500 
L 1159 3500 
L 1159 2956 
Q 1356 3278 1631 3431 
Q 1906 3584 2284 3584 
Q 2666 3584 2933 3390 
Q 3200 3197 3328 2828 
z
" transform="scale(0.015625)"/>
      <path id="DejaVuSans-65" d="M 3597 1894 
L 3597 1613 
L 953 1613 
Q 991 1019 1311 708 
Q 1631 397 2203 397 
Q 2534 397 2845 478 
Q 3156 559 3463 722 
L 3463 178 
Q 3153 47 2828 -22 
Q 2503 -91 2169 -91 
Q 1331 -91 842 396 
Q 353 884 353 1716 
Q 353 2575 817 3079 
Q 1281 3584 2069 3584 
Q 2775 3584 3186 3129 
Q 3597 2675 3597 1894 
z
M 3022 2063 
Q 3016 2534 2758 2815 
Q 2500 3097 2075 3097 
Q 1594 3097 1305 2825 
Q 1016 2553 972 2059 
L 3022 2063 
z
" transform="scale(0.015625)"/>
      <path id="DejaVuSans-20" transform="scale(0.015625)"/>
      <path id="DejaVuSans-74" d="M 1172 4494 
L 1172 3500 
L 2356 3500 
L 2356 3053 
L 1172 3053 
L 1172 1153 
Q 1172 725 1289 603 
Q 1406 481 1766 481 
L 2356 481 
L 2356 0 
L 1766 0 
Q 1100 0 847 248 
Q 594 497 594 1153 
L 594 3053 
L 172 3053 
L 172 3500 
L 594 3500 
L 594 4494 
L 1172 4494 
z
" transform="scale(0.015625)"/>
      <path id="DejaVuSans-6f" d="M 1959 3097 
Q 1497 3097 1228 2736 
Q 959 2375 959 1747 
Q 959 1119 1226 758 
Q 1494 397 1959 397 
Q 2419 397 2687 759 
Q 2956 1122 2956 1747 
Q 2956 2369 2687 2733 
Q 2419 3097 1959 3097 
z
M 1959 3584 
Q 2709 3584 3137 3096 
Q 3566 2609 3566 1747 
Q 3566 888 3137 398 
Q 2709 -91 1959 -91 
Q 1206 -91 779 398 
Q 353 888 353 1747 
Q 353 2609 779 3096 
Q 1206 3584 1959 3584 
z
" transform="scale(0.015625)"/>
      <path id="DejaVuSans-68" d="M 3513 2113 
L 3513 0 
L 2938 0 
L 2938 2094 
Q 2938 2591 2744 2837 
Q 2550 3084 2163 3084 
Q 1697 3084 1428 2787 
Q 1159 2491 1159 1978 
L 1159 0 
L 581 0 
L 581 4863 
L 1159 4863 
L 1159 2956 
Q 1366 3272 1645 3428 
Q 1925 3584 2291 3584 
Q 2894 3584 3203 3211 
Q 3513 2838 3513 2113 
z
" transform="scale(0.015625)"/>
      <path id="DejaVuSans-72" d="M 2631 2963 
Q 2534 3019 2420 3045 
Q 2306 3072 2169 3072 
Q 1681 3072 1420 2755 
Q 1159 2438 1159 1844 
L 1159 0 
L 581 0 
L 581 3500 
L 1159 3500 
L 1159 2956 
Q 1341 3275 1631 3429 
Q 1922 3584 2338 3584 
Q 2397 3584 2469 3576 
Q 2541 3569 2628 3553 
L 2631 2963 
z
" transform="scale(0.015625)"/>
      <path id="DejaVuSans-73" d="M 2834 3397 
L 2834 2853 
Q 2591 2978 2328 3040 
Q 2066 3103 1784 3103 
Q 1356 3103 1142 2972 
Q 928 2841 928 2578 
Q 928 2378 1081 2264 
Q 1234 2150 1697 2047 
L 1894 2003 
Q 2506 1872 2764 1633 
Q 3022 1394 3022 966 
Q 3022 478 2636 193 
Q 2250 -91 1575 -91 
Q 1294 -91 989 -36 
Q 684 19 347 128 
L 347 722 
Q 666 556 975 473 
Q 1284 391 1588 391 
Q 1994 391 2212 530 
Q 2431 669 2431 922 
Q 2431 1156 2273 1281 
Q 2116 1406 1581 1522 
L 1381 1569 
Q 847 1681 609 1914 
Q 372 2147 372 2553 
Q 372 3047 722 3315 
Q 1072 3584 1716 3584 
Q 2034 3584 2315 3537 
Q 2597 3491 2834 3397 
z
" transform="scale(0.015625)"/>
      <path id="DejaVuSans-6c" d="M 603 4863 
L 1178 4863 
L 1178 0 
L 603 0 
L 603 4863 
z
" transform="scale(0.015625)"/>
      <path id="DejaVuSans-64" d="M 2906 2969 
L 2906 4863 
L 3481 4863 
L 3481 0 
L 2906 0 
L 2906 525 
Q 2725 213 2448 61 
Q 2172 -91 1784 -91 
Q 1150 -91 751 415 
Q 353 922 353 1747 
Q 353 2572 751 3078 
Q 1150 3584 1784 3584 
Q 2172 3584 2448 3432 
Q 2725 3281 2906 2969 
z
M 947 1747 
Q 947 1113 1208 752 
Q 1469 391 1925 391 
Q 2381 391 2643 752 
Q 2906 1113 2906 1747 
Q 2906 2381 2643 2742 
Q 2381 3103 1925 3103 
Q 1469 3103 1208 2742 
Q 947 2381 947 1747 
z
" transform="scale(0.015625)"/>
      <path id="DejaVuSans-Oblique-3c4" d="M 2103 638 
Q 2188 488 2525 488 
L 2800 488 
L 2706 0 
L 2363 0 
Q 1800 0 1600 300 
Q 1403 606 1534 1269 
L 1856 2925 
L 541 2925 
L 653 3500 
L 3881 3500 
L 3769 2925 
L 2444 2925 
L 2113 1234 
Q 2025 781 2103 638 
z
" transform="scale(0.015625)"/>
      <path id="DejaVuSans-Oblique-3b1" d="M 2619 1628 
L 2622 2350 
Q 2625 3088 2069 3091 
Q 1653 3094 1394 2747 
Q 1069 2319 959 1747 
Q 825 1059 994 731 
Q 1169 397 1547 397 
Q 1966 397 2319 1063 
L 2619 1628 
z
M 2166 3578 
Q 3141 3594 3128 2584 
Q 3128 2584 3616 3500 
L 4128 3500 
L 3119 1603 
L 3109 919 
Q 3109 766 3194 638 
Q 3291 488 3391 488 
L 3669 488 
L 3575 0 
L 3228 0 
Q 2934 0 2722 263 
Q 2622 394 2619 669 
Q 2416 334 2066 50 
Q 1900 -81 1453 -78 
Q 722 -72 456 397 
Q 184 884 353 1747 
Q 534 2675 1009 3097 
Q 1544 3569 2166 3578 
z
" transform="scale(0.015625)"/>
     </defs>
     <use xlink:href="#DejaVuSans-54" transform="translate(0 0.015625)"/>
     <use xlink:href="#DejaVuSans-69" transform="translate(61.083984 0.015625)"/>
     <use xlink:href="#DejaVuSans-6d" transform="translate(88.867188 0.015625)"/>
     <use xlink:href="#DejaVuSans-65" transform="translate(186.279297 0.015625)"/>
     <use xlink:href="#DejaVuSans-20" transform="translate(247.802734 0.015625)"/>
     <use xlink:href="#DejaVuSans-74" transform="translate(279.589844 0.015625)"/>
     <use xlink:href="#DejaVuSans-6f" transform="translate(318.798828 0.015625)"/>
     <use xlink:href="#DejaVuSans-20" transform="translate(379.980469 0.015625)"/>
     <use xlink:href="#DejaVuSans-54" transform="translate(411.767578 0.015625)"/>
     <use xlink:href="#DejaVuSans-68" transform="translate(472.851562 0.015625)"/>
     <use xlink:href="#DejaVuSans-72" transform="translate(536.230469 0.015625)"/>
     <use xlink:href="#DejaVuSans-65" transform="translate(577.34375 0.015625)"/>
     <use xlink:href="#DejaVuSans-73" transform="translate(638.867188 0.015625)"/>
     <use xlink:href="#DejaVuSans-68" transform="translate(690.966797 0.015625)"/>
     <use xlink:href="#DejaVuSans-6f" transform="translate(754.345703 0.015625)"/>
     <use xlink:href="#DejaVuSans-6c" transform="translate(815.527344 0.015625)"/>
     <use xlink:href="#DejaVuSans-64" transform="translate(843.310547 0.015625)"/>
     <use xlink:href="#DejaVuSans-20" transform="translate(906.787109 0.015625)"/>
     <use xlink:href="#DejaVuSans-28" transform="translate(938.574219 0.015625)"/>
     <use xlink:href="#DejaVuSans-Oblique-3c4" transform="translate(977.587891 0.015625)"/>
     <use xlink:href="#DejaVuSans-Oblique-3b1" transform="translate(1037.792969 -16.390625) scale(0.7)"/>
     <use xlink:href="#DejaVuSans-29" transform="translate(1086.669922 0.015625)"/>
    </g>
   </g>
  </g>
 </g>
 <defs>
  <clipPath id="p7652497ad1">
   <rect x="44.684" y="22.296" width="213.076" height="105.184"/>
  </clipPath>
 </defs>
</svg>
