<?xml version="1.0" encoding="utf-8" standalone="no"?>
<!DOCTYPE svg PUBLIC "-//W3C//DTD SVG 1.1//EN"
  "http://www.w3.org/Graphics/SVG/1.1/DTD/svg11.dtd">
<svg xmlns:xlink="http://www.w3.org/1999/xlink" width="198pt" height="129.6pt" viewBox="0 0 198 129.6" xmlns="http://www.w3.org/2000/svg" version="1.1">
 <metadata>
  <rdf:RDF xmlns:dc="http://purl.org/dc/elements/1.1/" xmlns:cc="http://creativecommons.org/ns#" xmlns:rdf="http://www.w3.org/1999/02/22-rdf-syntax-ns#">
   <cc:Work>
    <dc:type rdf:resource="http://purl.org/dc/dcmitype/StillImage"/>
    <dc:date>2026-03-30T10:39:43.906043</dc:date>
    <dc:format>image/svg+xml</dc:format>
    <dc:creator>
     <cc:Agent>
      <dc:title>Matplotlib v3.8.0, https://matplotlib.org/</dc:title>
     </cc:Agent>
    </dc:creator>
   </cc:Work>
  </rdf:RDF>
 </metadata>
 <defs>
  <style type="text/css">*{stroke-linejoin: round; stroke-linecap: butt}</style>
 </defs>
 <g id="figure_1">
  <g id="patch_1">
   <path d="M 0 129.6 
L 198 129.6 
L 198 0 
L 0 0 
L 0 129.6 
z
" style="fill: none"/>
  </g>
  <g id="axes_1">
   <g id="patch_2">
    <path d="M 43.144 92.296 
L 188.685 92.296 
L 188.685 22.08 
L 43.144 22.08 
L 43.144 92.296 
z
" style="fill: none"/>
   </g>
   <g id="matplotlib.axis_1">
    <g id="xtick_1">
     <g id="line2d_1">
      <path d="M 49.7595 92.296 
L 49.7595 22.08 
" clip-path="url(#p5623567895)" style="fill: none; stroke-dasharray: 1.85,0.8; stroke-dashoffset: 0; stroke: #b0b0b0; stroke-opacity: 0.7; stroke-width: 0.5"/>
     </g>
     <g id="line2d_2">
      <defs>
       <path id="m7c9a07e2ce" d="M 0 0 
L 0 3.5 
" style="stroke: #000000; stroke-width: 0.8"/>
      </defs>
      <g>
       <use xlink:href="#m7c9a07e2ce" x="49.7595" y="92.296" style="stroke: #000000; stroke-width: 0.8"/>
      </g>
     </g>
     <g id="text_1">
      <!-- 0 -->
      <g transform="translate(47.2145 105.37475) scale(0.08 -0.08)">
       <defs>
        <path id="DejaVuSans-30" d="M 2034 4250 
Q 1547 4250 1301 3770 
Q 1056 3291 1056 2328 
Q 1056 1369 1301 889 
Q 1547 409 2034 409 
Q 2525 409 2770 889 
Q 3016 1369 3016 2328 
Q 3016 3291 2770 3770 
Q 2525 4250 2034 4250 
z
M 2034 4750 
Q 2819 4750 3233 4129 
Q 3647 3509 3647 2328 
Q 3647 1150 3233 529 
Q 2819 -91 2034 -91 
Q 1250 -91 836 529 
Q 422 1150 422 2328 
Q 422 3509 836 4129 
Q 1250 4750 2034 4750 
z
" transform="scale(0.015625)"/>
       </defs>
       <use xlink:href="#DejaVuSans-30"/>
      </g>
     </g>
    </g>
    <g id="xtick_2">
     <g id="line2d_3">
      <path d="M 82.837 92.296 
L 82.837 22.08 
" clip-path="url(#p5623567895)" style="fill: none; stroke-dasharray: 1.85,0.8; stroke-dashoffset: 0; stroke: #b0b0b0; stroke-opacity: 0.7; stroke-width: 0.5"/>
     </g>
     <g id="line2d_4">
      <g>
       <use xlink:href="#m7c9a07e2ce" x="82.837" y="92.296" style="stroke: #000000; stroke-width: 0.8"/>
      </g>
     </g>
     <g id="text_2">
      <!-- 25 -->
      <g transform="translate(77.747 105.37475) scale(0.08 -0.08)">
       <defs>
        <path id="DejaVuSans-32" d="M 1228 531 
L 3431 531 
L 3431 0 
L 469 0 
L 469 531 
Q 828 903 1448 1529 
Q 2069 2156 2228 2338 
Q 2531 2678 2651 2914 
Q 2772 3150 2772 3378 
Q 2772 3750 2511 3984 
Q 2250 4219 1831 4219 
Q 1534 4219 1204 4116 
Q 875 4013 500 3803 
L 500 4441 
Q 881 4594 1212 4672 
Q 1544 4750 1819 4750 
Q 2544 4750 2975 4387 
Q 3406 4025 3406 3419 
Q 3406 3131 3298 2873 
Q 3191 2616 2906 2266 
Q 2828 2175 2409 1742 
Q 1991 1309 1228 531 
z
" transform="scale(0.015625)"/>
        <path id="DejaVuSans-35" d="M 691 4666 
L 3169 4666 
L 3169 4134 
L 1269 4134 
L 1269 2991 
Q 1406 3038 1543 3061 
Q 1681 3084 1819 3084 
Q 2600 3084 3056 2656 
Q 3513 2228 3513 1497 
Q 3513 744 3044 326 
Q 2575 -91 1722 -91 
Q 1428 -91 1123 -41 
Q 819 9 494 109 
L 494 744 
Q 775 591 1075 516 
Q 1375 441 1709 441 
Q 2250 441 2565 725 
Q 2881 1009 2881 1497 
Q 2881 1984 2565 2268 
Q 2250 2553 1709 2553 
Q 1456 2553 1204 2497 
Q 953 2441 691 2322 
L 691 4666 
z
" transform="scale(0.015625)"/>
       </defs>
       <use xlink:href="#DejaVuSans-32"/>
       <use xlink:href="#DejaVuSans-35" x="63.623047"/>
      </g>
     </g>
    </g>
    <g id="xtick_3">
     <g id="line2d_5">
      <path d="M 115.9145 92.296 
L 115.9145 22.08 
" clip-path="url(#p5623567895)" style="fill: none; stroke-dasharray: 1.85,0.8; stroke-dashoffset: 0; stroke: #b0b0b0; stroke-opacity: 0.7; stroke-width: 0.5"/>
     </g>
     <g id="line2d_6">
      <g>
       <use xlink:href="#m7c9a07e2ce" x="115.9145" y="92.296" style="stroke: #000000; stroke-width: 0.8"/>
      </g>
     </g>
     <g id="text_3">
      <!-- 50 -->
      <g transform="translate(110.8245 105.37475) scale(0.08 -0.08)">
       <use xlink:href="#DejaVuSans-35"/>
       <use xlink:href="#DejaVuSans-30" x="63.623047"/>
      </g>
     </g>
    </g>
    <g id="xtick_4">
     <g id="line2d_7">
      <path d="M 148.992 92.296 
L 148.992 22.08 
" clip-path="url(#p5623567895)" style="fill: none; stroke-dasharray: 1.85,0.8; stroke-dashoffset: 0; stroke: #b0b0b0; stroke-opacity: 0.7; stroke-width: 0.5"/>
     </g>
     <g id="line2d_8">
      <g>
       <use xlink:href="#m7c9a07e2ce" x="148.992" y="92.296" style="stroke: #000000; stroke-width: 0.8"/>
      </g>
     </g>
     <g id="text_4">
      <!-- 75 -->
      <g transform="translate(143.902 105.37475) scale(0.08 -0.08)">
       <defs>
        <path id="DejaVuSans-37" d="M 525 4666 
L 3525 4666 
L 3525 4397 
L 1831 0 
L 1172 0 
L 2766 4134 
L 525 4134 
L 525 4666 
z
" transform="scale(0.015625)"/>
       </defs>
       <use xlink:href="#DejaVuSans-37"/>
       <use xlink:href="#DejaVuSans-35" x="63.623047"/>
      </g>
     </g>
    </g>
    <g id="xtick_5">
     <g id="line2d_9">
      <path d="M 182.0695 92.296 
L 182.0695 22.08 
" clip-path="url(#p5623567895)" style="fill: none; stroke-dasharray: 1.85,0.8; stroke-dashoffset: 0; stroke: #b0b0b0; stroke-opacity: 0.7; stroke-width: 0.5"/>
     </g>
     <g id="line2d_10">
      <g>
       <use xlink:href="#m7c9a07e2ce" x="182.0695" y="92.296" style="stroke: #000000; stroke-width: 0.8"/>
      </g>
     </g>
     <g id="text_5">
      <!-- 100 -->
      <g transform="translate(174.4345 105.37475) scale(0.08 -0.08)">
       <defs>
        <path id="DejaVuSans-31" d="M 794 531 
L 1825 531 
L 1825 4091 
L 703 3866 
L 703 4441 
L 1819 4666 
L 2450 4666 
L 2450 531 
L 3481 531 
L 3481 0 
L 794 0 
L 794 531 
z
" transform="scale(0.015625)"/>
       </defs>
       <use xlink:href="#DejaVuSans-31"/>
       <use xlink:href="#DejaVuSans-30" x="63.623047"/>
       <use xlink:href="#DejaVuSans-30" x="127.246094"/>
      </g>
     </g>
    </g>
    <g id="text_6">
     <!-- $N_t$ -->
     <g transform="translate(110.6645 118.636938) scale(0.1 -0.1)">
      <defs>
       <path id="DejaVuSans-Oblique-4e" d="M 1081 4666 
L 1931 4666 
L 3219 666 
L 4000 4666 
L 4616 4666 
L 3706 0 
L 2853 0 
L 1569 4025 
L 788 0 
L 172 0 
L 1081 4666 
z
" transform="scale(0.015625)"/>
       <path id="DejaVuSans-Oblique-74" d="M 2706 3500 
L 2619 3053 
L 1472 3053 
L 1100 1153 
Q 1081 1047 1072 975 
Q 1063 903 1063 863 
Q 1063 663 1183 572 
Q 1303 481 1569 481 
L 2150 481 
L 2053 0 
L 1503 0 
Q 991 0 739 200 
Q 488 400 488 806 
Q 488 878 497 964 
Q 506 1050 525 1153 
L 897 3053 
L 409 3053 
L 500 3500 
L 978 3500 
L 1172 4494 
L 1747 4494 
L 1556 3500 
L 2706 3500 
z
" transform="scale(0.015625)"/>
      </defs>
      <use xlink:href="#DejaVuSans-Oblique-4e" transform="translate(0 0.09375)"/>
      <use xlink:href="#DejaVuSans-Oblique-74" transform="translate(74.804688 -16.3125) scale(0.7)"/>
     </g>
    </g>
   </g>
   <g id="matplotlib.axis_2">
    <g id="ytick_1">
     <g id="line2d_11">
      <defs>
       <path id="mea45f09fe3" d="M 0 0 
L -3.5 0 
" style="stroke: #000000; stroke-width: 0.8"/>
      </defs>
      <g>
       <use xlink:href="#mea45f09fe3" x="43.144" y="89.370333" style="stroke: #000000; stroke-width: 0.8"/>
      </g>
     </g>
     <g id="text_7">
      <!-- 0.0 -->
      <g transform="translate(23.4215 92.409708) scale(0.08 -0.08)">
       <defs>
        <path id="DejaVuSans-2e" d="M 684 794 
L 1344 794 
L 1344 0 
L 684 0 
L 684 794 
z
" transform="scale(0.015625)"/>
       </defs>
       <use xlink:href="#DejaVuSans-30"/>
       <use xlink:href="#DejaVuSans-2e" x="63.623047"/>
       <use xlink:href="#DejaVuSans-30" x="95.410156"/>
      </g>
     </g>
    </g>
    <g id="ytick_2">
     <g id="line2d_12">
      <g>
       <use xlink:href="#mea45f09fe3" x="43.144" y="60.113667" style="stroke: #000000; stroke-width: 0.8"/>
      </g>
     </g>
     <g id="text_8">
      <!-- 0.5 -->
      <g transform="translate(23.4215 63.153042) scale(0.08 -0.08)">
       <use xlink:href="#DejaVuSans-30"/>
       <use xlink:href="#DejaVuSans-2e" x="63.623047"/>
       <use xlink:href="#DejaVuSans-35" x="95.410156"/>
      </g>
     </g>
    </g>
    <g id="ytick_3">
     <g id="line2d_13">
      <g>
       <use xlink:href="#mea45f09fe3" x="43.144" y="30.857" style="stroke: #000000; stroke-width: 0.8"/>
      </g>
     </g>
     <g id="text_9">
      <!-- 1.0 -->
      <g transform="translate(23.4215 33.896375) scale(0.08 -0.08)">
       <use xlink:href="#DejaVuSans-31"/>
       <use xlink:href="#DejaVuSans-2e" x="63.623047"/>
       <use xlink:href="#DejaVuSans-30" x="95.410156"/>
      </g>
     </g>
    </g>
    <g id="text_10">
     <!-- $\tilde{\varepsilon}_t$ -->
     <g transform="translate(17.341812 61.488) rotate(-90) scale(0.1 -0.1)">
      <defs>
       <path id="DejaVuSans-303" d="M -1619 4281 
L -1797 4453 
Q -1866 4516 -1917 4545 
Q -1969 4575 -2009 4575 
Q -2128 4575 -2184 4461 
Q -2241 4347 -2247 4091 
L -2638 4091 
Q -2631 4513 -2472 4742 
Q -2313 4972 -2028 4972 
Q -1909 4972 -1809 4928 
Q -1709 4884 -1594 4781 
L -1416 4609 
Q -1347 4547 -1295 4517 
Q -1244 4488 -1203 4488 
Q -1084 4488 -1028 4602 
Q -972 4716 -966 4972 
L -575 4972 
Q -581 4550 -740 4320 
Q -900 4091 -1184 4091 
Q -1303 4091 -1403 4134 
Q -1503 4178 -1619 4281 
z
" transform="scale(0.015625)"/>
       <path id="DejaVuSans-Oblique-3b5" d="M 1263 1888 
Q 925 1963 778 2166 
Q 669 2309 669 2503 
Q 669 3034 1175 3344 
Q 1575 3588 2188 3588 
Q 2425 3588 2684 3550 
Q 2944 3513 3234 3438 
L 3134 2916 
Q 2847 3006 2606 3047 
Q 2359 3088 2138 3088 
Q 1766 3088 1522 2944 
Q 1228 2772 1228 2522 
Q 1228 2356 1381 2241 
Q 1563 2103 1925 2103 
L 2409 2103 
L 2319 1628 
L 1856 1628 
Q 1425 1628 1172 1469 
Q 828 1253 828 916 
Q 828 703 1013 563 
Q 1244 388 1716 388 
Q 2006 388 2284 444 
Q 2563 503 2806 619 
L 2700 84 
Q 2403 -3 2131 -47 
Q 1859 -91 1609 -91 
Q 866 -91 516 194 
Q 250 413 250 781 
Q 250 1278 600 1584 
Q 859 1813 1263 1888 
z
" transform="scale(0.015625)"/>
      </defs>
      <use xlink:href="#DejaVuSans-303" transform="translate(58.731934 5.3125)"/>
      <use xlink:href="#DejaVuSans-Oblique-3b5" transform="translate(0 0.671875)"/>
      <use xlink:href="#DejaVuSans-Oblique-74" transform="translate(55.009766 -15.734375) scale(0.7)"/>
     </g>
    </g>
   </g>
   <g id="line2d_14">
    <path d="M 49.7595 30.857 
L 51.0826 30.857 
L 52.4057 30.857 
L 53.7288 30.857 
L 55.0519 30.857 
L 56.375 30.857 
L 57.6981 30.857 
L 59.0212 30.857 
L 60.3443 30.857 
L 61.6674 30.857 
L 62.9905 30.857 
L 64.3136 32.447179 
L 65.6367 34.037359 
L 66.9598 35.627538 
L 68.2829 37.217717 
L 69.606 38.807896 
L 70.9291 40.398076 
L 72.2522 41.988255 
L 73.5753 43.578434 
L 74.8984 45.168614 
L 76.2215 46.758793 
L 77.5446 47.447191 
L 78.8677 48.13559 
L 80.1908 48.823989 
L 81.5139 49.512387 
L 82.837 50.200786 
L 84.1601 50.889185 
L 85.4832 51.577583 
L 86.8063 52.265982 
L 88.1294 52.954381 
L 89.4525 53.642779 
L 90.7756 54.28261 
L 92.0987 54.92244 
L 93.4218 55.562271 
L 94.7449 56.202102 
L 96.068 56.841932 
L 97.3911 57.481763 
L 98.7142 58.121593 
L 100.0373 58.761424 
L 101.3604 59.401254 
L 102.6835 60.041085 
L 104.0066 60.637124 
L 105.3297 61.233163 
L 106.6528 61.829203 
L 107.9759 62.425242 
L 109.299 63.021281 
L 110.6221 63.617321 
L 111.9452 64.21336 
L 113.2683 64.809399 
L 114.5914 65.405439 
L 115.9145 66.001478 
L 117.2376 66.216448 
L 118.5607 66.431418 
L 119.8838 66.646388 
L 121.2069 66.861358 
L 122.53 67.076328 
L 123.8531 67.291298 
L 125.1762 67.506268 
L 126.4993 67.721239 
L 127.8224 67.936209 
L 129.1455 68.151179 
L 130.4686 68.181786 
L 131.7917 68.212393 
L 133.1148 68.243 
L 134.4379 68.273607 
L 135.761 68.304214 
L 137.0841 68.334821 
L 138.4072 68.365429 
L 139.7303 68.396036 
L 141.0534 68.426643 
L 142.3765 68.45725 
L 143.6996 68.754095 
L 145.0227 69.050941 
L 146.3458 69.347786 
L 147.6689 69.644632 
L 148.992 69.941477 
L 150.3151 70.238323 
L 151.6382 70.535168 
L 152.9613 70.832013 
L 154.2844 71.128859 
L 155.6075 71.425704 
L 156.9306 71.590516 
L 158.2537 71.755327 
L 159.5768 71.920139 
L 160.8999 72.08495 
L 162.223 72.249762 
L 163.5461 72.414573 
L 164.8692 72.579385 
L 166.1923 72.744196 
L 167.5154 72.909007 
L 168.8385 73.073819 
L 170.1616 73.24356 
L 171.4847 73.413301 
L 172.8078 73.583042 
L 174.1309 73.752782 
L 175.454 73.922523 
L 176.7771 74.092264 
L 178.1002 74.262005 
L 179.4233 74.431746 
L 180.7464 74.601487 
L 182.0695 74.771228 
" clip-path="url(#p5623567895)" style="fill: none; stroke: #e9e9e9; stroke-width: 1.5; stroke-linecap: square"/>
   </g>
   <g id="line2d_15">
    <path d="M 49.7595 30.857 
L 51.0826 30.857 
L 52.4057 30.857 
L 53.7288 30.857 
L 55.0519 30.857 
L 56.375 30.857 
L 57.6981 33.098086 
L 59.0212 35.339171 
L 60.3443 37.580257 
L 61.6674 39.821342 
L 62.9905 42.062428 
L 64.3136 43.182518 
L 65.6367 44.302608 
L 66.9598 45.422698 
L 68.2829 46.542789 
L 69.606 47.662879 
L 70.9291 48.531909 
L 72.2522 49.400939 
L 73.5753 50.269968 
L 74.8984 51.138998 
L 76.2215 52.008028 
L 77.5446 53.133325 
L 78.8677 54.258621 
L 80.1908 55.383917 
L 81.5139 56.509214 
L 82.837 57.63451 
L 84.1601 57.848306 
L 85.4832 58.062102 
L 86.8063 58.275898 
L 88.1294 58.489694 
L 89.4525 58.703491 
L 90.7756 59.239653 
L 92.0987 59.775815 
L 93.4218 60.311977 
L 94.7449 60.848139 
L 96.068 61.384301 
L 97.3911 61.780328 
L 98.7142 62.176355 
L 100.0373 62.572382 
L 101.3604 62.968409 
L 102.6835 63.364436 
L 104.0066 63.763923 
L 105.3297 64.16341 
L 106.6528 64.562896 
L 107.9759 64.962383 
L 109.299 65.36187 
L 110.6221 65.802333 
L 111.9452 66.242797 
L 113.2683 66.68326 
L 114.5914 67.123724 
L 115.9145 67.564187 
L 117.2376 67.791279 
L 118.5607 68.01837 
L 119.8838 68.245462 
L 121.2069 68.472553 
L 122.53 68.699645 
L 123.8531 68.79254 
L 125.1762 68.885435 
L 126.4993 68.97833 
L 127.8224 69.071225 
L 129.1455 69.16412 
L 130.4686 69.364095 
L 131.7917 69.564071 
L 133.1148 69.764047 
L 134.4379 69.964023 
L 135.761 70.163998 
L 137.0841 70.44287 
L 138.4072 70.721741 
L 139.7303 71.000612 
L 141.0534 71.279483 
L 142.3765 71.558355 
L 143.6996 71.730945 
L 145.0227 71.903535 
L 146.3458 72.076125 
L 147.6689 72.248715 
L 148.992 72.421305 
L 150.3151 72.94346 
L 151.6382 73.465615 
L 152.9613 73.987771 
L 154.2844 74.509926 
L 155.6075 75.032082 
L 156.9306 75.123417 
L 158.2537 75.214752 
L 159.5768 75.306087 
L 160.8999 75.397422 
L 162.223 75.488757 
L 163.5461 75.672494 
L 164.8692 75.856232 
L 166.1923 76.039969 
L 167.5154 76.223706 
L 168.8385 76.407444 
L 170.1616 76.610776 
L 171.4847 76.814107 
L 172.8078 77.017439 
L 174.1309 77.220771 
L 175.454 77.424103 
L 176.7771 77.543372 
L 178.1002 77.662642 
L 179.4233 77.781911 
L 180.7464 77.901181 
L 182.0695 78.02045 
" clip-path="url(#p5623567895)" style="fill: none; stroke: #c6c6c6; stroke-width: 1.5; stroke-linecap: square"/>
   </g>
   <g id="line2d_16">
    <path d="M 49.7595 30.857 
L 51.0826 30.857 
L 52.4057 30.857 
L 53.7288 30.857 
L 55.0519 30.857 
L 56.375 33.105324 
L 57.6981 35.353647 
L 59.0212 37.601971 
L 60.3443 39.850295 
L 61.6674 39.977651 
L 62.9905 40.105007 
L 64.3136 40.232364 
L 65.6367 40.35972 
L 66.9598 42.671667 
L 68.2829 44.983615 
L 69.606 47.295562 
L 70.9291 49.607509 
L 72.2522 51.271931 
L 73.5753 52.936352 
L 74.8984 54.600773 
L 76.2215 56.265194 
L 77.5446 57.354403 
L 78.8677 58.443611 
L 80.1908 59.532819 
L 81.5139 60.622027 
L 82.837 61.533472 
L 84.1601 62.444917 
L 85.4832 63.356362 
L 86.8063 64.267806 
L 88.1294 64.68466 
L 89.4525 65.101513 
L 90.7756 65.518366 
L 92.0987 65.93522 
L 93.4218 66.012892 
L 94.7449 66.090564 
L 96.068 66.168236 
L 97.3911 66.245907 
L 98.7142 66.450215 
L 100.0373 66.654522 
L 101.3604 66.85883 
L 102.6835 67.063137 
L 104.0066 67.57121 
L 105.3297 68.079284 
L 106.6528 68.587357 
L 107.9759 69.095431 
L 109.299 69.390061 
L 110.6221 69.684691 
L 111.9452 69.979322 
L 113.2683 70.273952 
L 114.5914 70.425258 
L 115.9145 70.576564 
L 117.2376 70.727869 
L 118.5607 70.879175 
L 119.8838 71.050443 
L 121.2069 71.22171 
L 122.53 71.392978 
L 123.8531 71.564246 
L 125.1762 71.699538 
L 126.4993 71.834829 
L 127.8224 71.970121 
L 129.1455 72.105413 
L 130.4686 72.315917 
L 131.7917 72.526421 
L 133.1148 72.736925 
L 134.4379 72.947428 
L 135.761 73.417029 
L 137.0841 73.886629 
L 138.4072 74.356229 
L 139.7303 74.82583 
L 141.0534 75.089249 
L 142.3765 75.352668 
L 143.6996 75.616087 
L 145.0227 75.879506 
L 146.3458 75.994548 
L 147.6689 76.109591 
L 148.992 76.224634 
L 150.3151 76.339676 
L 151.6382 76.400612 
L 152.9613 76.461548 
L 154.2844 76.522483 
L 155.6075 76.583419 
L 156.9306 76.75034 
L 158.2537 76.917262 
L 159.5768 77.084183 
L 160.8999 77.251104 
L 162.223 77.360765 
L 163.5461 77.470426 
L 164.8692 77.580087 
L 166.1923 77.689748 
L 167.5154 77.679346 
L 168.8385 77.668944 
L 170.1616 77.658542 
L 171.4847 77.64814 
L 172.8078 77.719471 
L 174.1309 77.790802 
L 175.454 77.862132 
L 176.7771 77.933463 
L 178.1002 78.024332 
L 179.4233 78.1152 
L 180.7464 78.206069 
L 182.0695 78.296938 
" clip-path="url(#p5623567895)" style="fill: none; stroke: #959595; stroke-width: 1.5; stroke-linecap: square"/>
   </g>
   <g id="line2d_17">
    <path d="M 49.7595 30.857 
L 51.0826 30.857 
L 52.4057 30.857 
L 53.7288 32.998962 
L 55.0519 35.140925 
L 56.375 38.776688 
L 57.6981 42.412451 
L 59.0212 43.759863 
L 60.3443 45.107275 
L 61.6674 45.820319 
L 62.9905 46.533362 
L 64.3136 48.47805 
L 65.6367 50.422737 
L 66.9598 52.228617 
L 68.2829 54.034496 
L 69.606 54.639381 
L 70.9291 55.244265 
L 72.2522 55.898909 
L 73.5753 56.553552 
L 74.8984 58.592869 
L 76.2215 60.632185 
L 77.5446 61.278776 
L 78.8677 61.925367 
L 80.1908 62.383638 
L 81.5139 62.84191 
L 82.837 63.142081 
L 84.1601 63.442253 
L 85.4832 63.83495 
L 86.8063 64.227647 
L 88.1294 64.499054 
L 89.4525 64.77046 
L 90.7756 64.72426 
L 92.0987 64.67806 
L 93.4218 65.190553 
L 94.7449 65.703045 
L 96.068 66.1462 
L 97.3911 66.589355 
L 98.7142 66.750349 
L 100.0373 66.911342 
L 101.3604 67.048852 
L 102.6835 67.186361 
L 104.0066 67.398504 
L 105.3297 67.610647 
L 106.6528 68.055426 
L 107.9759 68.500205 
L 109.299 68.698331 
L 110.6221 68.896457 
L 111.9452 69.133291 
L 113.2683 69.370125 
L 114.5914 69.626086 
L 115.9145 69.882046 
L 117.2376 70.306797 
L 118.5607 70.731547 
L 119.8838 70.891958 
L 121.2069 71.05237 
L 122.53 71.105585 
L 123.8531 71.158801 
L 125.1762 71.518097 
L 126.4993 71.877393 
L 127.8224 72.514691 
L 129.1455 73.151988 
L 130.4686 73.257803 
L 131.7917 73.363618 
L 133.1148 73.419159 
L 134.4379 73.4747 
L 135.761 73.792329 
L 137.0841 74.109958 
L 138.4072 74.331358 
L 139.7303 74.552757 
L 141.0534 74.806488 
L 142.3765 75.06022 
L 143.6996 75.156348 
L 145.0227 75.252476 
L 146.3458 75.412259 
L 147.6689 75.572042 
L 148.992 75.740876 
L 150.3151 75.90971 
L 151.6382 75.95423 
L 152.9613 75.998749 
L 154.2844 76.093139 
L 155.6075 76.187528 
L 156.9306 76.40324 
L 158.2537 76.618952 
L 159.5768 76.772299 
L 160.8999 76.925647 
L 162.223 76.953754 
L 163.5461 76.981861 
L 164.8692 77.064427 
L 166.1923 77.146994 
L 167.5154 77.372836 
L 168.8385 77.598677 
L 170.1616 77.681971 
L 171.4847 77.765265 
L 172.8078 77.866261 
L 174.1309 77.967257 
L 175.454 77.947437 
L 176.7771 77.927617 
L 178.1002 78.073226 
L 179.4233 78.218835 
L 180.7464 78.275127 
L 182.0695 78.331419 
" clip-path="url(#p5623567895)" style="fill: none; stroke: #686868; stroke-width: 1.5; stroke-linecap: square"/>
   </g>
   <g id="line2d_18">
    <path d="M 49.7595 30.857 
L 51.0826 30.857 
L 52.4057 38.319573 
L 53.7288 42.747049 
L 55.0519 42.063876 
L 56.375 45.387873 
L 57.6981 48.496078 
L 59.0212 47.190623 
L 60.3443 45.007553 
L 61.6674 50.344671 
L 62.9905 51.554405 
L 64.3136 51.795345 
L 65.6367 54.098418 
L 66.9598 54.699471 
L 68.2829 54.330591 
L 69.606 54.673075 
L 70.9291 59.080403 
L 72.2522 59.035497 
L 73.5753 59.047144 
L 74.8984 59.823856 
L 76.2215 60.550794 
L 77.5446 61.900054 
L 78.8677 63.179886 
L 80.1908 63.957577 
L 81.5139 64.896653 
L 82.837 66.529987 
L 84.1601 66.778867 
L 85.4832 66.477467 
L 86.8063 66.63929 
L 88.1294 67.207999 
L 89.4525 67.268626 
L 90.7756 67.71119 
L 92.0987 68.230585 
L 93.4218 68.365757 
L 94.7449 68.356892 
L 96.068 68.344939 
L 97.3911 68.718983 
L 98.7142 68.649731 
L 100.0373 68.806257 
L 101.3604 68.810995 
L 102.6835 68.909722 
L 104.0066 68.858523 
L 105.3297 68.996154 
L 106.6528 70.16736 
L 107.9759 70.215374 
L 109.299 70.211951 
L 110.6221 70.325287 
L 111.9452 70.614335 
L 113.2683 71.232999 
L 114.5914 71.913303 
L 115.9145 72.165821 
L 117.2376 72.289596 
L 118.5607 72.499548 
L 119.8838 72.852044 
L 121.2069 73.070451 
L 122.53 73.146232 
L 123.8531 73.375596 
L 125.1762 73.475292 
L 126.4993 73.498574 
L 127.8224 73.511067 
L 129.1455 73.578531 
L 130.4686 73.646643 
L 131.7917 74.341239 
L 133.1148 74.389969 
L 134.4379 74.512846 
L 135.761 74.602607 
L 137.0841 74.652326 
L 138.4072 74.669054 
L 139.7303 74.998345 
L 141.0534 75.081922 
L 142.3765 75.651458 
L 143.6996 75.551477 
L 145.0227 75.778633 
L 146.3458 76.173287 
L 147.6689 76.364836 
L 148.992 76.62936 
L 150.3151 76.740147 
L 151.6382 76.863938 
L 152.9613 77.139672 
L 154.2844 77.208593 
L 155.6075 77.213565 
L 156.9306 77.23496 
L 158.2537 77.336006 
L 159.5768 78.368161 
L 160.8999 78.573462 
L 162.223 78.886112 
L 163.5461 78.919168 
L 164.8692 78.986046 
L 166.1923 78.969677 
L 167.5154 78.999376 
L 168.8385 78.978488 
L 170.1616 79.086571 
L 171.4847 79.19092 
L 172.8078 79.290466 
L 174.1309 79.327907 
L 175.454 79.576098 
L 176.7771 79.901791 
L 178.1002 80.093611 
L 179.4233 80.140297 
L 180.7464 80.284703 
L 182.0695 80.299075 
" clip-path="url(#p5623567895)" style="fill: none; stroke: #333333; stroke-width: 1.5; stroke-linecap: square"/>
   </g>
   <g id="line2d_19">
    <path d="M 49.7595 30.857 
L 51.0826 30.857 
L 52.4057 30.857 
L 53.7288 30.857 
L 55.0519 30.857 
L 56.375 30.857 
L 57.6981 30.857 
L 59.0212 30.857 
L 60.3443 30.857 
L 61.6674 30.857 
L 62.9905 30.857 
L 64.3136 32.219892 
L 65.6367 33.582784 
L 66.9598 34.945677 
L 68.2829 36.308569 
L 69.606 37.671461 
L 70.9291 39.034353 
L 72.2522 40.397245 
L 73.5753 41.760137 
L 74.8984 43.12303 
L 76.2215 44.485922 
L 77.5446 44.913039 
L 78.8677 45.340157 
L 80.1908 45.767274 
L 81.5139 46.194391 
L 82.837 46.621509 
L 84.1601 47.048626 
L 85.4832 47.475744 
L 86.8063 47.902861 
L 88.1294 48.329978 
L 89.4525 48.757096 
L 90.7756 49.292868 
L 92.0987 49.82864 
L 93.4218 50.364413 
L 94.7449 50.900185 
L 96.068 51.435957 
L 97.3911 51.971729 
L 98.7142 52.507502 
L 100.0373 53.043274 
L 101.3604 53.579046 
L 102.6835 54.114818 
L 104.0066 54.657379 
L 105.3297 55.199939 
L 106.6528 55.742499 
L 107.9759 56.285059 
L 109.299 56.827619 
L 110.6221 57.37018 
L 111.9452 57.91274 
L 113.2683 58.4553 
L 114.5914 58.99786 
L 115.9145 59.54042 
L 117.2376 59.732079 
L 118.5607 59.923737 
L 119.8838 60.115395 
L 121.2069 60.307054 
L 122.53 60.498712 
L 123.8531 60.69037 
L 125.1762 60.882028 
L 126.4993 61.073687 
L 127.8224 61.265345 
L 129.1455 61.457003 
L 130.4686 61.946291 
L 131.7917 62.435579 
L 133.1148 62.924866 
L 134.4379 63.414154 
L 135.761 63.903441 
L 137.0841 64.392729 
L 138.4072 64.882017 
L 139.7303 65.371304 
L 141.0534 65.860592 
L 142.3765 66.34988 
L 143.6996 66.604254 
L 145.0227 66.858628 
L 146.3458 67.113003 
L 147.6689 67.367377 
L 148.992 67.621751 
L 150.3151 67.876126 
L 151.6382 68.1305 
L 152.9613 68.384874 
L 154.2844 68.639249 
L 155.6075 68.893623 
L 156.9306 69.030245 
L 158.2537 69.166867 
L 159.5768 69.303489 
L 160.8999 69.440111 
L 162.223 69.576733 
L 163.5461 69.713355 
L 164.8692 69.849977 
L 166.1923 69.986598 
L 167.5154 70.12322 
L 168.8385 70.259842 
L 170.1616 70.353053 
L 171.4847 70.446264 
L 172.8078 70.539475 
L 174.1309 70.632686 
L 175.454 70.725896 
L 176.7771 70.819107 
L 178.1002 70.912318 
L 179.4233 71.005529 
L 180.7464 71.09874 
L 182.0695 71.19195 
" clip-path="url(#p5623567895)" style="fill: none; stroke: #fdd4c2; stroke-width: 1.5; stroke-linecap: square"/>
   </g>
   <g id="line2d_20">
    <path d="M 49.7595 30.857 
L 51.0826 30.857 
L 52.4057 30.857 
L 53.7288 30.857 
L 55.0519 30.857 
L 56.375 30.857 
L 57.6981 34.384721 
L 59.0212 37.912443 
L 60.3443 41.440164 
L 61.6674 44.967886 
L 62.9905 48.495607 
L 64.3136 49.313948 
L 65.6367 50.13229 
L 66.9598 50.950631 
L 68.2829 51.768972 
L 69.606 52.587313 
L 70.9291 53.019062 
L 72.2522 53.450811 
L 73.5753 53.882559 
L 74.8984 54.314308 
L 76.2215 54.746057 
L 77.5446 55.491321 
L 78.8677 56.236585 
L 80.1908 56.981849 
L 81.5139 57.727114 
L 82.837 58.472378 
L 84.1601 59.154218 
L 85.4832 59.836058 
L 86.8063 60.517899 
L 88.1294 61.199739 
L 89.4525 61.881579 
L 90.7756 62.392436 
L 92.0987 62.903292 
L 93.4218 63.414149 
L 94.7449 63.925005 
L 96.068 64.435862 
L 97.3911 64.755765 
L 98.7142 65.075669 
L 100.0373 65.395572 
L 101.3604 65.715476 
L 102.6835 66.035379 
L 104.0066 66.347398 
L 105.3297 66.659416 
L 106.6528 66.971434 
L 107.9759 67.283453 
L 109.299 67.595471 
L 110.6221 68.034652 
L 111.9452 68.473832 
L 113.2683 68.913012 
L 114.5914 69.352193 
L 115.9145 69.791373 
L 117.2376 69.90082 
L 118.5607 70.010267 
L 119.8838 70.119713 
L 121.2069 70.22916 
L 122.53 70.338607 
L 123.8531 70.495201 
L 125.1762 70.651795 
L 126.4993 70.808389 
L 127.8224 70.964983 
L 129.1455 71.121577 
L 130.4686 71.213054 
L 131.7917 71.30453 
L 133.1148 71.396007 
L 134.4379 71.487484 
L 135.761 71.57896 
L 137.0841 71.643127 
L 138.4072 71.707294 
L 139.7303 71.771461 
L 141.0534 71.835628 
L 142.3765 71.899795 
L 143.6996 72.0568 
L 145.0227 72.213804 
L 146.3458 72.370808 
L 147.6689 72.527812 
L 148.992 72.684817 
L 150.3151 72.814217 
L 151.6382 72.943617 
L 152.9613 73.073017 
L 154.2844 73.202417 
L 155.6075 73.331817 
L 156.9306 73.496328 
L 158.2537 73.660839 
L 159.5768 73.825349 
L 160.8999 73.98986 
L 162.223 74.154371 
L 163.5461 74.371756 
L 164.8692 74.58914 
L 166.1923 74.806525 
L 167.5154 75.023909 
L 168.8385 75.241294 
L 170.1616 75.413054 
L 171.4847 75.584813 
L 172.8078 75.756573 
L 174.1309 75.928333 
L 175.454 76.100092 
L 176.7771 76.261746 
L 178.1002 76.423399 
L 179.4233 76.585053 
L 180.7464 76.746706 
L 182.0695 76.908359 
" clip-path="url(#p5623567895)" style="fill: none; stroke: #fca082; stroke-width: 1.5; stroke-linecap: square"/>
   </g>
   <g id="line2d_21">
    <path d="M 49.7595 30.857 
L 51.0826 30.857 
L 52.4057 30.857 
L 53.7288 30.857 
L 55.0519 30.857 
L 56.375 33.478794 
L 57.6981 36.100589 
L 59.0212 38.722383 
L 60.3443 41.344178 
L 61.6674 43.00702 
L 62.9905 44.669863 
L 64.3136 46.332706 
L 65.6367 47.995549 
L 66.9598 49.884453 
L 68.2829 51.773358 
L 69.606 53.662262 
L 70.9291 55.551167 
L 72.2522 56.332154 
L 73.5753 57.113141 
L 74.8984 57.894128 
L 76.2215 58.675115 
L 77.5446 59.195125 
L 78.8677 59.715135 
L 80.1908 60.235145 
L 81.5139 60.755155 
L 82.837 61.567646 
L 84.1601 62.380137 
L 85.4832 63.192628 
L 86.8063 64.005119 
L 88.1294 64.344146 
L 89.4525 64.683174 
L 90.7756 65.022201 
L 92.0987 65.361229 
L 93.4218 65.613467 
L 94.7449 65.865705 
L 96.068 66.117944 
L 97.3911 66.370182 
L 98.7142 66.895333 
L 100.0373 67.420483 
L 101.3604 67.945634 
L 102.6835 68.470785 
L 104.0066 68.949983 
L 105.3297 69.429181 
L 106.6528 69.90838 
L 107.9759 70.387578 
L 109.299 70.587893 
L 110.6221 70.788208 
L 111.9452 70.988523 
L 113.2683 71.188838 
L 114.5914 71.507645 
L 115.9145 71.826452 
L 117.2376 72.145259 
L 118.5607 72.464066 
L 119.8838 72.567678 
L 121.2069 72.67129 
L 122.53 72.774902 
L 123.8531 72.878514 
L 125.1762 73.061255 
L 126.4993 73.243996 
L 127.8224 73.426737 
L 129.1455 73.609479 
L 130.4686 73.6964 
L 131.7917 73.78332 
L 133.1148 73.870241 
L 134.4379 73.957162 
L 135.761 74.156287 
L 137.0841 74.355412 
L 138.4072 74.554537 
L 139.7303 74.753662 
L 141.0534 74.876234 
L 142.3765 74.998806 
L 143.6996 75.121378 
L 145.0227 75.24395 
L 146.3458 75.383092 
L 147.6689 75.522234 
L 148.992 75.661376 
L 150.3151 75.800518 
L 151.6382 75.880614 
L 152.9613 75.96071 
L 154.2844 76.040806 
L 155.6075 76.120902 
L 156.9306 76.209785 
L 158.2537 76.298667 
L 159.5768 76.387549 
L 160.8999 76.476431 
L 162.223 76.638842 
L 163.5461 76.801253 
L 164.8692 76.963664 
L 166.1923 77.126074 
L 167.5154 77.406789 
L 168.8385 77.687504 
L 170.1616 77.968218 
L 171.4847 78.248933 
L 172.8078 78.355606 
L 174.1309 78.462279 
L 175.454 78.568952 
L 176.7771 78.675625 
L 178.1002 78.842406 
L 179.4233 79.009186 
L 180.7464 79.175967 
L 182.0695 79.342747 
" clip-path="url(#p5623567895)" style="fill: none; stroke: #fb694a; stroke-width: 1.5; stroke-linecap: square"/>
   </g>
   <g id="line2d_22">
    <path d="M 49.7595 30.857 
L 51.0826 30.857 
L 52.4057 30.857 
L 53.7288 35.13188 
L 55.0519 39.406761 
L 56.375 42.248732 
L 57.6981 45.090704 
L 59.0212 47.927761 
L 60.3443 50.764818 
L 61.6674 50.823318 
L 62.9905 50.881818 
L 64.3136 51.997697 
L 65.6367 53.113576 
L 66.9598 54.228663 
L 68.2829 55.34375 
L 69.606 55.99477 
L 70.9291 56.64579 
L 72.2522 58.904587 
L 73.5753 61.163385 
L 74.8984 61.451635 
L 76.2215 61.739885 
L 77.5446 61.827311 
L 78.8677 61.914737 
L 80.1908 63.872543 
L 81.5139 65.830349 
L 82.837 66.426161 
L 84.1601 67.021973 
L 85.4832 67.868599 
L 86.8063 68.715224 
L 88.1294 68.808493 
L 89.4525 68.901762 
L 90.7756 69.370906 
L 92.0987 69.84005 
L 93.4218 70.172319 
L 94.7449 70.504588 
L 96.068 71.019649 
L 97.3911 71.534709 
L 98.7142 71.962421 
L 100.0373 72.390133 
L 101.3604 72.527769 
L 102.6835 72.665404 
L 104.0066 73.00564 
L 105.3297 73.345876 
L 106.6528 73.486315 
L 107.9759 73.626754 
L 109.299 73.707498 
L 110.6221 73.788242 
L 111.9452 73.819094 
L 113.2683 73.849946 
L 114.5914 74.077961 
L 115.9145 74.305977 
L 117.2376 74.596609 
L 118.5607 74.88724 
L 119.8838 74.916265 
L 121.2069 74.94529 
L 122.53 75.047876 
L 123.8531 75.150462 
L 125.1762 75.174563 
L 126.4993 75.198664 
L 127.8224 75.313623 
L 129.1455 75.428581 
L 130.4686 75.472202 
L 131.7917 75.515822 
L 133.1148 75.665374 
L 134.4379 75.814927 
L 135.761 75.916432 
L 137.0841 76.017937 
L 138.4072 76.119618 
L 139.7303 76.221299 
L 141.0534 76.494808 
L 142.3765 76.768318 
L 143.6996 76.992539 
L 145.0227 77.216761 
L 146.3458 77.282027 
L 147.6689 77.347293 
L 148.992 77.44831 
L 150.3151 77.549326 
L 151.6382 77.765186 
L 152.9613 77.981046 
L 154.2844 78.005491 
L 155.6075 78.029937 
L 156.9306 78.163526 
L 158.2537 78.297114 
L 159.5768 78.404197 
L 160.8999 78.511279 
L 162.223 78.724053 
L 163.5461 78.936826 
L 164.8692 78.956342 
L 166.1923 78.975858 
L 167.5154 79.046787 
L 168.8385 79.117716 
L 170.1616 79.190113 
L 171.4847 79.262509 
L 172.8078 79.33626 
L 174.1309 79.410011 
L 175.454 79.485045 
L 176.7771 79.56008 
L 178.1002 79.698327 
L 179.4233 79.836573 
L 180.7464 79.873366 
L 182.0695 79.910158 
" clip-path="url(#p5623567895)" style="fill: none; stroke: #e32f27; stroke-width: 1.5; stroke-linecap: square"/>
   </g>
   <g id="line2d_23">
    <path d="M 49.7595 30.857 
L 51.0826 30.857 
L 52.4057 40.26881 
L 53.7288 43.3866 
L 55.0519 44.450369 
L 56.375 44.929874 
L 57.6981 44.868075 
L 59.0212 43.831779 
L 60.3443 45.427273 
L 61.6674 48.514978 
L 62.9905 50.185628 
L 64.3136 50.126113 
L 65.6367 51.226536 
L 66.9598 51.340913 
L 68.2829 52.174432 
L 69.606 55.191977 
L 70.9291 57.276253 
L 72.2522 58.491033 
L 73.5753 60.696821 
L 74.8984 61.696478 
L 76.2215 62.851561 
L 77.5446 63.922099 
L 78.8677 65.046875 
L 80.1908 65.859325 
L 81.5139 66.087858 
L 82.837 66.517536 
L 84.1601 66.752657 
L 85.4832 67.978192 
L 86.8063 69.98327 
L 88.1294 71.137126 
L 89.4525 71.395577 
L 90.7756 71.356647 
L 92.0987 71.44461 
L 93.4218 72.076152 
L 94.7449 72.454509 
L 96.068 72.595206 
L 97.3911 73.163168 
L 98.7142 73.393883 
L 100.0373 73.258303 
L 101.3604 73.364295 
L 102.6835 73.549889 
L 104.0066 73.65225 
L 105.3297 73.674813 
L 106.6528 73.628266 
L 107.9759 73.917786 
L 109.299 74.541178 
L 110.6221 74.652145 
L 111.9452 74.558821 
L 113.2683 74.726064 
L 114.5914 74.916999 
L 115.9145 74.967749 
L 117.2376 75.300629 
L 118.5607 75.331698 
L 119.8838 75.784948 
L 121.2069 76.095538 
L 122.53 76.280057 
L 123.8531 76.413307 
L 125.1762 76.560643 
L 126.4993 76.624336 
L 127.8224 76.680688 
L 129.1455 76.860539 
L 130.4686 77.024831 
L 131.7917 77.19307 
L 133.1148 77.305101 
L 134.4379 77.291136 
L 135.761 77.388669 
L 137.0841 77.532323 
L 138.4072 77.591953 
L 139.7303 77.445391 
L 141.0534 77.225295 
L 142.3765 77.114332 
L 143.6996 77.313913 
L 145.0227 77.437107 
L 146.3458 77.501389 
L 147.6689 77.596088 
L 148.992 77.419618 
L 150.3151 77.468713 
L 151.6382 77.573387 
L 152.9613 77.706957 
L 154.2844 78.072067 
L 155.6075 78.207777 
L 156.9306 78.218377 
L 158.2537 78.286121 
L 159.5768 78.474557 
L 160.8999 78.604203 
L 162.223 78.790822 
L 163.5461 78.854836 
L 164.8692 78.723503 
L 166.1923 79.052916 
L 167.5154 79.130459 
L 168.8385 79.645748 
L 170.1616 79.829908 
L 171.4847 80.067444 
L 172.8078 80.196988 
L 174.1309 80.467605 
L 175.454 80.543984 
L 176.7771 80.572239 
L 178.1002 80.611547 
L 179.4233 80.667962 
L 180.7464 80.708478 
L 182.0695 80.76001 
" clip-path="url(#p5623567895)" style="fill: none; stroke: #b11218; stroke-width: 1.5; stroke-linecap: square"/>
   </g>
   <g id="patch_3">
    <path d="M 43.144 92.296 
L 43.144 22.08 
" style="fill: none; stroke: #000000; stroke-width: 0.8; stroke-linejoin: miter; stroke-linecap: square"/>
   </g>
   <g id="patch_4">
    <path d="M 188.685 92.296 
L 188.685 22.08 
" style="fill: none; stroke: #000000; stroke-width: 0.8; stroke-linejoin: miter; stroke-linecap: square"/>
   </g>
   <g id="patch_5">
    <path d="M 43.144 92.296 
L 188.685 92.296 
" style="fill: none; stroke: #000000; stroke-width: 0.8; stroke-linejoin: miter; stroke-linecap: square"/>
   </g>
   <g id="patch_6">
    <path d="M 43.144 22.08 
L 188.685 22.08 
" style="fill: none; stroke: #000000; stroke-width: 0.8; stroke-linejoin: miter; stroke-linecap: square"/>
   </g>
   <g id="text_11">
    <!-- Normalized RMSE ($\downarrow$) -->
    <g transform="translate(60.1145 16.08) scale(0.1 -0.1)">
     <defs>
      <path id="DejaVuSans-4e" d="M 628 4666 
L 1478 4666 
L 3547 763 
L 3547 4666 
L 4159 4666 
L 4159 0 
L 3309 0 
L 1241 3903 
L 1241 0 
L 628 0 
L 628 4666 
z
" transform="scale(0.015625)"/>
      <path id="DejaVuSans-6f" d="M 1959 3097 
Q 1497 3097 1228 2736 
Q 959 2375 959 1747 
Q 959 1119 1226 758 
Q 1494 397 1959 397 
Q 2419 397 2687 759 
Q 2956 1122 2956 1747 
Q 2956 2369 2687 2733 
Q 2419 3097 1959 3097 
z
M 1959 3584 
Q 2709 3584 3137 3096 
Q 3566 2609 3566 1747 
Q 3566 888 3137 398 
Q 2709 -91 1959 -91 
Q 1206 -91 779 398 
Q 353 888 353 1747 
Q 353 2609 779 3096 
Q 1206 3584 1959 3584 
z
" transform="scale(0.015625)"/>
      <path id="DejaVuSans-72" d="M 2631 2963 
Q 2534 3019 2420 3045 
Q 2306 3072 2169 3072 
Q 1681 3072 1420 2755 
Q 1159 2438 1159 1844 
L 1159 0 
L 581 0 
L 581 3500 
L 1159 3500 
L 1159 2956 
Q 1341 3275 1631 3429 
Q 1922 3584 2338 3584 
Q 2397 3584 2469 3576 
Q 2541 3569 2628 3553 
L 2631 2963 
z
" transform="scale(0.015625)"/>
      <path id="DejaVuSans-6d" d="M 3328 2828 
Q 3544 3216 3844 3400 
Q 4144 3584 4550 3584 
Q 5097 3584 5394 3201 
Q 5691 2819 5691 2113 
L 5691 0 
L 5113 0 
L 5113 2094 
Q 5113 2597 4934 2840 
Q 4756 3084 4391 3084 
Q 3944 3084 3684 2787 
Q 3425 2491 3425 1978 
L 3425 0 
L 2847 0 
L 2847 2094 
Q 2847 2600 2669 2842 
Q 2491 3084 2119 3084 
Q 1678 3084 1418 2786 
Q 1159 2488 1159 1978 
L 1159 0 
L 581 0 
L 581 3500 
L 1159 3500 
L 1159 2956 
Q 1356 3278 1631 3431 
Q 1906 3584 2284 3584 
Q 2666 3584 2933 3390 
Q 3200 3197 3328 2828 
z
" transform="scale(0.015625)"/>
      <path id="DejaVuSans-61" d="M 2194 1759 
Q 1497 1759 1228 1600 
Q 959 1441 959 1056 
Q 959 750 1161 570 
Q 1363 391 1709 391 
Q 2188 391 2477 730 
Q 2766 1069 2766 1631 
L 2766 1759 
L 2194 1759 
z
M 3341 1997 
L 3341 0 
L 2766 0 
L 2766 531 
Q 2569 213 2275 61 
Q 1981 -91 1556 -91 
Q 1019 -91 701 211 
Q 384 513 384 1019 
Q 384 1609 779 1909 
Q 1175 2209 1959 2209 
L 2766 2209 
L 2766 2266 
Q 2766 2663 2505 2880 
Q 2244 3097 1772 3097 
Q 1472 3097 1187 3025 
Q 903 2953 641 2809 
L 641 3341 
Q 956 3463 1253 3523 
Q 1550 3584 1831 3584 
Q 2591 3584 2966 3190 
Q 3341 2797 3341 1997 
z
" transform="scale(0.015625)"/>
      <path id="DejaVuSans-6c" d="M 603 4863 
L 1178 4863 
L 1178 0 
L 603 0 
L 603 4863 
z
" transform="scale(0.015625)"/>
      <path id="DejaVuSans-69" d="M 603 3500 
L 1178 3500 
L 1178 0 
L 603 0 
L 603 3500 
z
M 603 4863 
L 1178 4863 
L 1178 4134 
L 603 4134 
L 603 4863 
z
" transform="scale(0.015625)"/>
      <path id="DejaVuSans-7a" d="M 353 3500 
L 3084 3500 
L 3084 2975 
L 922 459 
L 3084 459 
L 3084 0 
L 275 0 
L 275 525 
L 2438 3041 
L 353 3041 
L 353 3500 
z
" transform="scale(0.015625)"/>
      <path id="DejaVuSans-65" d="M 3597 1894 
L 3597 1613 
L 953 1613 
Q 991 1019 1311 708 
Q 1631 397 2203 397 
Q 2534 397 2845 478 
Q 3156 559 3463 722 
L 3463 178 
Q 3153 47 2828 -22 
Q 2503 -91 2169 -91 
Q 1331 -91 842 396 
Q 353 884 353 1716 
Q 353 2575 817 3079 
Q 1281 3584 2069 3584 
Q 2775 3584 3186 3129 
Q 3597 2675 3597 1894 
z
M 3022 2063 
Q 3016 2534 2758 2815 
Q 2500 3097 2075 3097 
Q 1594 3097 1305 2825 
Q 1016 2553 972 2059 
L 3022 2063 
z
" transform="scale(0.015625)"/>
      <path id="DejaVuSans-64" d="M 2906 2969 
L 2906 4863 
L 3481 4863 
L 3481 0 
L 2906 0 
L 2906 525 
Q 2725 213 2448 61 
Q 2172 -91 1784 -91 
Q 1150 -91 751 415 
Q 353 922 353 1747 
Q 353 2572 751 3078 
Q 1150 3584 1784 3584 
Q 2172 3584 2448 3432 
Q 2725 3281 2906 2969 
z
M 947 1747 
Q 947 1113 1208 752 
Q 1469 391 1925 391 
Q 2381 391 2643 752 
Q 2906 1113 2906 1747 
Q 2906 2381 2643 2742 
Q 2381 3103 1925 3103 
Q 1469 3103 1208 2742 
Q 947 2381 947 1747 
z
" transform="scale(0.015625)"/>
      <path id="DejaVuSans-20" transform="scale(0.015625)"/>
      <path id="DejaVuSans-52" d="M 2841 2188 
Q 3044 2119 3236 1894 
Q 3428 1669 3622 1275 
L 4263 0 
L 3584 0 
L 2988 1197 
Q 2756 1666 2539 1819 
Q 2322 1972 1947 1972 
L 1259 1972 
L 1259 0 
L 628 0 
L 628 4666 
L 2053 4666 
Q 2853 4666 3247 4331 
Q 3641 3997 3641 3322 
Q 3641 2881 3436 2590 
Q 3231 2300 2841 2188 
z
M 1259 4147 
L 1259 2491 
L 2053 2491 
Q 2509 2491 2742 2702 
Q 2975 2913 2975 3322 
Q 2975 3731 2742 3939 
Q 2509 4147 2053 4147 
L 1259 4147 
z
" transform="scale(0.015625)"/>
      <path id="DejaVuSans-4d" d="M 628 4666 
L 1569 4666 
L 2759 1491 
L 3956 4666 
L 4897 4666 
L 4897 0 
L 4281 0 
L 4281 4097 
L 3078 897 
L 2444 897 
L 1241 4097 
L 1241 0 
L 628 0 
L 628 4666 
z
" transform="scale(0.015625)"/>
      <path id="DejaVuSans-53" d="M 3425 4513 
L 3425 3897 
Q 3066 4069 2747 4153 
Q 2428 4238 2131 4238 
Q 1616 4238 1336 4038 
Q 1056 3838 1056 3469 
Q 1056 3159 1242 3001 
Q 1428 2844 1947 2747 
L 2328 2669 
Q 3034 2534 3370 2195 
Q 3706 1856 3706 1288 
Q 3706 609 3251 259 
Q 2797 -91 1919 -91 
Q 1588 -91 1214 -16 
Q 841 59 441 206 
L 441 856 
Q 825 641 1194 531 
Q 1563 422 1919 422 
Q 2459 422 2753 634 
Q 3047 847 3047 1241 
Q 3047 1584 2836 1778 
Q 2625 1972 2144 2069 
L 1759 2144 
Q 1053 2284 737 2584 
Q 422 2884 422 3419 
Q 422 4038 858 4394 
Q 1294 4750 2059 4750 
Q 2388 4750 2728 4690 
Q 3069 4631 3425 4513 
z
" transform="scale(0.015625)"/>
      <path id="DejaVuSans-45" d="M 628 4666 
L 3578 4666 
L 3578 4134 
L 1259 4134 
L 1259 2753 
L 3481 2753 
L 3481 2222 
L 1259 2222 
L 1259 531 
L 3634 531 
L 3634 0 
L 628 0 
L 628 4666 
z
" transform="scale(0.015625)"/>
      <path id="DejaVuSans-28" d="M 1984 4856 
Q 1566 4138 1362 3434 
Q 1159 2731 1159 2009 
Q 1159 1288 1364 580 
Q 1569 -128 1984 -844 
L 1484 -844 
Q 1016 -109 783 600 
Q 550 1309 550 2009 
Q 550 2706 781 3412 
Q 1013 4119 1484 4856 
L 1984 4856 
z
" transform="scale(0.015625)"/>
      <path id="DejaVuSans-2193" d="M 2822 -22 
L 2541 -22 
L 1309 1209 
L 1684 1584 
L 2416 853 
L 2416 4666 
L 2947 4666 
L 2947 853 
L 3672 1584 
L 4047 1209 
L 2822 -22 
z
" transform="scale(0.015625)"/>
      <path id="DejaVuSans-29" d="M 513 4856 
L 1013 4856 
Q 1481 4119 1714 3412 
Q 1947 2706 1947 2009 
Q 1947 1309 1714 600 
Q 1481 -109 1013 -844 
L 513 -844 
Q 928 -128 1133 580 
Q 1338 1288 1338 2009 
Q 1338 2731 1133 3434 
Q 928 4138 513 4856 
z
" transform="scale(0.015625)"/>
     </defs>
     <use xlink:href="#DejaVuSans-4e" transform="translate(0 0.015625)"/>
     <use xlink:href="#DejaVuSans-6f" transform="translate(74.804688 0.015625)"/>
     <use xlink:href="#DejaVuSans-72" transform="translate(135.986328 0.015625)"/>
     <use xlink:href="#DejaVuSans-6d" transform="translate(177.099609 0.015625)"/>
     <use xlink:href="#DejaVuSans-61" transform="translate(274.511719 0.015625)"/>
     <use xlink:href="#DejaVuSans-6c" transform="translate(335.791016 0.015625)"/>
     <use xlink:href="#DejaVuSans-69" transform="translate(363.574219 0.015625)"/>
     <use xlink:href="#DejaVuSans-7a" transform="translate(391.357422 0.015625)"/>
     <use xlink:href="#DejaVuSans-65" transform="translate(443.847656 0.015625)"/>
     <use xlink:href="#DejaVuSans-64" transform="translate(505.371094 0.015625)"/>
     <use xlink:href="#DejaVuSans-20" transform="translate(568.847656 0.015625)"/>
     <use xlink:href="#DejaVuSans-52" transform="translate(600.634766 0.015625)"/>
     <use xlink:href="#DejaVuSans-4d" transform="translate(670.117188 0.015625)"/>
     <use xlink:href="#DejaVuSans-53" transform="translate(756.396484 0.015625)"/>
     <use xlink:href="#DejaVuSans-45" transform="translate(819.873047 0.015625)"/>
     <use xlink:href="#DejaVuSans-20" transform="translate(883.056641 0.015625)"/>
     <use xlink:href="#DejaVuSans-28" transform="translate(914.84375 0.015625)"/>
     <use xlink:href="#DejaVuSans-2193" transform="translate(973.339844 0.015625)"/>
     <use xlink:href="#DejaVuSans-29" transform="translate(1076.611328 0.015625)"/>
    </g>
   </g>
  </g>
 </g>
 <defs>
  <clipPath id="p5623567895">
   <rect x="43.144" y="22.08" width="145.541" height="70.216"/>
  </clipPath>
 </defs>
</svg>
