<?xml version="1.0" encoding="utf-8" standalone="no"?>
<!DOCTYPE svg PUBLIC "-//W3C//DTD SVG 1.1//EN"
  "http://www.w3.org/Graphics/SVG/1.1/DTD/svg11.dtd">
<svg xmlns:xlink="http://www.w3.org/1999/xlink" width="108pt" height="259.2pt" viewBox="0 0 108 259.2" xmlns="http://www.w3.org/2000/svg" version="1.1">
 <metadata>
  <rdf:RDF xmlns:dc="http://purl.org/dc/elements/1.1/" xmlns:cc="http://creativecommons.org/ns#" xmlns:rdf="http://www.w3.org/1999/02/22-rdf-syntax-ns#">
   <cc:Work>
    <dc:type rdf:resource="http://purl.org/dc/dcmitype/StillImage"/>
    <dc:date>2026-03-30T10:39:44.091332</dc:date>
    <dc:format>image/svg+xml</dc:format>
    <dc:creator>
     <cc:Agent>
      <dc:title>Matplotlib v3.8.0, https://matplotlib.org/</dc:title>
     </cc:Agent>
    </dc:creator>
   </cc:Work>
  </rdf:RDF>
 </metadata>
 <defs>
  <style type="text/css">*{stroke-linejoin: round; stroke-linecap: butt}</style>
 </defs>
 <g id="figure_1">
  <g id="patch_1">
   <path d="M 0 259.2 
L 108 259.2 
L 108 0 
L 0 0 
L 0 259.2 
z
" style="fill: none"/>
  </g>
  <g id="axes_1">
   <g id="line2d_1"/>
   <g id="line2d_2"/>
   <g id="line2d_3"/>
   <g id="line2d_4"/>
   <g id="line2d_5"/>
   <g id="line2d_6"/>
   <g id="line2d_7"/>
   <g id="line2d_8"/>
   <g id="line2d_9"/>
   <g id="line2d_10"/>
   <g id="line2d_11"/>
   <g id="line2d_12"/>
   <g id="line2d_13"/>
   <g id="line2d_14"/>
   <g id="line2d_15"/>
   <g id="legend_1">
    <g id="patch_2">
     <path d="M 17.702187 252.611875 
L 92.36 252.611875 
Q 94.36 252.611875 94.36 250.611875 
L 94.36 15.64 
Q 94.36 13.64 92.36 13.64 
L 17.702187 13.64 
Q 15.702187 13.64 15.702187 15.64 
L 15.702187 250.611875 
Q 15.702187 252.611875 17.702187 252.611875 
z
" style="fill: #ffffff; opacity: 0.8; stroke: #cccccc; stroke-linejoin: miter"/>
    </g>
    <g id="text_1">
     <!-- $N_k (\mathcal{A}_{\xi})$ -->
     <g transform="translate(38.781094 25.24) scale(0.1 -0.1)">
      <defs>
       <path id="DejaVuSans-Oblique-4e" d="M 1081 4666 
L 1931 4666 
L 3219 666 
L 4000 4666 
L 4616 4666 
L 3706 0 
L 2853 0 
L 1569 4025 
L 788 0 
L 172 0 
L 1081 4666 
z
" transform="scale(0.015625)"/>
       <path id="DejaVuSans-Oblique-6b" d="M 1172 4863 
L 1747 4863 
L 1197 2028 
L 3169 3500 
L 3916 3500 
L 1716 1825 
L 3322 0 
L 2625 0 
L 1131 1709 
L 800 0 
L 225 0 
L 1172 4863 
z
" transform="scale(0.015625)"/>
       <path id="DejaVuSans-28" d="M 1984 4856 
Q 1566 4138 1362 3434 
Q 1159 2731 1159 2009 
Q 1159 1288 1364 580 
Q 1569 -128 1984 -844 
L 1484 -844 
Q 1016 -109 783 600 
Q 550 1309 550 2009 
Q 550 2706 781 3412 
Q 1013 4119 1484 4856 
L 1984 4856 
z
" transform="scale(0.015625)"/>
       <path id="STIXNonUnicode-Italic-e22d" d="M 5075 416 
L 5197 320 
Q 4928 -198 4365 -198 
Q 4013 -198 3865 74 
Q 3718 346 3706 1024 
L 2182 1024 
Q 2112 922 1961 717 
Q 1811 512 1750 425 
Q 1690 339 1571 192 
Q 1453 45 1382 -16 
Q 1312 -77 1209 -153 
Q 1107 -230 1014 -259 
Q 922 -288 819 -288 
Q 595 -288 435 -131 
Q 275 26 275 243 
Q 275 416 364 521 
Q 454 627 614 627 
Q 717 627 784 572 
Q 851 518 873 457 
Q 896 397 941 342 
Q 986 288 1056 288 
Q 1376 288 1965 1178 
L 4026 4333 
L 4205 4333 
L 4378 883 
Q 4416 198 4691 198 
Q 4941 198 5075 416 
z
M 3699 1280 
L 3616 3232 
L 2330 1280 
Q 2291 1229 2291 1197 
Q 2291 1190 2294 1190 
Q 2298 1190 2298 1184 
Q 2336 1184 2502 1280 
L 3699 1280 
z
" transform="scale(0.015625)"/>
       <path id="DejaVuSans-Oblique-3be" d="M 2016 397 
Q 2428 394 2628 159 
Q 2844 -88 2772 -463 
Q 2700 -822 2422 -1072 
Q 2119 -1344 1609 -1344 
Q 1656 -1109 1700 -872 
Q 1913 -888 2072 -750 
Q 2194 -641 2216 -525 
Q 2247 -359 2175 -222 
Q 2100 -91 1922 -91 
Q -25 -91 241 1275 
Q 422 2213 1516 2488 
Q 663 2600 822 3413 
Q 941 4028 1678 4284 
L 1028 4284 
L 1141 4863 
L 3606 4863 
L 3494 4284 
Q 1528 4284 1350 3375 
Q 1234 2778 2881 2750 
L 2778 2219 
Q 1009 2288 819 1275 
Q 659 428 2016 397 
z
" transform="scale(0.015625)"/>
       <path id="DejaVuSans-29" d="M 513 4856 
L 1013 4856 
Q 1481 4119 1714 3412 
Q 1947 2706 1947 2009 
Q 1947 1309 1714 600 
Q 1481 -109 1013 -844 
L 513 -844 
Q 928 -128 1133 580 
Q 1338 1288 1338 2009 
Q 1338 2731 1133 3434 
Q 928 4138 513 4856 
z
" transform="scale(0.015625)"/>
      </defs>
      <use xlink:href="#DejaVuSans-Oblique-4e" transform="translate(0 0.125)"/>
      <use xlink:href="#DejaVuSans-Oblique-6b" transform="translate(74.804688 -16.28125) scale(0.7)"/>
      <use xlink:href="#DejaVuSans-28" transform="translate(118.076172 0.125)"/>
      <use xlink:href="#STIXNonUnicode-Italic-e22d" transform="translate(157.089844 0.125)"/>
      <use xlink:href="#DejaVuSans-Oblique-3be" transform="translate(243.246857 -16.28125) scale(0.7)"/>
      <use xlink:href="#DejaVuSans-29" transform="translate(285.014435 0.125)"/>
     </g>
    </g>
    <g id="line2d_16">
     <path d="M 19.702187 37.538437 
L 29.702187 37.538437 
L 39.702187 37.538437 
" style="fill: none; stroke: #e9e9e9; stroke-width: 1.5; stroke-linecap: square"/>
    </g>
    <g id="text_2">
     <!-- 10(RND) -->
     <g transform="translate(47.702187 41.038437) scale(0.1 -0.1)">
      <defs>
       <path id="DejaVuSans-31" d="M 794 531 
L 1825 531 
L 1825 4091 
L 703 3866 
L 703 4441 
L 1819 4666 
L 2450 4666 
L 2450 531 
L 3481 531 
L 3481 0 
L 794 0 
L 794 531 
z
" transform="scale(0.015625)"/>
       <path id="DejaVuSans-30" d="M 2034 4250 
Q 1547 4250 1301 3770 
Q 1056 3291 1056 2328 
Q 1056 1369 1301 889 
Q 1547 409 2034 409 
Q 2525 409 2770 889 
Q 3016 1369 3016 2328 
Q 3016 3291 2770 3770 
Q 2525 4250 2034 4250 
z
M 2034 4750 
Q 2819 4750 3233 4129 
Q 3647 3509 3647 2328 
Q 3647 1150 3233 529 
Q 2819 -91 2034 -91 
Q 1250 -91 836 529 
Q 422 1150 422 2328 
Q 422 3509 836 4129 
Q 1250 4750 2034 4750 
z
" transform="scale(0.015625)"/>
       <path id="DejaVuSans-52" d="M 2841 2188 
Q 3044 2119 3236 1894 
Q 3428 1669 3622 1275 
L 4263 0 
L 3584 0 
L 2988 1197 
Q 2756 1666 2539 1819 
Q 2322 1972 1947 1972 
L 1259 1972 
L 1259 0 
L 628 0 
L 628 4666 
L 2053 4666 
Q 2853 4666 3247 4331 
Q 3641 3997 3641 3322 
Q 3641 2881 3436 2590 
Q 3231 2300 2841 2188 
z
M 1259 4147 
L 1259 2491 
L 2053 2491 
Q 2509 2491 2742 2702 
Q 2975 2913 2975 3322 
Q 2975 3731 2742 3939 
Q 2509 4147 2053 4147 
L 1259 4147 
z
" transform="scale(0.015625)"/>
       <path id="DejaVuSans-4e" d="M 628 4666 
L 1478 4666 
L 3547 763 
L 3547 4666 
L 4159 4666 
L 4159 0 
L 3309 0 
L 1241 3903 
L 1241 0 
L 628 0 
L 628 4666 
z
" transform="scale(0.015625)"/>
       <path id="DejaVuSans-44" d="M 1259 4147 
L 1259 519 
L 2022 519 
Q 2988 519 3436 956 
Q 3884 1394 3884 2338 
Q 3884 3275 3436 3711 
Q 2988 4147 2022 4147 
L 1259 4147 
z
M 628 4666 
L 1925 4666 
Q 3281 4666 3915 4102 
Q 4550 3538 4550 2338 
Q 4550 1131 3912 565 
Q 3275 0 1925 0 
L 628 0 
L 628 4666 
z
" transform="scale(0.015625)"/>
      </defs>
      <use xlink:href="#DejaVuSans-31"/>
      <use xlink:href="#DejaVuSans-30" x="63.623047"/>
      <use xlink:href="#DejaVuSans-28" x="127.246094"/>
      <use xlink:href="#DejaVuSans-52" x="166.259766"/>
      <use xlink:href="#DejaVuSans-4e" x="235.742188"/>
      <use xlink:href="#DejaVuSans-44" x="310.546875"/>
      <use xlink:href="#DejaVuSans-29" x="387.548828"/>
     </g>
    </g>
    <g id="line2d_17">
     <path d="M 19.702187 52.216563 
L 29.702187 52.216563 
L 39.702187 52.216563 
" style="fill: none; stroke: #c6c6c6; stroke-width: 1.5; stroke-linecap: square"/>
    </g>
    <g id="text_3">
     <!-- 5(RND) -->
     <g transform="translate(47.702187 55.716563) scale(0.1 -0.1)">
      <defs>
       <path id="DejaVuSans-35" d="M 691 4666 
L 3169 4666 
L 3169 4134 
L 1269 4134 
L 1269 2991 
Q 1406 3038 1543 3061 
Q 1681 3084 1819 3084 
Q 2600 3084 3056 2656 
Q 3513 2228 3513 1497 
Q 3513 744 3044 326 
Q 2575 -91 1722 -91 
Q 1428 -91 1123 -41 
Q 819 9 494 109 
L 494 744 
Q 775 591 1075 516 
Q 1375 441 1709 441 
Q 2250 441 2565 725 
Q 2881 1009 2881 1497 
Q 2881 1984 2565 2268 
Q 2250 2553 1709 2553 
Q 1456 2553 1204 2497 
Q 953 2441 691 2322 
L 691 4666 
z
" transform="scale(0.015625)"/>
      </defs>
      <use xlink:href="#DejaVuSans-35"/>
      <use xlink:href="#DejaVuSans-28" x="63.623047"/>
      <use xlink:href="#DejaVuSans-52" x="102.636719"/>
      <use xlink:href="#DejaVuSans-4e" x="172.119141"/>
      <use xlink:href="#DejaVuSans-44" x="246.923828"/>
      <use xlink:href="#DejaVuSans-29" x="323.925781"/>
     </g>
    </g>
    <g id="line2d_18">
     <path d="M 19.702187 66.894688 
L 29.702187 66.894688 
L 39.702187 66.894688 
" style="fill: none; stroke: #959595; stroke-width: 1.5; stroke-linecap: square"/>
    </g>
    <g id="text_4">
     <!-- 4(RND) -->
     <g transform="translate(47.702187 70.394688) scale(0.1 -0.1)">
      <defs>
       <path id="DejaVuSans-34" d="M 2419 4116 
L 825 1625 
L 2419 1625 
L 2419 4116 
z
M 2253 4666 
L 3047 4666 
L 3047 1625 
L 3713 1625 
L 3713 1100 
L 3047 1100 
L 3047 0 
L 2419 0 
L 2419 1100 
L 313 1100 
L 313 1709 
L 2253 4666 
z
" transform="scale(0.015625)"/>
      </defs>
      <use xlink:href="#DejaVuSans-34"/>
      <use xlink:href="#DejaVuSans-28" x="63.623047"/>
      <use xlink:href="#DejaVuSans-52" x="102.636719"/>
      <use xlink:href="#DejaVuSans-4e" x="172.119141"/>
      <use xlink:href="#DejaVuSans-44" x="246.923828"/>
      <use xlink:href="#DejaVuSans-29" x="323.925781"/>
     </g>
    </g>
    <g id="line2d_19">
     <path d="M 19.702187 81.572812 
L 29.702187 81.572812 
L 39.702187 81.572812 
" style="fill: none; stroke: #686868; stroke-width: 1.5; stroke-linecap: square"/>
    </g>
    <g id="text_5">
     <!-- 2(RND) -->
     <g transform="translate(47.702187 85.072812) scale(0.1 -0.1)">
      <defs>
       <path id="DejaVuSans-32" d="M 1228 531 
L 3431 531 
L 3431 0 
L 469 0 
L 469 531 
Q 828 903 1448 1529 
Q 2069 2156 2228 2338 
Q 2531 2678 2651 2914 
Q 2772 3150 2772 3378 
Q 2772 3750 2511 3984 
Q 2250 4219 1831 4219 
Q 1534 4219 1204 4116 
Q 875 4013 500 3803 
L 500 4441 
Q 881 4594 1212 4672 
Q 1544 4750 1819 4750 
Q 2544 4750 2975 4387 
Q 3406 4025 3406 3419 
Q 3406 3131 3298 2873 
Q 3191 2616 2906 2266 
Q 2828 2175 2409 1742 
Q 1991 1309 1228 531 
z
" transform="scale(0.015625)"/>
      </defs>
      <use xlink:href="#DejaVuSans-32"/>
      <use xlink:href="#DejaVuSans-28" x="63.623047"/>
      <use xlink:href="#DejaVuSans-52" x="102.636719"/>
      <use xlink:href="#DejaVuSans-4e" x="172.119141"/>
      <use xlink:href="#DejaVuSans-44" x="246.923828"/>
      <use xlink:href="#DejaVuSans-29" x="323.925781"/>
     </g>
    </g>
    <g id="line2d_20">
     <path d="M 19.702187 96.250938 
L 29.702187 96.250938 
L 39.702187 96.250938 
" style="fill: none; stroke: #333333; stroke-width: 1.5; stroke-linecap: square"/>
    </g>
    <g id="text_6">
     <!-- 1(RND) -->
     <g transform="translate(47.702187 99.750938) scale(0.1 -0.1)">
      <use xlink:href="#DejaVuSans-31"/>
      <use xlink:href="#DejaVuSans-28" x="63.623047"/>
      <use xlink:href="#DejaVuSans-52" x="102.636719"/>
      <use xlink:href="#DejaVuSans-4e" x="172.119141"/>
      <use xlink:href="#DejaVuSans-44" x="246.923828"/>
      <use xlink:href="#DejaVuSans-29" x="323.925781"/>
     </g>
    </g>
    <g id="line2d_21">
     <path d="M 19.702187 110.929062 
L 29.702187 110.929062 
L 39.702187 110.929062 
" style="fill: none; stroke: #fdd4c2; stroke-width: 1.5; stroke-linecap: square"/>
    </g>
    <g id="text_7">
     <!-- 10(MI) -->
     <g transform="translate(47.702187 114.429062) scale(0.1 -0.1)">
      <defs>
       <path id="DejaVuSans-4d" d="M 628 4666 
L 1569 4666 
L 2759 1491 
L 3956 4666 
L 4897 4666 
L 4897 0 
L 4281 0 
L 4281 4097 
L 3078 897 
L 2444 897 
L 1241 4097 
L 1241 0 
L 628 0 
L 628 4666 
z
" transform="scale(0.015625)"/>
       <path id="DejaVuSans-49" d="M 628 4666 
L 1259 4666 
L 1259 0 
L 628 0 
L 628 4666 
z
" transform="scale(0.015625)"/>
      </defs>
      <use xlink:href="#DejaVuSans-31"/>
      <use xlink:href="#DejaVuSans-30" x="63.623047"/>
      <use xlink:href="#DejaVuSans-28" x="127.246094"/>
      <use xlink:href="#DejaVuSans-4d" x="166.259766"/>
      <use xlink:href="#DejaVuSans-49" x="252.539062"/>
      <use xlink:href="#DejaVuSans-29" x="282.03125"/>
     </g>
    </g>
    <g id="line2d_22">
     <path d="M 19.702187 125.607188 
L 29.702187 125.607188 
L 39.702187 125.607188 
" style="fill: none; stroke: #fca082; stroke-width: 1.5; stroke-linecap: square"/>
    </g>
    <g id="text_8">
     <!-- 5(MI) -->
     <g transform="translate(47.702187 129.107188) scale(0.1 -0.1)">
      <use xlink:href="#DejaVuSans-35"/>
      <use xlink:href="#DejaVuSans-28" x="63.623047"/>
      <use xlink:href="#DejaVuSans-4d" x="102.636719"/>
      <use xlink:href="#DejaVuSans-49" x="188.916016"/>
      <use xlink:href="#DejaVuSans-29" x="218.408203"/>
     </g>
    </g>
    <g id="line2d_23">
     <path d="M 19.702187 140.285312 
L 29.702187 140.285312 
L 39.702187 140.285312 
" style="fill: none; stroke: #fb694a; stroke-width: 1.5; stroke-linecap: square"/>
    </g>
    <g id="text_9">
     <!-- 4(MI) -->
     <g transform="translate(47.702187 143.785312) scale(0.1 -0.1)">
      <use xlink:href="#DejaVuSans-34"/>
      <use xlink:href="#DejaVuSans-28" x="63.623047"/>
      <use xlink:href="#DejaVuSans-4d" x="102.636719"/>
      <use xlink:href="#DejaVuSans-49" x="188.916016"/>
      <use xlink:href="#DejaVuSans-29" x="218.408203"/>
     </g>
    </g>
    <g id="line2d_24">
     <path d="M 19.702187 154.963437 
L 29.702187 154.963437 
L 39.702187 154.963437 
" style="fill: none; stroke: #e32f27; stroke-width: 1.5; stroke-linecap: square"/>
    </g>
    <g id="text_10">
     <!-- 2(MI) -->
     <g transform="translate(47.702187 158.463437) scale(0.1 -0.1)">
      <use xlink:href="#DejaVuSans-32"/>
      <use xlink:href="#DejaVuSans-28" x="63.623047"/>
      <use xlink:href="#DejaVuSans-4d" x="102.636719"/>
      <use xlink:href="#DejaVuSans-49" x="188.916016"/>
      <use xlink:href="#DejaVuSans-29" x="218.408203"/>
     </g>
    </g>
    <g id="line2d_25">
     <path d="M 19.702187 169.641562 
L 29.702187 169.641562 
L 39.702187 169.641562 
" style="fill: none; stroke: #b11218; stroke-width: 1.5; stroke-linecap: square"/>
    </g>
    <g id="text_11">
     <!-- 1(MI) -->
     <g transform="translate(47.702187 173.141562) scale(0.1 -0.1)">
      <use xlink:href="#DejaVuSans-31"/>
      <use xlink:href="#DejaVuSans-28" x="63.623047"/>
      <use xlink:href="#DejaVuSans-4d" x="102.636719"/>
      <use xlink:href="#DejaVuSans-49" x="188.916016"/>
      <use xlink:href="#DejaVuSans-29" x="218.408203"/>
     </g>
    </g>
    <g id="line2d_26">
     <path d="M 19.702187 184.319687 
L 29.702187 184.319687 
L 39.702187 184.319687 
" style="fill: none; stroke: #d6e6f4; stroke-width: 1.5; stroke-linecap: square"/>
    </g>
    <g id="text_12">
     <!-- 10(EI) -->
     <g transform="translate(47.702187 187.819687) scale(0.1 -0.1)">
      <defs>
       <path id="DejaVuSans-45" d="M 628 4666 
L 3578 4666 
L 3578 4134 
L 1259 4134 
L 1259 2753 
L 3481 2753 
L 3481 2222 
L 1259 2222 
L 1259 531 
L 3634 531 
L 3634 0 
L 628 0 
L 628 4666 
z
" transform="scale(0.015625)"/>
      </defs>
      <use xlink:href="#DejaVuSans-31"/>
      <use xlink:href="#DejaVuSans-30" x="63.623047"/>
      <use xlink:href="#DejaVuSans-28" x="127.246094"/>
      <use xlink:href="#DejaVuSans-45" x="166.259766"/>
      <use xlink:href="#DejaVuSans-49" x="229.443359"/>
      <use xlink:href="#DejaVuSans-29" x="258.935547"/>
     </g>
    </g>
    <g id="line2d_27">
     <path d="M 19.702187 198.997812 
L 29.702187 198.997812 
L 39.702187 198.997812 
" style="fill: none; stroke: #abd0e6; stroke-width: 1.5; stroke-linecap: square"/>
    </g>
    <g id="text_13">
     <!-- 5(EI) -->
     <g transform="translate(47.702187 202.497812) scale(0.1 -0.1)">
      <use xlink:href="#DejaVuSans-35"/>
      <use xlink:href="#DejaVuSans-28" x="63.623047"/>
      <use xlink:href="#DejaVuSans-45" x="102.636719"/>
      <use xlink:href="#DejaVuSans-49" x="165.820312"/>
      <use xlink:href="#DejaVuSans-29" x="195.3125"/>
     </g>
    </g>
    <g id="line2d_28">
     <path d="M 19.702187 213.675937 
L 29.702187 213.675937 
L 39.702187 213.675937 
" style="fill: none; stroke: #6aaed6; stroke-width: 1.5; stroke-linecap: square"/>
    </g>
    <g id="text_14">
     <!-- 4(EI) -->
     <g transform="translate(47.702187 217.175937) scale(0.1 -0.1)">
      <use xlink:href="#DejaVuSans-34"/>
      <use xlink:href="#DejaVuSans-28" x="63.623047"/>
      <use xlink:href="#DejaVuSans-45" x="102.636719"/>
      <use xlink:href="#DejaVuSans-49" x="165.820312"/>
      <use xlink:href="#DejaVuSans-29" x="195.3125"/>
     </g>
    </g>
    <g id="line2d_29">
     <path d="M 19.702187 228.354062 
L 29.702187 228.354062 
L 39.702187 228.354062 
" style="fill: none; stroke: #3787c0; stroke-width: 1.5; stroke-linecap: square"/>
    </g>
    <g id="text_15">
     <!-- 2(EI) -->
     <g transform="translate(47.702187 231.854062) scale(0.1 -0.1)">
      <use xlink:href="#DejaVuSans-32"/>
      <use xlink:href="#DejaVuSans-28" x="63.623047"/>
      <use xlink:href="#DejaVuSans-45" x="102.636719"/>
      <use xlink:href="#DejaVuSans-49" x="165.820312"/>
      <use xlink:href="#DejaVuSans-29" x="195.3125"/>
     </g>
    </g>
    <g id="line2d_30">
     <path d="M 19.702187 243.032187 
L 29.702187 243.032187 
L 39.702187 243.032187 
" style="fill: none; stroke: #105ba4; stroke-width: 1.5; stroke-linecap: square"/>
    </g>
    <g id="text_16">
     <!-- 1(EI) -->
     <g transform="translate(47.702187 246.532187) scale(0.1 -0.1)">
      <use xlink:href="#DejaVuSans-31"/>
      <use xlink:href="#DejaVuSans-28" x="63.623047"/>
      <use xlink:href="#DejaVuSans-45" x="102.636719"/>
      <use xlink:href="#DejaVuSans-49" x="165.820312"/>
      <use xlink:href="#DejaVuSans-29" x="195.3125"/>
     </g>
    </g>
   </g>
  </g>
 </g>
</svg>
