<?xml version="1.0" encoding="utf-8" standalone="no"?>
<!DOCTYPE svg PUBLIC "-//W3C//DTD SVG 1.1//EN"
  "http://www.w3.org/Graphics/SVG/1.1/DTD/svg11.dtd">
<svg xmlns:xlink="http://www.w3.org/1999/xlink" width="244.8pt" height="165.6pt" viewBox="0 0 244.8 165.6" xmlns="http://www.w3.org/2000/svg" version="1.1">
 <metadata>
  <rdf:RDF xmlns:dc="http://purl.org/dc/elements/1.1/" xmlns:cc="http://creativecommons.org/ns#" xmlns:rdf="http://www.w3.org/1999/02/22-rdf-syntax-ns#">
   <cc:Work>
    <dc:type rdf:resource="http://purl.org/dc/dcmitype/StillImage"/>
    <dc:date>2026-03-30T10:39:45.395488</dc:date>
    <dc:format>image/svg+xml</dc:format>
    <dc:creator>
     <cc:Agent>
      <dc:title>Matplotlib v3.8.0, https://matplotlib.org/</dc:title>
     </cc:Agent>
    </dc:creator>
   </cc:Work>
  </rdf:RDF>
 </metadata>
 <defs>
  <style type="text/css">*{stroke-linejoin: round; stroke-linecap: butt}</style>
 </defs>
 <g id="figure_1">
  <g id="patch_1">
   <path d="M 0 165.6 
L 244.8 165.6 
L 244.8 0 
L 0 0 
L 0 165.6 
z
" style="fill: none"/>
  </g>
  <g id="axes_1">
   <g id="patch_2">
    <path d="M 43.144 127.286 
L 164.05 127.286 
L 164.05 24.7925 
L 43.144 24.7925 
L 43.144 127.286 
z
" style="fill: none"/>
   </g>
   <g id="matplotlib.axis_1">
    <g id="xtick_1">
     <g id="line2d_1">
      <path d="M 51.579302 127.286 
L 51.579302 24.7925 
" clip-path="url(#p3847cf34a4)" style="fill: none; stroke-dasharray: 1.85,0.8; stroke-dashoffset: 0; stroke: #b0b0b0; stroke-opacity: 0.3; stroke-width: 0.5"/>
     </g>
     <g id="line2d_2">
      <defs>
       <path id="m9a50235b44" d="M 0 0 
L 0 3.5 
" style="stroke: #000000; stroke-width: 0.8"/>
      </defs>
      <g>
       <use xlink:href="#m9a50235b44" x="51.579302" y="127.286" style="stroke: #000000; stroke-width: 0.8"/>
      </g>
     </g>
     <g id="text_1">
      <!-- 0.0 -->
      <g transform="translate(45.218052 140.36475) scale(0.08 -0.08)">
       <defs>
        <path id="DejaVuSans-30" d="M 2034 4250 
Q 1547 4250 1301 3770 
Q 1056 3291 1056 2328 
Q 1056 1369 1301 889 
Q 1547 409 2034 409 
Q 2525 409 2770 889 
Q 3016 1369 3016 2328 
Q 3016 3291 2770 3770 
Q 2525 4250 2034 4250 
z
M 2034 4750 
Q 2819 4750 3233 4129 
Q 3647 3509 3647 2328 
Q 3647 1150 3233 529 
Q 2819 -91 2034 -91 
Q 1250 -91 836 529 
Q 422 1150 422 2328 
Q 422 3509 836 4129 
Q 1250 4750 2034 4750 
z
" transform="scale(0.015625)"/>
        <path id="DejaVuSans-2e" d="M 684 794 
L 1344 794 
L 1344 0 
L 684 0 
L 684 794 
z
" transform="scale(0.015625)"/>
       </defs>
       <use xlink:href="#DejaVuSans-30"/>
       <use xlink:href="#DejaVuSans-2e" x="63.623047"/>
       <use xlink:href="#DejaVuSans-30" x="95.410156"/>
      </g>
     </g>
    </g>
    <g id="xtick_2">
     <g id="line2d_3">
      <path d="M 98.442093 127.286 
L 98.442093 24.7925 
" clip-path="url(#p3847cf34a4)" style="fill: none; stroke-dasharray: 1.85,0.8; stroke-dashoffset: 0; stroke: #b0b0b0; stroke-opacity: 0.3; stroke-width: 0.5"/>
     </g>
     <g id="line2d_4">
      <g>
       <use xlink:href="#m9a50235b44" x="98.442093" y="127.286" style="stroke: #000000; stroke-width: 0.8"/>
      </g>
     </g>
     <g id="text_2">
      <!-- 0.5 -->
      <g transform="translate(92.080843 140.36475) scale(0.08 -0.08)">
       <defs>
        <path id="DejaVuSans-35" d="M 691 4666 
L 3169 4666 
L 3169 4134 
L 1269 4134 
L 1269 2991 
Q 1406 3038 1543 3061 
Q 1681 3084 1819 3084 
Q 2600 3084 3056 2656 
Q 3513 2228 3513 1497 
Q 3513 744 3044 326 
Q 2575 -91 1722 -91 
Q 1428 -91 1123 -41 
Q 819 9 494 109 
L 494 744 
Q 775 591 1075 516 
Q 1375 441 1709 441 
Q 2250 441 2565 725 
Q 2881 1009 2881 1497 
Q 2881 1984 2565 2268 
Q 2250 2553 1709 2553 
Q 1456 2553 1204 2497 
Q 953 2441 691 2322 
L 691 4666 
z
" transform="scale(0.015625)"/>
       </defs>
       <use xlink:href="#DejaVuSans-30"/>
       <use xlink:href="#DejaVuSans-2e" x="63.623047"/>
       <use xlink:href="#DejaVuSans-35" x="95.410156"/>
      </g>
     </g>
    </g>
    <g id="xtick_3">
     <g id="line2d_5">
      <path d="M 145.304884 127.286 
L 145.304884 24.7925 
" clip-path="url(#p3847cf34a4)" style="fill: none; stroke-dasharray: 1.85,0.8; stroke-dashoffset: 0; stroke: #b0b0b0; stroke-opacity: 0.3; stroke-width: 0.5"/>
     </g>
     <g id="line2d_6">
      <g>
       <use xlink:href="#m9a50235b44" x="145.304884" y="127.286" style="stroke: #000000; stroke-width: 0.8"/>
      </g>
     </g>
     <g id="text_3">
      <!-- 1.0 -->
      <g transform="translate(138.943634 140.36475) scale(0.08 -0.08)">
       <defs>
        <path id="DejaVuSans-31" d="M 794 531 
L 1825 531 
L 1825 4091 
L 703 3866 
L 703 4441 
L 1819 4666 
L 2450 4666 
L 2450 531 
L 3481 531 
L 3481 0 
L 794 0 
L 794 531 
z
" transform="scale(0.015625)"/>
       </defs>
       <use xlink:href="#DejaVuSans-31"/>
       <use xlink:href="#DejaVuSans-2e" x="63.623047"/>
       <use xlink:href="#DejaVuSans-30" x="95.410156"/>
      </g>
     </g>
    </g>
    <g id="text_4">
     <!-- $\tilde{r}_t$ -->
     <g transform="translate(99.947 153.948813) scale(0.1 -0.1)">
      <defs>
       <path id="DejaVuSans-303" d="M -1619 4281 
L -1797 4453 
Q -1866 4516 -1917 4545 
Q -1969 4575 -2009 4575 
Q -2128 4575 -2184 4461 
Q -2241 4347 -2247 4091 
L -2638 4091 
Q -2631 4513 -2472 4742 
Q -2313 4972 -2028 4972 
Q -1909 4972 -1809 4928 
Q -1709 4884 -1594 4781 
L -1416 4609 
Q -1347 4547 -1295 4517 
Q -1244 4488 -1203 4488 
Q -1084 4488 -1028 4602 
Q -972 4716 -966 4972 
L -575 4972 
Q -581 4550 -740 4320 
Q -900 4091 -1184 4091 
Q -1303 4091 -1403 4134 
Q -1503 4178 -1619 4281 
z
" transform="scale(0.015625)"/>
       <path id="DejaVuSans-Oblique-72" d="M 2853 2969 
Q 2766 3016 2653 3041 
Q 2541 3066 2413 3066 
Q 1953 3066 1609 2717 
Q 1266 2369 1153 1784 
L 800 0 
L 225 0 
L 909 3500 
L 1484 3500 
L 1375 2956 
Q 1603 3259 1920 3421 
Q 2238 3584 2597 3584 
Q 2691 3584 2781 3573 
Q 2872 3563 2963 3538 
L 2853 2969 
z
" transform="scale(0.015625)"/>
       <path id="DejaVuSans-Oblique-74" d="M 2706 3500 
L 2619 3053 
L 1472 3053 
L 1100 1153 
Q 1081 1047 1072 975 
Q 1063 903 1063 863 
Q 1063 663 1183 572 
Q 1303 481 1569 481 
L 2150 481 
L 2053 0 
L 1503 0 
Q 991 0 739 200 
Q 488 400 488 806 
Q 488 878 497 964 
Q 506 1050 525 1153 
L 897 3053 
L 409 3053 
L 500 3500 
L 978 3500 
L 1172 4494 
L 1747 4494 
L 1556 3500 
L 2706 3500 
z
" transform="scale(0.015625)"/>
      </defs>
      <use xlink:href="#DejaVuSans-303" transform="translate(50.49707 5.3125)"/>
      <use xlink:href="#DejaVuSans-Oblique-72" transform="translate(0 0.734375)"/>
      <use xlink:href="#DejaVuSans-Oblique-74" transform="translate(42.070312 -15.671875) scale(0.7)"/>
     </g>
    </g>
   </g>
   <g id="matplotlib.axis_2">
    <g id="ytick_1">
     <g id="line2d_7">
      <path d="M 43.144 120.135291 
L 164.05 120.135291 
" clip-path="url(#p3847cf34a4)" style="fill: none; stroke-dasharray: 1.85,0.8; stroke-dashoffset: 0; stroke: #b0b0b0; stroke-opacity: 0.3; stroke-width: 0.5"/>
     </g>
     <g id="line2d_8">
      <defs>
       <path id="m5b9a38579d" d="M 0 0 
L -3.5 0 
" style="stroke: #000000; stroke-width: 0.8"/>
      </defs>
      <g>
       <use xlink:href="#m5b9a38579d" x="43.144" y="120.135291" style="stroke: #000000; stroke-width: 0.8"/>
      </g>
     </g>
     <g id="text_5">
      <!-- 0.0 -->
      <g transform="translate(23.4215 123.174666) scale(0.08 -0.08)">
       <use xlink:href="#DejaVuSans-30"/>
       <use xlink:href="#DejaVuSans-2e" x="63.623047"/>
       <use xlink:href="#DejaVuSans-30" x="95.410156"/>
      </g>
     </g>
    </g>
    <g id="ytick_2">
     <g id="line2d_9">
      <path d="M 43.144 80.409128 
L 164.05 80.409128 
" clip-path="url(#p3847cf34a4)" style="fill: none; stroke-dasharray: 1.85,0.8; stroke-dashoffset: 0; stroke: #b0b0b0; stroke-opacity: 0.3; stroke-width: 0.5"/>
     </g>
     <g id="line2d_10">
      <g>
       <use xlink:href="#m5b9a38579d" x="43.144" y="80.409128" style="stroke: #000000; stroke-width: 0.8"/>
      </g>
     </g>
     <g id="text_6">
      <!-- 0.5 -->
      <g transform="translate(23.4215 83.448503) scale(0.08 -0.08)">
       <use xlink:href="#DejaVuSans-30"/>
       <use xlink:href="#DejaVuSans-2e" x="63.623047"/>
       <use xlink:href="#DejaVuSans-35" x="95.410156"/>
      </g>
     </g>
    </g>
    <g id="ytick_3">
     <g id="line2d_11">
      <path d="M 43.144 40.682965 
L 164.05 40.682965 
" clip-path="url(#p3847cf34a4)" style="fill: none; stroke-dasharray: 1.85,0.8; stroke-dashoffset: 0; stroke: #b0b0b0; stroke-opacity: 0.3; stroke-width: 0.5"/>
     </g>
     <g id="line2d_12">
      <g>
       <use xlink:href="#m5b9a38579d" x="43.144" y="40.682965" style="stroke: #000000; stroke-width: 0.8"/>
      </g>
     </g>
     <g id="text_7">
      <!-- 1.0 -->
      <g transform="translate(23.4215 43.72234) scale(0.08 -0.08)">
       <use xlink:href="#DejaVuSans-31"/>
       <use xlink:href="#DejaVuSans-2e" x="63.623047"/>
       <use xlink:href="#DejaVuSans-30" x="95.410156"/>
      </g>
     </g>
    </g>
    <g id="text_8">
     <!-- $\tilde{\varepsilon}_t$ -->
     <g transform="translate(17.341812 80.33925) rotate(-90) scale(0.1 -0.1)">
      <defs>
       <path id="DejaVuSans-Oblique-3b5" d="M 1263 1888 
Q 925 1963 778 2166 
Q 669 2309 669 2503 
Q 669 3034 1175 3344 
Q 1575 3588 2188 3588 
Q 2425 3588 2684 3550 
Q 2944 3513 3234 3438 
L 3134 2916 
Q 2847 3006 2606 3047 
Q 2359 3088 2138 3088 
Q 1766 3088 1522 2944 
Q 1228 2772 1228 2522 
Q 1228 2356 1381 2241 
Q 1563 2103 1925 2103 
L 2409 2103 
L 2319 1628 
L 1856 1628 
Q 1425 1628 1172 1469 
Q 828 1253 828 916 
Q 828 703 1013 563 
Q 1244 388 1716 388 
Q 2006 388 2284 444 
Q 2563 503 2806 619 
L 2700 84 
Q 2403 -3 2131 -47 
Q 1859 -91 1609 -91 
Q 866 -91 516 194 
Q 250 413 250 781 
Q 250 1278 600 1584 
Q 859 1813 1263 1888 
z
" transform="scale(0.015625)"/>
      </defs>
      <use xlink:href="#DejaVuSans-303" transform="translate(58.731934 5.3125)"/>
      <use xlink:href="#DejaVuSans-Oblique-3b5" transform="translate(0 0.671875)"/>
      <use xlink:href="#DejaVuSans-Oblique-74" transform="translate(55.009766 -15.734375) scale(0.7)"/>
     </g>
    </g>
   </g>
   <g id="line2d_13">
    <path d="M 145.304884 40.682965 
L 145.304884 40.682965 
L 145.304884 40.682965 
L 139.212491 51.479089 
L 133.120098 62.275213 
L 126.693466 66.948924 
L 120.266835 71.622634 
L 120.266835 75.966603 
L 120.266835 80.310573 
L 120.266835 84.357232 
L 120.266835 88.403892 
L 111.208609 89.863378 
L 102.150383 91.322863 
L 102.150383 91.530662 
L 102.150383 91.738462 
L 95.86272 93.75382 
L 89.575057 95.769178 
L 89.575057 96.888124 
L 89.575057 98.00707 
L 89.575057 99.159483 
L 89.575057 100.311896 
" clip-path="url(#p3847cf34a4)" style="fill: none; stroke: #e9e9e9; stroke-opacity: 0.5; stroke-width: 1.5; stroke-linecap: square"/>
   </g>
   <g id="line2d_14">
    <path d="M 145.304884 40.682965 
L 145.304884 40.682965 
L 131.575107 55.898254 
L 131.575107 63.502826 
L 127.76761 69.402887 
L 121.048552 77.042805 
L 116.159002 78.49432 
L 111.783486 82.134459 
L 101.804621 84.823185 
L 101.804621 87.535401 
L 96.284288 90.525816 
L 96.284288 92.067598 
L 81.484029 92.698285 
L 81.484029 94.05597 
L 81.484029 95.949297 
L 81.484029 97.121053 
L 81.484029 100.666097 
L 81.484029 101.286193 
L 81.484029 102.533632 
L 81.484029 103.914102 
L 81.484029 104.723853 
" clip-path="url(#p3847cf34a4)" style="fill: none; stroke: #c6c6c6; stroke-opacity: 0.5; stroke-width: 1.5; stroke-linecap: square"/>
   </g>
   <g id="line2d_15">
    <path d="M 145.304884 40.682965 
L 140.358568 43.735851 
L 125.279444 53.240371 
L 119.908372 63.004065 
L 114.907553 75.18348 
L 104.923849 82.337011 
L 103.436147 87.181875 
L 102.359854 88.630324 
L 102.359854 89.845466 
L 102.359854 93.005079 
L 94.481593 94.616172 
L 86.603332 95.72474 
L 86.603332 96.69212 
L 86.059086 98.473097 
L 86.059086 101.101404 
L 86.059086 102.285403 
L 86.059086 102.77258 
L 85.918525 103.828099 
L 83.460548 104.24656 
L 81.424252 104.508881 
L 81.424252 105.099281 
" clip-path="url(#p3847cf34a4)" style="fill: none; stroke: #959595; stroke-opacity: 0.5; stroke-width: 1.5; stroke-linecap: square"/>
   </g>
   <g id="line2d_16">
    <path d="M 145.304884 40.682965 
L 141.006235 51.436712 
L 132.69543 61.969113 
L 113.072473 72.975869 
L 99.414979 81.113198 
L 95.531225 84.52126 
L 93.711909 86.732355 
L 93.711909 88.600403 
L 93.711909 90.012785 
L 93.711909 92.065813 
L 88.969787 93.673122 
L 88.969787 95.334504 
L 88.969787 98.113212 
L 77.293364 98.982699 
L 72.040982 100.704304 
L 72.040982 101.628533 
L 69.475622 102.23502 
L 69.475622 103.275439 
L 69.475622 104.151148 
L 69.475622 104.624712 
L 67.74386 105.146101 
" clip-path="url(#p3847cf34a4)" style="fill: none; stroke: #686868; stroke-opacity: 0.5; stroke-width: 1.5; stroke-linecap: square"/>
   </g>
   <g id="line2d_17">
    <path d="M 145.304884 40.682965 
L 103.953499 60.41371 
L 88.944079 68.786935 
L 82.237984 73.02162 
L 74.397213 81.002681 
L 68.924739 89.121528 
L 68.219853 90.124489 
L 68.219853 91.58596 
L 68.219853 92.352851 
L 68.219853 94.121083 
L 67.741942 96.774145 
L 63.403588 98.105395 
L 62.722479 98.692392 
L 62.722479 100.082934 
L 62.722479 101.507117 
L 62.370824 102.834961 
L 62.370824 103.628224 
L 60.610422 105.899292 
L 60.230174 106.024725 
L 60.230174 106.836189 
L 60.230174 107.817884 
" clip-path="url(#p3847cf34a4)" style="fill: none; stroke: #333333; stroke-opacity: 0.5; stroke-width: 1.5; stroke-linecap: square"/>
   </g>
   <g id="line2d_18">
    <path d="M 145.304884 40.682965 
L 145.304884 40.682965 
L 145.304884 40.682965 
L 138.66204 49.93598 
L 132.019196 59.188996 
L 132.019196 62.088802 
L 132.019196 64.988609 
L 132.019196 68.626101 
L 132.019196 72.263592 
L 131.536226 75.947169 
L 131.053256 79.630746 
L 129.195376 80.931962 
L 127.337496 82.233177 
L 124.667723 85.555073 
L 121.997951 88.876969 
L 121.30988 90.60398 
L 120.621809 92.330991 
L 120.086177 93.258551 
L 119.550544 94.186112 
L 119.30096 94.818943 
L 119.051376 95.451775 
" clip-path="url(#p3847cf34a4)" style="fill: none; stroke: #fdd4c2; stroke-opacity: 0.5; stroke-width: 1.5; stroke-linecap: square"/>
   </g>
   <g id="line2d_19">
    <path d="M 145.304884 40.682965 
L 145.304884 40.682965 
L 125.787116 64.633547 
L 125.787116 70.189469 
L 125.787116 73.120719 
L 120.66986 78.180504 
L 120.222502 82.809688 
L 120.222502 86.27802 
L 120.222502 88.449925 
L 115.967134 90.568296 
L 115.967134 93.550001 
L 115.967134 94.293062 
L 114.642215 95.356219 
L 114.642215 95.977276 
L 108.515745 96.412922 
L 108.17883 97.478863 
L 108.17883 98.357392 
L 108.17883 99.474297 
L 102.425107 100.950176 
L 99.51961 102.116295 
L 99.51961 103.2138 
" clip-path="url(#p3847cf34a4)" style="fill: none; stroke: #fca082; stroke-opacity: 0.5; stroke-width: 1.5; stroke-linecap: square"/>
   </g>
   <g id="line2d_20">
    <path d="M 145.304884 40.682965 
L 138.84897 44.242968 
L 115.526982 59.438761 
L 111.572734 71.649089 
L 111.572734 78.45579 
L 107.742023 82.383414 
L 105.203467 86.613833 
L 105.048718 88.562035 
L 105.048718 91.75684 
L 105.048718 94.631555 
L 105.048718 96.313332 
L 103.576405 97.601185 
L 103.085634 98.734415 
L 103.059217 99.476899 
L 101.631414 100.620914 
L 100.282864 101.520584 
L 100.282864 102.144552 
L 100.122108 102.847836 
L 91.891864 104.271761 
L 83.661619 105.468636 
L 83.661619 106.519334 
" clip-path="url(#p3847cf34a4)" style="fill: none; stroke: #fb694a; stroke-opacity: 0.5; stroke-width: 1.5; stroke-linecap: square"/>
   </g>
   <g id="line2d_21">
    <path d="M 145.304884 40.682965 
L 124.660363 56.151228 
L 111.511973 67.873663 
L 108.911788 74.816284 
L 91.586903 82.617288 
L 88.575887 88.980548 
L 83.32997 92.342043 
L 78.263159 95.217815 
L 70.252372 97.452504 
L 70.252372 98.867511 
L 70.252372 99.680156 
L 70.252372 100.687543 
L 70.252372 101.204483 
L 70.252372 101.866912 
L 70.252372 103.023645 
L 70.252372 103.946972 
L 70.252372 104.736734 
L 70.252372 105.679239 
L 70.252372 106.213775 
L 70.252372 106.712553 
L 70.252372 107.289792 
" clip-path="url(#p3847cf34a4)" style="fill: none; stroke: #e32f27; stroke-opacity: 0.5; stroke-width: 1.5; stroke-linecap: square"/>
   </g>
   <g id="line2d_22">
    <path d="M 145.304884 40.682965 
L 140.17213 59.791816 
L 131.771212 66.928341 
L 106.393604 73.726212 
L 92.42869 84.126778 
L 92.42869 89.104622 
L 87.883511 95.728268 
L 87.883511 97.357185 
L 84.526744 98.653501 
L 74.155131 99.999523 
L 72.9371 100.578742 
L 72.9371 102.36066 
L 72.9371 103.148867 
L 72.9371 103.865988 
L 72.9371 103.49348 
L 72.9371 103.908013 
L 70.859603 104.978214 
L 70.859603 105.769902 
L 70.816894 106.930764 
L 70.816894 108.150433 
L 70.816894 108.443764 
" clip-path="url(#p3847cf34a4)" style="fill: none; stroke: #b11218; stroke-opacity: 0.5; stroke-width: 1.5; stroke-linecap: square"/>
   </g>
   <g id="line2d_23">
    <path d="M 145.304884 40.682965 
L 145.304884 40.682965 
L 145.304884 40.682965 
L 137.793401 41.935324 
L 130.281917 43.187683 
L 114.198458 45.706327 
L 98.114999 48.224971 
L 87.191248 54.883071 
L 76.267497 61.541171 
L 70.533799 65.440559 
L 64.800102 69.339946 
L 64.073807 73.155877 
L 63.347513 76.971807 
L 58.020954 77.282399 
L 52.694394 77.592992 
L 52.639956 80.262987 
L 52.585519 82.932982 
L 52.345466 84.176198 
L 52.105414 85.419414 
L 52.013265 87.118454 
L 51.921117 88.817495 
" clip-path="url(#p3847cf34a4)" style="fill: none; stroke: #d6e6f4; stroke-opacity: 0.5; stroke-width: 1.5; stroke-linecap: square"/>
   </g>
   <g id="line2d_24">
    <path d="M 145.304884 40.682965 
L 111.545012 56.224476 
L 72.325632 60.155331 
L 68.073174 63.602336 
L 58.393344 71.22148 
L 57.00307 83.766105 
L 56.036127 85.712044 
L 53.925287 88.105768 
L 53.193689 89.132688 
L 52.447074 89.660356 
L 51.949266 91.2137 
L 51.695789 91.29596 
L 51.587318 90.750335 
L 51.579302 93.293987 
L 51.579302 94.658296 
L 51.579302 97.536534 
L 51.579302 97.580523 
L 51.579302 97.405456 
L 51.579302 99.205597 
L 51.579302 100.352929 
L 51.579302 101.577492 
" clip-path="url(#p3847cf34a4)" style="fill: none; stroke: #105ba4; stroke-opacity: 0.5; stroke-width: 1.5; stroke-linecap: square"/>
   </g>
   <g id="line2d_25"/>
   <g id="line2d_26"/>
   <g id="line2d_27"/>
   <g id="line2d_28"/>
   <g id="line2d_29"/>
   <g id="line2d_30"/>
   <g id="patch_3">
    <path d="M 43.144 127.286 
L 43.144 24.7925 
" style="fill: none; stroke: #000000; stroke-width: 0.8; stroke-linejoin: miter; stroke-linecap: square"/>
   </g>
   <g id="patch_4">
    <path d="M 164.05 127.286 
L 164.05 24.7925 
" style="fill: none; stroke: #000000; stroke-width: 0.8; stroke-linejoin: miter; stroke-linecap: square"/>
   </g>
   <g id="patch_5">
    <path d="M 43.144 127.286 
L 164.05 127.286 
" style="fill: none; stroke: #000000; stroke-width: 0.8; stroke-linejoin: miter; stroke-linecap: square"/>
   </g>
   <g id="patch_6">
    <path d="M 43.144 24.7925 
L 164.05 24.7925 
" style="fill: none; stroke: #000000; stroke-width: 0.8; stroke-linejoin: miter; stroke-linecap: square"/>
   </g>
   <g id="text_9">
    <!-- $\langle \widetilde{S}_{L_1} \rangle$ -->
    <g transform="translate(92.697 18.7925) scale(0.1 -0.1)">
     <defs>
      <path id="DejaVuSans-27e8" d="M 572 2006 
L 1453 4856 
L 1984 4856 
L 1103 2006 
L 1984 -844 
L 1453 -844 
L 572 2006 
z
" transform="scale(0.015625)"/>
      <path id="STIXSizeTwoSym-Regular-303" d="M -1274 4864 
L -1107 4864 
Q -1280 3891 -2560 3891 
Q -2861 3891 -3097 3916 
Q -3334 3942 -3484 3974 
Q -3635 4006 -4044 4102 
Q -4454 4198 -4806 4275 
Q -5741 4474 -6093 4474 
Q -7021 4474 -7206 3891 
L -7373 3891 
Q -7200 4864 -5997 4864 
Q -5414 4864 -3718 4474 
Q -2842 4269 -2400 4269 
Q -1421 4269 -1274 4864 
z
" transform="scale(0.015625)"/>
      <path id="DejaVuSans-Oblique-53" d="M 3859 4513 
L 3738 3897 
Q 3422 4066 3111 4152 
Q 2800 4238 2509 4238 
Q 1944 4238 1609 3991 
Q 1275 3744 1275 3334 
Q 1275 3109 1398 2989 
Q 1522 2869 2034 2731 
L 2413 2638 
Q 3053 2472 3303 2217 
Q 3553 1963 3553 1503 
Q 3553 797 2998 353 
Q 2444 -91 1538 -91 
Q 1166 -91 791 -17 
Q 416 56 38 206 
L 166 856 
Q 513 641 861 531 
Q 1209 422 1556 422 
Q 2147 422 2503 684 
Q 2859 947 2859 1369 
Q 2859 1650 2717 1795 
Q 2575 1941 2106 2059 
L 1728 2156 
Q 1081 2325 845 2545 
Q 609 2766 609 3163 
Q 609 3859 1145 4304 
Q 1681 4750 2541 4750 
Q 2875 4750 3203 4690 
Q 3531 4631 3859 4513 
z
" transform="scale(0.015625)"/>
      <path id="DejaVuSans-Oblique-4c" d="M 1075 4666 
L 1709 4666 
L 909 525 
L 3181 525 
L 3078 0 
L 172 0 
L 1075 4666 
z
" transform="scale(0.015625)"/>
      <path id="DejaVuSans-27e9" d="M 1925 2006 
L 1044 -844 
L 513 -844 
L 1394 2006 
L 513 4856 
L 1044 4856 
L 1925 2006 
z
" transform="scale(0.015625)"/>
     </defs>
     <use xlink:href="#DejaVuSans-27e8" transform="translate(0 0.4375)"/>
     <use xlink:href="#STIXSizeTwoSym-Regular-303" transform="translate(121.570312 47.734375) scale(0.64834)"/>
     <use xlink:href="#DejaVuSans-Oblique-53" transform="translate(39.013672 0.4375)"/>
     <use xlink:href="#DejaVuSans-Oblique-4c" transform="translate(103.447266 -15.96875) scale(0.7)"/>
     <use xlink:href="#DejaVuSans-31" transform="translate(142.446289 -27.453125) scale(0.49)"/>
     <use xlink:href="#DejaVuSans-27e9" transform="translate(178.27002 0.4375)"/>
    </g>
   </g>
   <g id="legend_1">
    <g id="patch_7">
     <path d="M 168.95 113.534563 
L 234.763125 113.534563 
Q 236.163125 113.534563 236.163125 112.134563 
L 236.163125 39.943938 
Q 236.163125 38.543938 234.763125 38.543938 
L 168.95 38.543938 
Q 167.55 38.543938 167.55 39.943938 
L 167.55 112.134563 
Q 167.55 113.534563 168.95 113.534563 
z
" style="fill: #ffffff; opacity: 0.8; stroke: #cccccc; stroke-linejoin: miter"/>
    </g>
    <g id="text_10">
     <!-- Ranking top-6 -->
     <g transform="translate(173.864688 47.422688) scale(0.08 -0.08)">
      <defs>
       <path id="DejaVuSans-52" d="M 2841 2188 
Q 3044 2119 3236 1894 
Q 3428 1669 3622 1275 
L 4263 0 
L 3584 0 
L 2988 1197 
Q 2756 1666 2539 1819 
Q 2322 1972 1947 1972 
L 1259 1972 
L 1259 0 
L 628 0 
L 628 4666 
L 2053 4666 
Q 2853 4666 3247 4331 
Q 3641 3997 3641 3322 
Q 3641 2881 3436 2590 
Q 3231 2300 2841 2188 
z
M 1259 4147 
L 1259 2491 
L 2053 2491 
Q 2509 2491 2742 2702 
Q 2975 2913 2975 3322 
Q 2975 3731 2742 3939 
Q 2509 4147 2053 4147 
L 1259 4147 
z
" transform="scale(0.015625)"/>
       <path id="DejaVuSans-61" d="M 2194 1759 
Q 1497 1759 1228 1600 
Q 959 1441 959 1056 
Q 959 750 1161 570 
Q 1363 391 1709 391 
Q 2188 391 2477 730 
Q 2766 1069 2766 1631 
L 2766 1759 
L 2194 1759 
z
M 3341 1997 
L 3341 0 
L 2766 0 
L 2766 531 
Q 2569 213 2275 61 
Q 1981 -91 1556 -91 
Q 1019 -91 701 211 
Q 384 513 384 1019 
Q 384 1609 779 1909 
Q 1175 2209 1959 2209 
L 2766 2209 
L 2766 2266 
Q 2766 2663 2505 2880 
Q 2244 3097 1772 3097 
Q 1472 3097 1187 3025 
Q 903 2953 641 2809 
L 641 3341 
Q 956 3463 1253 3523 
Q 1550 3584 1831 3584 
Q 2591 3584 2966 3190 
Q 3341 2797 3341 1997 
z
" transform="scale(0.015625)"/>
       <path id="DejaVuSans-6e" d="M 3513 2113 
L 3513 0 
L 2938 0 
L 2938 2094 
Q 2938 2591 2744 2837 
Q 2550 3084 2163 3084 
Q 1697 3084 1428 2787 
Q 1159 2491 1159 1978 
L 1159 0 
L 581 0 
L 581 3500 
L 1159 3500 
L 1159 2956 
Q 1366 3272 1645 3428 
Q 1925 3584 2291 3584 
Q 2894 3584 3203 3211 
Q 3513 2838 3513 2113 
z
" transform="scale(0.015625)"/>
       <path id="DejaVuSans-6b" d="M 581 4863 
L 1159 4863 
L 1159 1991 
L 2875 3500 
L 3609 3500 
L 1753 1863 
L 3688 0 
L 2938 0 
L 1159 1709 
L 1159 0 
L 581 0 
L 581 4863 
z
" transform="scale(0.015625)"/>
       <path id="DejaVuSans-69" d="M 603 3500 
L 1178 3500 
L 1178 0 
L 603 0 
L 603 3500 
z
M 603 4863 
L 1178 4863 
L 1178 4134 
L 603 4134 
L 603 4863 
z
" transform="scale(0.015625)"/>
       <path id="DejaVuSans-67" d="M 2906 1791 
Q 2906 2416 2648 2759 
Q 2391 3103 1925 3103 
Q 1463 3103 1205 2759 
Q 947 2416 947 1791 
Q 947 1169 1205 825 
Q 1463 481 1925 481 
Q 2391 481 2648 825 
Q 2906 1169 2906 1791 
z
M 3481 434 
Q 3481 -459 3084 -895 
Q 2688 -1331 1869 -1331 
Q 1566 -1331 1297 -1286 
Q 1028 -1241 775 -1147 
L 775 -588 
Q 1028 -725 1275 -790 
Q 1522 -856 1778 -856 
Q 2344 -856 2625 -561 
Q 2906 -266 2906 331 
L 2906 616 
Q 2728 306 2450 153 
Q 2172 0 1784 0 
Q 1141 0 747 490 
Q 353 981 353 1791 
Q 353 2603 747 3093 
Q 1141 3584 1784 3584 
Q 2172 3584 2450 3431 
Q 2728 3278 2906 2969 
L 2906 3500 
L 3481 3500 
L 3481 434 
z
" transform="scale(0.015625)"/>
       <path id="DejaVuSans-20" transform="scale(0.015625)"/>
       <path id="DejaVuSans-74" d="M 1172 4494 
L 1172 3500 
L 2356 3500 
L 2356 3053 
L 1172 3053 
L 1172 1153 
Q 1172 725 1289 603 
Q 1406 481 1766 481 
L 2356 481 
L 2356 0 
L 1766 0 
Q 1100 0 847 248 
Q 594 497 594 1153 
L 594 3053 
L 172 3053 
L 172 3500 
L 594 3500 
L 594 4494 
L 1172 4494 
z
" transform="scale(0.015625)"/>
       <path id="DejaVuSans-6f" d="M 1959 3097 
Q 1497 3097 1228 2736 
Q 959 2375 959 1747 
Q 959 1119 1226 758 
Q 1494 397 1959 397 
Q 2419 397 2687 759 
Q 2956 1122 2956 1747 
Q 2956 2369 2687 2733 
Q 2419 3097 1959 3097 
z
M 1959 3584 
Q 2709 3584 3137 3096 
Q 3566 2609 3566 1747 
Q 3566 888 3137 398 
Q 2709 -91 1959 -91 
Q 1206 -91 779 398 
Q 353 888 353 1747 
Q 353 2609 779 3096 
Q 1206 3584 1959 3584 
z
" transform="scale(0.015625)"/>
       <path id="DejaVuSans-70" d="M 1159 525 
L 1159 -1331 
L 581 -1331 
L 581 3500 
L 1159 3500 
L 1159 2969 
Q 1341 3281 1617 3432 
Q 1894 3584 2278 3584 
Q 2916 3584 3314 3078 
Q 3713 2572 3713 1747 
Q 3713 922 3314 415 
Q 2916 -91 2278 -91 
Q 1894 -91 1617 61 
Q 1341 213 1159 525 
z
M 3116 1747 
Q 3116 2381 2855 2742 
Q 2594 3103 2138 3103 
Q 1681 3103 1420 2742 
Q 1159 2381 1159 1747 
Q 1159 1113 1420 752 
Q 1681 391 2138 391 
Q 2594 391 2855 752 
Q 3116 1113 3116 1747 
z
" transform="scale(0.015625)"/>
       <path id="DejaVuSans-2d" d="M 313 2009 
L 1997 2009 
L 1997 1497 
L 313 1497 
L 313 2009 
z
" transform="scale(0.015625)"/>
       <path id="DejaVuSans-36" d="M 2113 2584 
Q 1688 2584 1439 2293 
Q 1191 2003 1191 1497 
Q 1191 994 1439 701 
Q 1688 409 2113 409 
Q 2538 409 2786 701 
Q 3034 994 3034 1497 
Q 3034 2003 2786 2293 
Q 2538 2584 2113 2584 
z
M 3366 4563 
L 3366 3988 
Q 3128 4100 2886 4159 
Q 2644 4219 2406 4219 
Q 1781 4219 1451 3797 
Q 1122 3375 1075 2522 
Q 1259 2794 1537 2939 
Q 1816 3084 2150 3084 
Q 2853 3084 3261 2657 
Q 3669 2231 3669 1497 
Q 3669 778 3244 343 
Q 2819 -91 2113 -91 
Q 1303 -91 875 529 
Q 447 1150 447 2328 
Q 447 3434 972 4092 
Q 1497 4750 2381 4750 
Q 2619 4750 2861 4703 
Q 3103 4656 3366 4563 
z
" transform="scale(0.015625)"/>
      </defs>
      <use xlink:href="#DejaVuSans-52"/>
      <use xlink:href="#DejaVuSans-61" x="67.232422"/>
      <use xlink:href="#DejaVuSans-6e" x="128.511719"/>
      <use xlink:href="#DejaVuSans-6b" x="191.890625"/>
      <use xlink:href="#DejaVuSans-69" x="249.800781"/>
      <use xlink:href="#DejaVuSans-6e" x="277.583984"/>
      <use xlink:href="#DejaVuSans-67" x="340.962891"/>
      <use xlink:href="#DejaVuSans-20" x="404.439453"/>
      <use xlink:href="#DejaVuSans-74" x="436.226562"/>
      <use xlink:href="#DejaVuSans-6f" x="475.435547"/>
      <use xlink:href="#DejaVuSans-70" x="536.617188"/>
      <use xlink:href="#DejaVuSans-2d" x="600.09375"/>
      <use xlink:href="#DejaVuSans-36" x="636.177734"/>
     </g>
    </g>
    <g id="line2d_31">
     <path d="M 170.35 55.455344 
L 177.35 55.455344 
L 184.35 55.455344 
" style="fill: none; stroke: #6aaed6; stroke-width: 3; stroke-linecap: square"/>
    </g>
    <g id="text_11">
     <!-- 4(EI) (#1) -->
     <g transform="translate(189.95 57.905344) scale(0.07 -0.07)">
      <defs>
       <path id="DejaVuSans-34" d="M 2419 4116 
L 825 1625 
L 2419 1625 
L 2419 4116 
z
M 2253 4666 
L 3047 4666 
L 3047 1625 
L 3713 1625 
L 3713 1100 
L 3047 1100 
L 3047 0 
L 2419 0 
L 2419 1100 
L 313 1100 
L 313 1709 
L 2253 4666 
z
" transform="scale(0.015625)"/>
       <path id="DejaVuSans-28" d="M 1984 4856 
Q 1566 4138 1362 3434 
Q 1159 2731 1159 2009 
Q 1159 1288 1364 580 
Q 1569 -128 1984 -844 
L 1484 -844 
Q 1016 -109 783 600 
Q 550 1309 550 2009 
Q 550 2706 781 3412 
Q 1013 4119 1484 4856 
L 1984 4856 
z
" transform="scale(0.015625)"/>
       <path id="DejaVuSans-45" d="M 628 4666 
L 3578 4666 
L 3578 4134 
L 1259 4134 
L 1259 2753 
L 3481 2753 
L 3481 2222 
L 1259 2222 
L 1259 531 
L 3634 531 
L 3634 0 
L 628 0 
L 628 4666 
z
" transform="scale(0.015625)"/>
       <path id="DejaVuSans-49" d="M 628 4666 
L 1259 4666 
L 1259 0 
L 628 0 
L 628 4666 
z
" transform="scale(0.015625)"/>
       <path id="DejaVuSans-29" d="M 513 4856 
L 1013 4856 
Q 1481 4119 1714 3412 
Q 1947 2706 1947 2009 
Q 1947 1309 1714 600 
Q 1481 -109 1013 -844 
L 513 -844 
Q 928 -128 1133 580 
Q 1338 1288 1338 2009 
Q 1338 2731 1133 3434 
Q 928 4138 513 4856 
z
" transform="scale(0.015625)"/>
       <path id="DejaVuSans-23" d="M 3272 2816 
L 2363 2816 
L 2100 1772 
L 3016 1772 
L 3272 2816 
z
M 2803 4594 
L 2478 3297 
L 3391 3297 
L 3719 4594 
L 4219 4594 
L 3897 3297 
L 4872 3297 
L 4872 2816 
L 3775 2816 
L 3519 1772 
L 4513 1772 
L 4513 1294 
L 3397 1294 
L 3072 0 
L 2572 0 
L 2894 1294 
L 1978 1294 
L 1656 0 
L 1153 0 
L 1478 1294 
L 494 1294 
L 494 1772 
L 1594 1772 
L 1856 2816 
L 850 2816 
L 850 3297 
L 1978 3297 
L 2297 4594 
L 2803 4594 
z
" transform="scale(0.015625)"/>
      </defs>
      <use xlink:href="#DejaVuSans-34"/>
      <use xlink:href="#DejaVuSans-28" x="63.623047"/>
      <use xlink:href="#DejaVuSans-45" x="102.636719"/>
      <use xlink:href="#DejaVuSans-49" x="165.820312"/>
      <use xlink:href="#DejaVuSans-29" x="195.3125"/>
      <use xlink:href="#DejaVuSans-20" x="234.326172"/>
      <use xlink:href="#DejaVuSans-28" x="266.113281"/>
      <use xlink:href="#DejaVuSans-23" x="305.126953"/>
      <use xlink:href="#DejaVuSans-31" x="388.916016"/>
      <use xlink:href="#DejaVuSans-29" x="452.539062"/>
     </g>
    </g>
    <g id="line2d_32">
     <path d="M 170.35 65.730031 
L 177.35 65.730031 
L 184.35 65.730031 
" style="fill: none; stroke: #3787c0; stroke-width: 3; stroke-linecap: square"/>
    </g>
    <g id="text_12">
     <!-- 2(EI) (#2) -->
     <g transform="translate(189.95 68.180031) scale(0.07 -0.07)">
      <defs>
       <path id="DejaVuSans-32" d="M 1228 531 
L 3431 531 
L 3431 0 
L 469 0 
L 469 531 
Q 828 903 1448 1529 
Q 2069 2156 2228 2338 
Q 2531 2678 2651 2914 
Q 2772 3150 2772 3378 
Q 2772 3750 2511 3984 
Q 2250 4219 1831 4219 
Q 1534 4219 1204 4116 
Q 875 4013 500 3803 
L 500 4441 
Q 881 4594 1212 4672 
Q 1544 4750 1819 4750 
Q 2544 4750 2975 4387 
Q 3406 4025 3406 3419 
Q 3406 3131 3298 2873 
Q 3191 2616 2906 2266 
Q 2828 2175 2409 1742 
Q 1991 1309 1228 531 
z
" transform="scale(0.015625)"/>
      </defs>
      <use xlink:href="#DejaVuSans-32"/>
      <use xlink:href="#DejaVuSans-28" x="63.623047"/>
      <use xlink:href="#DejaVuSans-45" x="102.636719"/>
      <use xlink:href="#DejaVuSans-49" x="165.820312"/>
      <use xlink:href="#DejaVuSans-29" x="195.3125"/>
      <use xlink:href="#DejaVuSans-20" x="234.326172"/>
      <use xlink:href="#DejaVuSans-28" x="266.113281"/>
      <use xlink:href="#DejaVuSans-23" x="305.126953"/>
      <use xlink:href="#DejaVuSans-32" x="388.916016"/>
      <use xlink:href="#DejaVuSans-29" x="452.539062"/>
     </g>
    </g>
    <g id="line2d_33">
     <path d="M 170.35 76.004719 
L 177.35 76.004719 
L 184.35 76.004719 
" style="fill: none; stroke: #abd0e6; stroke-width: 3; stroke-linecap: square"/>
    </g>
    <g id="text_13">
     <!-- 5(EI) (#3) -->
     <g transform="translate(189.95 78.454719) scale(0.07 -0.07)">
      <defs>
       <path id="DejaVuSans-33" d="M 2597 2516 
Q 3050 2419 3304 2112 
Q 3559 1806 3559 1356 
Q 3559 666 3084 287 
Q 2609 -91 1734 -91 
Q 1441 -91 1130 -33 
Q 819 25 488 141 
L 488 750 
Q 750 597 1062 519 
Q 1375 441 1716 441 
Q 2309 441 2620 675 
Q 2931 909 2931 1356 
Q 2931 1769 2642 2001 
Q 2353 2234 1838 2234 
L 1294 2234 
L 1294 2753 
L 1863 2753 
Q 2328 2753 2575 2939 
Q 2822 3125 2822 3475 
Q 2822 3834 2567 4026 
Q 2313 4219 1838 4219 
Q 1578 4219 1281 4162 
Q 984 4106 628 3988 
L 628 4550 
Q 988 4650 1302 4700 
Q 1616 4750 1894 4750 
Q 2613 4750 3031 4423 
Q 3450 4097 3450 3541 
Q 3450 3153 3228 2886 
Q 3006 2619 2597 2516 
z
" transform="scale(0.015625)"/>
      </defs>
      <use xlink:href="#DejaVuSans-35"/>
      <use xlink:href="#DejaVuSans-28" x="63.623047"/>
      <use xlink:href="#DejaVuSans-45" x="102.636719"/>
      <use xlink:href="#DejaVuSans-49" x="165.820312"/>
      <use xlink:href="#DejaVuSans-29" x="195.3125"/>
      <use xlink:href="#DejaVuSans-20" x="234.326172"/>
      <use xlink:href="#DejaVuSans-28" x="266.113281"/>
      <use xlink:href="#DejaVuSans-23" x="305.126953"/>
      <use xlink:href="#DejaVuSans-33" x="388.916016"/>
      <use xlink:href="#DejaVuSans-29" x="452.539062"/>
     </g>
    </g>
    <g id="line2d_34">
     <path d="M 170.35 86.279406 
L 177.35 86.279406 
L 184.35 86.279406 
" style="fill: none; stroke: #105ba4; stroke-opacity: 0.5; stroke-width: 1.5; stroke-linecap: square"/>
    </g>
    <g id="text_14">
     <!-- 1(EI) (#4) -->
     <g transform="translate(189.95 88.729406) scale(0.07 -0.07)">
      <use xlink:href="#DejaVuSans-31"/>
      <use xlink:href="#DejaVuSans-28" x="63.623047"/>
      <use xlink:href="#DejaVuSans-45" x="102.636719"/>
      <use xlink:href="#DejaVuSans-49" x="165.820312"/>
      <use xlink:href="#DejaVuSans-29" x="195.3125"/>
      <use xlink:href="#DejaVuSans-20" x="234.326172"/>
      <use xlink:href="#DejaVuSans-28" x="266.113281"/>
      <use xlink:href="#DejaVuSans-23" x="305.126953"/>
      <use xlink:href="#DejaVuSans-34" x="388.916016"/>
      <use xlink:href="#DejaVuSans-29" x="452.539062"/>
     </g>
    </g>
    <g id="line2d_35">
     <path d="M 170.35 96.554094 
L 177.35 96.554094 
L 184.35 96.554094 
" style="fill: none; stroke: #333333; stroke-opacity: 0.5; stroke-width: 1.5; stroke-linecap: square"/>
    </g>
    <g id="text_15">
     <!-- 1(RND) (#5) -->
     <g transform="translate(189.95 99.004094) scale(0.07 -0.07)">
      <defs>
       <path id="DejaVuSans-4e" d="M 628 4666 
L 1478 4666 
L 3547 763 
L 3547 4666 
L 4159 4666 
L 4159 0 
L 3309 0 
L 1241 3903 
L 1241 0 
L 628 0 
L 628 4666 
z
" transform="scale(0.015625)"/>
       <path id="DejaVuSans-44" d="M 1259 4147 
L 1259 519 
L 2022 519 
Q 2988 519 3436 956 
Q 3884 1394 3884 2338 
Q 3884 3275 3436 3711 
Q 2988 4147 2022 4147 
L 1259 4147 
z
M 628 4666 
L 1925 4666 
Q 3281 4666 3915 4102 
Q 4550 3538 4550 2338 
Q 4550 1131 3912 565 
Q 3275 0 1925 0 
L 628 0 
L 628 4666 
z
" transform="scale(0.015625)"/>
      </defs>
      <use xlink:href="#DejaVuSans-31"/>
      <use xlink:href="#DejaVuSans-28" x="63.623047"/>
      <use xlink:href="#DejaVuSans-52" x="102.636719"/>
      <use xlink:href="#DejaVuSans-4e" x="172.119141"/>
      <use xlink:href="#DejaVuSans-44" x="246.923828"/>
      <use xlink:href="#DejaVuSans-29" x="323.925781"/>
      <use xlink:href="#DejaVuSans-20" x="362.939453"/>
      <use xlink:href="#DejaVuSans-28" x="394.726562"/>
      <use xlink:href="#DejaVuSans-23" x="433.740234"/>
      <use xlink:href="#DejaVuSans-35" x="517.529297"/>
      <use xlink:href="#DejaVuSans-29" x="581.152344"/>
     </g>
    </g>
    <g id="line2d_36">
     <path d="M 170.35 106.828781 
L 177.35 106.828781 
L 184.35 106.828781 
" style="fill: none; stroke: #b11218; stroke-opacity: 0.5; stroke-width: 1.5; stroke-linecap: square"/>
    </g>
    <g id="text_16">
     <!-- 1(MI) (#6) -->
     <g transform="translate(189.95 109.278781) scale(0.07 -0.07)">
      <defs>
       <path id="DejaVuSans-4d" d="M 628 4666 
L 1569 4666 
L 2759 1491 
L 3956 4666 
L 4897 4666 
L 4897 0 
L 4281 0 
L 4281 4097 
L 3078 897 
L 2444 897 
L 1241 4097 
L 1241 0 
L 628 0 
L 628 4666 
z
" transform="scale(0.015625)"/>
      </defs>
      <use xlink:href="#DejaVuSans-31"/>
      <use xlink:href="#DejaVuSans-28" x="63.623047"/>
      <use xlink:href="#DejaVuSans-4d" x="102.636719"/>
      <use xlink:href="#DejaVuSans-49" x="188.916016"/>
      <use xlink:href="#DejaVuSans-29" x="218.408203"/>
      <use xlink:href="#DejaVuSans-20" x="257.421875"/>
      <use xlink:href="#DejaVuSans-28" x="289.208984"/>
      <use xlink:href="#DejaVuSans-23" x="328.222656"/>
      <use xlink:href="#DejaVuSans-36" x="412.011719"/>
      <use xlink:href="#DejaVuSans-29" x="475.634766"/>
     </g>
    </g>
   </g>
   <g id="line2d_37">
    <path d="M 145.304884 40.682965 
L 145.304884 40.682965 
L 121.940757 30.330888 
L 115.844052 35.600172 
L 90.148101 51.79583 
L 78.937389 58.076836 
L 75.271907 69.407387 
L 73.938741 77.335852 
L 62.66311 82.284076 
L 61.832267 82.135537 
L 58.68734 82.93131 
L 57.545502 86.221065 
L 54.579312 86.471775 
L 53.801042 87.196352 
L 52.92138 89.291749 
L 52.498527 90.420438 
L 52.478876 93.411818 
L 52.478876 94.980964 
L 52.478876 99.337407 
L 52.235815 100.27994 
L 52.231075 102.309968 
" clip-path="url(#p3847cf34a4)" style="fill: none; stroke: #abd0e6; stroke-width: 4; stroke-linecap: square"/>
   </g>
   <g id="PathCollection_1">
    <defs>
     <path id="me0106b7f13" d="M 0 3.872983 
C 1.027127 3.872983 2.012324 3.464901 2.738613 2.738613 
C 3.464901 2.012324 3.872983 1.027127 3.872983 0 
C 3.872983 -1.027127 3.464901 -2.012324 2.738613 -2.738613 
C 2.012324 -3.464901 1.027127 -3.872983 0 -3.872983 
C -1.027127 -3.872983 -2.012324 -3.464901 -2.738613 -2.738613 
C -3.464901 -2.012324 -3.872983 -1.027127 -3.872983 0 
C -3.872983 1.027127 -3.464901 2.012324 -2.738613 2.738613 
C -2.012324 3.464901 -1.027127 3.872983 0 3.872983 
z
" style="stroke: #000000"/>
    </defs>
    <g clip-path="url(#p3847cf34a4)">
     <use xlink:href="#me0106b7f13" x="145.304884" y="40.682965" style="fill: #ffffff; stroke: #000000"/>
    </g>
   </g>
   <g id="line2d_38">
    <path d="M 145.304884 40.682965 
L 124.214394 43.703514 
L 80.956429 39.60051 
L 65.818634 44.247519 
L 63.158449 58.753767 
L 60.379703 75.911261 
L 55.891015 80.545726 
L 53.58139 81.925102 
L 52.592641 83.507362 
L 52.453876 84.556414 
L 52.306931 87.71484 
L 52.242833 91.284459 
L 52.178734 90.597473 
L 52.178734 91.983298 
L 52.151059 93.52903 
L 52.151059 94.233938 
L 52.121639 95.126674 
L 52.121639 96.344376 
L 52.048785 97.441695 
L 51.962337 101.373177 
L 51.91066 102.263991 
" clip-path="url(#p3847cf34a4)" style="fill: none; stroke: #3787c0; stroke-width: 4; stroke-linecap: square"/>
   </g>
   <g id="PathCollection_2">
    <g clip-path="url(#p3847cf34a4)">
     <use xlink:href="#me0106b7f13" x="145.304884" y="40.682965" style="fill: #ffffff; stroke: #000000"/>
    </g>
   </g>
   <g id="line2d_39">
    <path d="M 145.304884 40.682965 
L 140.36449 40.442351 
L 116.049881 46.233713 
L 94.930508 58.293938 
L 88.172853 61.287241 
L 68.648046 64.650649 
L 66.533597 74.90322 
L 64.591219 82.006375 
L 64.20193 86.624144 
L 59.575952 89.503623 
L 53.15427 91.064936 
L 53.079402 93.289777 
L 53.061577 93.632023 
L 52.85327 94.62855 
L 52.386109 96.559409 
L 51.724001 97.256259 
L 51.647084 99.705656 
L 51.647084 102.122161 
L 51.634738 102.693003 
L 51.622392 102.871066 
L 51.622392 104.37185 
" clip-path="url(#p3847cf34a4)" style="fill: none; stroke: #6aaed6; stroke-width: 4; stroke-linecap: square"/>
   </g>
   <g id="PathCollection_3">
    <g clip-path="url(#p3847cf34a4)">
     <use xlink:href="#me0106b7f13" x="145.304884" y="40.682965" style="fill: #ffffff; stroke: #000000"/>
    </g>
   </g>
   <g id="PathCollection_4">
    <defs>
     <path id="m72d4e9f15c" d="M -0 5.477226 
L 3.286335 0 
L 0 -5.477226 
L -3.286335 -0 
z
" style="stroke: #000000"/>
    </defs>
    <g clip-path="url(#p3847cf34a4)">
     <use xlink:href="#m72d4e9f15c" x="52.231075" y="102.309968" style="fill: #abd0e6; stroke: #000000"/>
    </g>
   </g>
   <g id="PathCollection_5">
    <defs>
     <path id="med1c545626" d="M -0 5.477226 
L 3.286335 0 
L 0 -5.477226 
L -3.286335 -0 
z
" style="stroke: #000000"/>
    </defs>
    <g clip-path="url(#p3847cf34a4)">
     <use xlink:href="#med1c545626" x="51.91066" y="102.263991" style="fill: #3787c0; stroke: #000000"/>
    </g>
   </g>
   <g id="PathCollection_6">
    <defs>
     <path id="m3a170adace" d="M -0 5.477226 
L 3.286335 0 
L 0 -5.477226 
L -3.286335 -0 
z
" style="stroke: #000000"/>
    </defs>
    <g clip-path="url(#p3847cf34a4)">
     <use xlink:href="#m3a170adace" x="51.622392" y="104.37185" style="fill: #6aaed6; stroke: #000000"/>
    </g>
   </g>
  </g>
 </g>
 <defs>
  <clipPath id="p3847cf34a4">
   <rect x="43.144" y="24.7925" width="120.906" height="102.4935"/>
  </clipPath>
 </defs>
</svg>
