<?xml version="1.0" encoding="utf-8" standalone="no"?>
<!DOCTYPE svg PUBLIC "-//W3C//DTD SVG 1.1//EN"
  "http://www.w3.org/Graphics/SVG/1.1/DTD/svg11.dtd">
<svg xmlns:xlink="http://www.w3.org/1999/xlink" width="198pt" height="129.6pt" viewBox="0 0 198 129.6" xmlns="http://www.w3.org/2000/svg" version="1.1">
 <metadata>
  <rdf:RDF xmlns:dc="http://purl.org/dc/elements/1.1/" xmlns:cc="http://creativecommons.org/ns#" xmlns:rdf="http://www.w3.org/1999/02/22-rdf-syntax-ns#">
   <cc:Work>
    <dc:type rdf:resource="http://purl.org/dc/dcmitype/StillImage"/>
    <dc:date>2026-03-30T10:39:43.168508</dc:date>
    <dc:format>image/svg+xml</dc:format>
    <dc:creator>
     <cc:Agent>
      <dc:title>Matplotlib v3.8.0, https://matplotlib.org/</dc:title>
     </cc:Agent>
    </dc:creator>
   </cc:Work>
  </rdf:RDF>
 </metadata>
 <defs>
  <style type="text/css">*{stroke-linejoin: round; stroke-linecap: butt}</style>
 </defs>
 <g id="figure_1">
  <g id="patch_1">
   <path d="M 0 129.6 
L 198 129.6 
L 198 0 
L 0 0 
L 0 129.6 
z
" style="fill: none"/>
  </g>
  <g id="axes_1">
   <g id="patch_2">
    <path d="M 43.144 92.296 
L 188.685 92.296 
L 188.685 22.56 
L 43.144 22.56 
L 43.144 92.296 
z
" style="fill: none"/>
   </g>
   <g id="matplotlib.axis_1">
    <g id="xtick_1">
     <g id="line2d_1">
      <path d="M 49.7595 92.296 
L 49.7595 22.56 
" clip-path="url(#p2019958315)" style="fill: none; stroke-dasharray: 1.85,0.8; stroke-dashoffset: 0; stroke: #b0b0b0; stroke-opacity: 0.7; stroke-width: 0.5"/>
     </g>
     <g id="line2d_2">
      <defs>
       <path id="m36ceebcbd7" d="M 0 0 
L 0 3.5 
" style="stroke: #000000; stroke-width: 0.8"/>
      </defs>
      <g>
       <use xlink:href="#m36ceebcbd7" x="49.7595" y="92.296" style="stroke: #000000; stroke-width: 0.8"/>
      </g>
     </g>
     <g id="text_1">
      <!-- 0 -->
      <g transform="translate(47.2145 105.37475) scale(0.08 -0.08)">
       <defs>
        <path id="DejaVuSans-30" d="M 2034 4250 
Q 1547 4250 1301 3770 
Q 1056 3291 1056 2328 
Q 1056 1369 1301 889 
Q 1547 409 2034 409 
Q 2525 409 2770 889 
Q 3016 1369 3016 2328 
Q 3016 3291 2770 3770 
Q 2525 4250 2034 4250 
z
M 2034 4750 
Q 2819 4750 3233 4129 
Q 3647 3509 3647 2328 
Q 3647 1150 3233 529 
Q 2819 -91 2034 -91 
Q 1250 -91 836 529 
Q 422 1150 422 2328 
Q 422 3509 836 4129 
Q 1250 4750 2034 4750 
z
" transform="scale(0.015625)"/>
       </defs>
       <use xlink:href="#DejaVuSans-30"/>
      </g>
     </g>
    </g>
    <g id="xtick_2">
     <g id="line2d_3">
      <path d="M 82.837 92.296 
L 82.837 22.56 
" clip-path="url(#p2019958315)" style="fill: none; stroke-dasharray: 1.85,0.8; stroke-dashoffset: 0; stroke: #b0b0b0; stroke-opacity: 0.7; stroke-width: 0.5"/>
     </g>
     <g id="line2d_4">
      <g>
       <use xlink:href="#m36ceebcbd7" x="82.837" y="92.296" style="stroke: #000000; stroke-width: 0.8"/>
      </g>
     </g>
     <g id="text_2">
      <!-- 25 -->
      <g transform="translate(77.747 105.37475) scale(0.08 -0.08)">
       <defs>
        <path id="DejaVuSans-32" d="M 1228 531 
L 3431 531 
L 3431 0 
L 469 0 
L 469 531 
Q 828 903 1448 1529 
Q 2069 2156 2228 2338 
Q 2531 2678 2651 2914 
Q 2772 3150 2772 3378 
Q 2772 3750 2511 3984 
Q 2250 4219 1831 4219 
Q 1534 4219 1204 4116 
Q 875 4013 500 3803 
L 500 4441 
Q 881 4594 1212 4672 
Q 1544 4750 1819 4750 
Q 2544 4750 2975 4387 
Q 3406 4025 3406 3419 
Q 3406 3131 3298 2873 
Q 3191 2616 2906 2266 
Q 2828 2175 2409 1742 
Q 1991 1309 1228 531 
z
" transform="scale(0.015625)"/>
        <path id="DejaVuSans-35" d="M 691 4666 
L 3169 4666 
L 3169 4134 
L 1269 4134 
L 1269 2991 
Q 1406 3038 1543 3061 
Q 1681 3084 1819 3084 
Q 2600 3084 3056 2656 
Q 3513 2228 3513 1497 
Q 3513 744 3044 326 
Q 2575 -91 1722 -91 
Q 1428 -91 1123 -41 
Q 819 9 494 109 
L 494 744 
Q 775 591 1075 516 
Q 1375 441 1709 441 
Q 2250 441 2565 725 
Q 2881 1009 2881 1497 
Q 2881 1984 2565 2268 
Q 2250 2553 1709 2553 
Q 1456 2553 1204 2497 
Q 953 2441 691 2322 
L 691 4666 
z
" transform="scale(0.015625)"/>
       </defs>
       <use xlink:href="#DejaVuSans-32"/>
       <use xlink:href="#DejaVuSans-35" x="63.623047"/>
      </g>
     </g>
    </g>
    <g id="xtick_3">
     <g id="line2d_5">
      <path d="M 115.9145 92.296 
L 115.9145 22.56 
" clip-path="url(#p2019958315)" style="fill: none; stroke-dasharray: 1.85,0.8; stroke-dashoffset: 0; stroke: #b0b0b0; stroke-opacity: 0.7; stroke-width: 0.5"/>
     </g>
     <g id="line2d_6">
      <g>
       <use xlink:href="#m36ceebcbd7" x="115.9145" y="92.296" style="stroke: #000000; stroke-width: 0.8"/>
      </g>
     </g>
     <g id="text_3">
      <!-- 50 -->
      <g transform="translate(110.8245 105.37475) scale(0.08 -0.08)">
       <use xlink:href="#DejaVuSans-35"/>
       <use xlink:href="#DejaVuSans-30" x="63.623047"/>
      </g>
     </g>
    </g>
    <g id="xtick_4">
     <g id="line2d_7">
      <path d="M 148.992 92.296 
L 148.992 22.56 
" clip-path="url(#p2019958315)" style="fill: none; stroke-dasharray: 1.85,0.8; stroke-dashoffset: 0; stroke: #b0b0b0; stroke-opacity: 0.7; stroke-width: 0.5"/>
     </g>
     <g id="line2d_8">
      <g>
       <use xlink:href="#m36ceebcbd7" x="148.992" y="92.296" style="stroke: #000000; stroke-width: 0.8"/>
      </g>
     </g>
     <g id="text_4">
      <!-- 75 -->
      <g transform="translate(143.902 105.37475) scale(0.08 -0.08)">
       <defs>
        <path id="DejaVuSans-37" d="M 525 4666 
L 3525 4666 
L 3525 4397 
L 1831 0 
L 1172 0 
L 2766 4134 
L 525 4134 
L 525 4666 
z
" transform="scale(0.015625)"/>
       </defs>
       <use xlink:href="#DejaVuSans-37"/>
       <use xlink:href="#DejaVuSans-35" x="63.623047"/>
      </g>
     </g>
    </g>
    <g id="xtick_5">
     <g id="line2d_9">
      <path d="M 182.0695 92.296 
L 182.0695 22.56 
" clip-path="url(#p2019958315)" style="fill: none; stroke-dasharray: 1.85,0.8; stroke-dashoffset: 0; stroke: #b0b0b0; stroke-opacity: 0.7; stroke-width: 0.5"/>
     </g>
     <g id="line2d_10">
      <g>
       <use xlink:href="#m36ceebcbd7" x="182.0695" y="92.296" style="stroke: #000000; stroke-width: 0.8"/>
      </g>
     </g>
     <g id="text_5">
      <!-- 100 -->
      <g transform="translate(174.4345 105.37475) scale(0.08 -0.08)">
       <defs>
        <path id="DejaVuSans-31" d="M 794 531 
L 1825 531 
L 1825 4091 
L 703 3866 
L 703 4441 
L 1819 4666 
L 2450 4666 
L 2450 531 
L 3481 531 
L 3481 0 
L 794 0 
L 794 531 
z
" transform="scale(0.015625)"/>
       </defs>
       <use xlink:href="#DejaVuSans-31"/>
       <use xlink:href="#DejaVuSans-30" x="63.623047"/>
       <use xlink:href="#DejaVuSans-30" x="127.246094"/>
      </g>
     </g>
    </g>
    <g id="text_6">
     <!-- $N_t$ -->
     <g transform="translate(110.6645 118.636938) scale(0.1 -0.1)">
      <defs>
       <path id="DejaVuSans-Oblique-4e" d="M 1081 4666 
L 1931 4666 
L 3219 666 
L 4000 4666 
L 4616 4666 
L 3706 0 
L 2853 0 
L 1569 4025 
L 788 0 
L 172 0 
L 1081 4666 
z
" transform="scale(0.015625)"/>
       <path id="DejaVuSans-Oblique-74" d="M 2706 3500 
L 2619 3053 
L 1472 3053 
L 1100 1153 
Q 1081 1047 1072 975 
Q 1063 903 1063 863 
Q 1063 663 1183 572 
Q 1303 481 1569 481 
L 2150 481 
L 2053 0 
L 1503 0 
Q 991 0 739 200 
Q 488 400 488 806 
Q 488 878 497 964 
Q 506 1050 525 1153 
L 897 3053 
L 409 3053 
L 500 3500 
L 978 3500 
L 1172 4494 
L 1747 4494 
L 1556 3500 
L 2706 3500 
z
" transform="scale(0.015625)"/>
      </defs>
      <use xlink:href="#DejaVuSans-Oblique-4e" transform="translate(0 0.09375)"/>
      <use xlink:href="#DejaVuSans-Oblique-74" transform="translate(74.804688 -16.3125) scale(0.7)"/>
     </g>
    </g>
   </g>
   <g id="matplotlib.axis_2">
    <g id="ytick_1">
     <g id="line2d_11">
      <defs>
       <path id="me16a635cbe" d="M 0 0 
L -3.5 0 
" style="stroke: #000000; stroke-width: 0.8"/>
      </defs>
      <g>
       <use xlink:href="#me16a635cbe" x="43.144" y="89.264" style="stroke: #000000; stroke-width: 0.8"/>
      </g>
     </g>
     <g id="text_7">
      <!-- 0.0 -->
      <g transform="translate(23.4215 92.303375) scale(0.08 -0.08)">
       <defs>
        <path id="DejaVuSans-2e" d="M 684 794 
L 1344 794 
L 1344 0 
L 684 0 
L 684 794 
z
" transform="scale(0.015625)"/>
       </defs>
       <use xlink:href="#DejaVuSans-30"/>
       <use xlink:href="#DejaVuSans-2e" x="63.623047"/>
       <use xlink:href="#DejaVuSans-30" x="95.410156"/>
      </g>
     </g>
    </g>
    <g id="ytick_2">
     <g id="line2d_12">
      <g>
       <use xlink:href="#me16a635cbe" x="43.144" y="58.944" style="stroke: #000000; stroke-width: 0.8"/>
      </g>
     </g>
     <g id="text_8">
      <!-- 0.5 -->
      <g transform="translate(23.4215 61.983375) scale(0.08 -0.08)">
       <use xlink:href="#DejaVuSans-30"/>
       <use xlink:href="#DejaVuSans-2e" x="63.623047"/>
       <use xlink:href="#DejaVuSans-35" x="95.410156"/>
      </g>
     </g>
    </g>
    <g id="ytick_3">
     <g id="line2d_13">
      <g>
       <use xlink:href="#me16a635cbe" x="43.144" y="28.624" style="stroke: #000000; stroke-width: 0.8"/>
      </g>
     </g>
     <g id="text_9">
      <!-- 1.0 -->
      <g transform="translate(23.4215 31.663375) scale(0.08 -0.08)">
       <use xlink:href="#DejaVuSans-31"/>
       <use xlink:href="#DejaVuSans-2e" x="63.623047"/>
       <use xlink:href="#DejaVuSans-30" x="95.410156"/>
      </g>
     </g>
    </g>
    <g id="text_10">
     <!-- $\tilde{r}_t$ -->
     <g transform="translate(17.341812 61.078) rotate(-90) scale(0.1 -0.1)">
      <defs>
       <path id="DejaVuSans-303" d="M -1619 4281 
L -1797 4453 
Q -1866 4516 -1917 4545 
Q -1969 4575 -2009 4575 
Q -2128 4575 -2184 4461 
Q -2241 4347 -2247 4091 
L -2638 4091 
Q -2631 4513 -2472 4742 
Q -2313 4972 -2028 4972 
Q -1909 4972 -1809 4928 
Q -1709 4884 -1594 4781 
L -1416 4609 
Q -1347 4547 -1295 4517 
Q -1244 4488 -1203 4488 
Q -1084 4488 -1028 4602 
Q -972 4716 -966 4972 
L -575 4972 
Q -581 4550 -740 4320 
Q -900 4091 -1184 4091 
Q -1303 4091 -1403 4134 
Q -1503 4178 -1619 4281 
z
" transform="scale(0.015625)"/>
       <path id="DejaVuSans-Oblique-72" d="M 2853 2969 
Q 2766 3016 2653 3041 
Q 2541 3066 2413 3066 
Q 1953 3066 1609 2717 
Q 1266 2369 1153 1784 
L 800 0 
L 225 0 
L 909 3500 
L 1484 3500 
L 1375 2956 
Q 1603 3259 1920 3421 
Q 2238 3584 2597 3584 
Q 2691 3584 2781 3573 
Q 2872 3563 2963 3538 
L 2853 2969 
z
" transform="scale(0.015625)"/>
      </defs>
      <use xlink:href="#DejaVuSans-303" transform="translate(50.49707 5.3125)"/>
      <use xlink:href="#DejaVuSans-Oblique-72" transform="translate(0 0.734375)"/>
      <use xlink:href="#DejaVuSans-Oblique-74" transform="translate(42.070312 -15.671875) scale(0.7)"/>
     </g>
    </g>
   </g>
   <g id="line2d_14">
    <path d="M 49.7595 28.624 
L 51.0826 28.624 
L 52.4057 28.624 
L 53.7288 28.624 
L 55.0519 28.624 
L 56.375 28.624 
L 57.6981 28.624 
L 59.0212 28.624 
L 60.3443 28.624 
L 61.6674 28.624 
L 62.9905 28.624 
L 64.3136 29.41235 
L 65.6367 30.2007 
L 66.9598 30.989049 
L 68.2829 31.777399 
L 69.606 32.565749 
L 70.9291 33.354099 
L 72.2522 34.142449 
L 73.5753 34.930798 
L 74.8984 35.719148 
L 76.2215 36.507498 
L 77.5446 37.339098 
L 78.8677 38.170698 
L 80.1908 39.002298 
L 81.5139 39.833898 
L 82.837 40.665497 
L 84.1601 41.497097 
L 85.4832 42.328697 
L 86.8063 43.160297 
L 88.1294 43.991897 
L 89.4525 44.823497 
L 90.7756 44.823497 
L 92.0987 44.823497 
L 93.4218 44.823497 
L 94.7449 44.823497 
L 96.068 44.823497 
L 97.3911 44.823497 
L 98.7142 44.823497 
L 100.0373 44.823497 
L 101.3604 44.823497 
L 102.6835 44.823497 
L 104.0066 44.823497 
L 105.3297 44.823497 
L 106.6528 44.823497 
L 107.9759 44.823497 
L 109.299 44.823497 
L 110.6221 44.823497 
L 111.9452 44.823497 
L 113.2683 44.823497 
L 114.5914 44.823497 
L 115.9145 44.823497 
L 117.2376 45.995623 
L 118.5607 47.167748 
L 119.8838 48.339874 
L 121.2069 49.512 
L 122.53 50.684125 
L 123.8531 51.856251 
L 125.1762 53.028377 
L 126.4993 54.200503 
L 127.8224 55.372628 
L 129.1455 56.544754 
L 130.4686 56.544754 
L 131.7917 56.544754 
L 133.1148 56.544754 
L 134.4379 56.544754 
L 135.761 56.544754 
L 137.0841 56.544754 
L 138.4072 56.544754 
L 139.7303 56.544754 
L 141.0534 56.544754 
L 142.3765 56.544754 
L 143.6996 57.358371 
L 145.0227 58.171989 
L 146.3458 58.985607 
L 147.6689 59.799224 
L 148.992 60.612842 
L 150.3151 61.426459 
L 151.6382 62.240077 
L 152.9613 63.053694 
L 154.2844 63.867312 
L 155.6075 64.68093 
L 156.9306 64.68093 
L 158.2537 64.68093 
L 159.5768 64.68093 
L 160.8999 64.68093 
L 162.223 64.68093 
L 163.5461 64.68093 
L 164.8692 64.68093 
L 166.1923 64.68093 
L 167.5154 64.68093 
L 168.8385 64.68093 
L 170.1616 64.68093 
L 171.4847 64.68093 
L 172.8078 64.68093 
L 174.1309 64.68093 
L 175.454 64.68093 
L 176.7771 64.68093 
L 178.1002 64.68093 
L 179.4233 64.68093 
L 180.7464 64.68093 
L 182.0695 64.68093 
" clip-path="url(#p2019958315)" style="fill: none; stroke: #e9e9e9; stroke-width: 1.5; stroke-linecap: square"/>
   </g>
   <g id="line2d_15">
    <path d="M 49.7595 28.624 
L 51.0826 28.624 
L 52.4057 28.624 
L 53.7288 28.624 
L 55.0519 28.624 
L 56.375 28.624 
L 57.6981 30.40062 
L 59.0212 32.17724 
L 60.3443 33.95386 
L 61.6674 35.73048 
L 62.9905 37.5071 
L 64.3136 37.5071 
L 65.6367 37.5071 
L 66.9598 37.5071 
L 68.2829 37.5071 
L 69.606 37.5071 
L 70.9291 37.999786 
L 72.2522 38.492473 
L 73.5753 38.985159 
L 74.8984 39.477845 
L 76.2215 39.970532 
L 77.5446 40.839972 
L 78.8677 41.709411 
L 80.1908 42.578851 
L 81.5139 43.44829 
L 82.837 44.31773 
L 84.1601 44.950433 
L 85.4832 45.583136 
L 86.8063 46.215839 
L 88.1294 46.848542 
L 89.4525 47.481245 
L 90.7756 48.047433 
L 92.0987 48.61362 
L 93.4218 49.179808 
L 94.7449 49.745995 
L 96.068 50.312183 
L 97.3911 51.603438 
L 98.7142 52.894694 
L 100.0373 54.18595 
L 101.3604 55.477205 
L 102.6835 56.768461 
L 104.0066 56.768461 
L 105.3297 56.768461 
L 106.6528 56.768461 
L 107.9759 56.768461 
L 109.299 56.768461 
L 110.6221 57.482786 
L 111.9452 58.197112 
L 113.2683 58.911438 
L 114.5914 59.625764 
L 115.9145 60.34009 
L 117.2376 60.34009 
L 118.5607 60.34009 
L 119.8838 60.34009 
L 121.2069 60.34009 
L 122.53 60.34009 
L 123.8531 62.255229 
L 125.1762 64.170368 
L 126.4993 66.085507 
L 127.8224 68.000646 
L 129.1455 69.915786 
L 130.4686 69.915786 
L 131.7917 69.915786 
L 133.1148 69.915786 
L 134.4379 69.915786 
L 135.761 69.915786 
L 137.0841 69.915786 
L 138.4072 69.915786 
L 139.7303 69.915786 
L 141.0534 69.915786 
L 142.3765 69.915786 
L 143.6996 69.915786 
L 145.0227 69.915786 
L 146.3458 69.915786 
L 147.6689 69.915786 
L 148.992 69.915786 
L 150.3151 69.915786 
L 151.6382 69.915786 
L 152.9613 69.915786 
L 154.2844 69.915786 
L 155.6075 69.915786 
L 156.9306 69.915786 
L 158.2537 69.915786 
L 159.5768 69.915786 
L 160.8999 69.915786 
L 162.223 69.915786 
L 163.5461 69.915786 
L 164.8692 69.915786 
L 166.1923 69.915786 
L 167.5154 69.915786 
L 168.8385 69.915786 
L 170.1616 69.915786 
L 171.4847 69.915786 
L 172.8078 69.915786 
L 174.1309 69.915786 
L 175.454 69.915786 
L 176.7771 69.915786 
L 178.1002 69.915786 
L 179.4233 69.915786 
L 180.7464 69.915786 
L 182.0695 69.915786 
" clip-path="url(#p2019958315)" style="fill: none; stroke: #c6c6c6; stroke-width: 1.5; stroke-linecap: square"/>
   </g>
   <g id="line2d_16">
    <path d="M 49.7595 28.624 
L 51.0826 28.624 
L 52.4057 28.624 
L 53.7288 28.624 
L 55.0519 28.624 
L 56.375 31.824242 
L 57.6981 35.024485 
L 59.0212 38.224727 
L 60.3443 41.424969 
L 61.6674 41.502666 
L 62.9905 41.580363 
L 64.3136 41.65806 
L 65.6367 41.735757 
L 66.9598 42.842311 
L 68.2829 43.948866 
L 69.606 45.055421 
L 70.9291 46.161976 
L 72.2522 46.694213 
L 73.5753 47.226451 
L 74.8984 47.758689 
L 76.2215 48.290927 
L 77.5446 49.883597 
L 78.8677 51.476268 
L 80.1908 53.068938 
L 81.5139 54.661608 
L 82.837 54.750335 
L 84.1601 54.839061 
L 85.4832 54.927788 
L 86.8063 55.016514 
L 88.1294 55.364692 
L 89.4525 55.712871 
L 90.7756 56.061049 
L 92.0987 56.409228 
L 93.4218 56.409228 
L 94.7449 56.409228 
L 96.068 56.409228 
L 97.3911 56.409228 
L 98.7142 56.409228 
L 100.0373 56.409228 
L 101.3604 56.409228 
L 102.6835 56.409228 
L 104.0066 56.409228 
L 105.3297 56.409228 
L 106.6528 56.409228 
L 107.9759 56.409228 
L 109.299 56.409228 
L 110.6221 56.409228 
L 111.9452 56.409228 
L 113.2683 56.409228 
L 114.5914 58.957826 
L 115.9145 61.506424 
L 117.2376 64.055023 
L 118.5607 66.603621 
L 119.8838 66.603621 
L 121.2069 66.603621 
L 122.53 66.603621 
L 123.8531 66.603621 
L 125.1762 66.603621 
L 126.4993 66.603621 
L 127.8224 66.603621 
L 129.1455 66.603621 
L 130.4686 66.691653 
L 131.7917 66.779684 
L 133.1148 66.867715 
L 134.4379 66.955746 
L 135.761 66.955746 
L 137.0841 66.955746 
L 138.4072 66.955746 
L 139.7303 66.955746 
L 141.0534 66.955746 
L 142.3765 66.955746 
L 143.6996 66.955746 
L 145.0227 66.955746 
L 146.3458 66.955746 
L 147.6689 66.955746 
L 148.992 66.955746 
L 150.3151 66.955746 
L 151.6382 66.955746 
L 152.9613 66.955746 
L 154.2844 66.955746 
L 155.6075 66.955746 
L 156.9306 66.955746 
L 158.2537 66.955746 
L 159.5768 66.955746 
L 160.8999 66.955746 
L 162.223 67.046688 
L 163.5461 67.13763 
L 164.8692 67.228572 
L 166.1923 67.319514 
L 167.5154 67.978251 
L 168.8385 68.636988 
L 170.1616 69.295724 
L 171.4847 69.954461 
L 172.8078 69.954461 
L 174.1309 69.954461 
L 175.454 69.954461 
L 176.7771 69.954461 
L 178.1002 69.954461 
L 179.4233 69.954461 
L 180.7464 69.954461 
L 182.0695 69.954461 
" clip-path="url(#p2019958315)" style="fill: none; stroke: #959595; stroke-width: 1.5; stroke-linecap: square"/>
   </g>
   <g id="line2d_17">
    <path d="M 49.7595 28.624 
L 51.0826 28.624 
L 52.4057 28.624 
L 53.7288 29.575504 
L 55.0519 30.527007 
L 56.375 31.405205 
L 57.6981 32.283402 
L 59.0212 34.018144 
L 60.3443 35.752886 
L 61.6674 36.267571 
L 62.9905 36.782256 
L 64.3136 39.072585 
L 65.6367 41.362915 
L 66.9598 45.420565 
L 68.2829 49.478215 
L 69.606 49.478215 
L 70.9291 49.478215 
L 72.2522 53.896381 
L 73.5753 58.314547 
L 74.8984 58.314547 
L 76.2215 58.314547 
L 77.5446 58.314547 
L 78.8677 58.314547 
L 80.1908 59.570932 
L 81.5139 60.827317 
L 82.837 60.827317 
L 84.1601 60.827317 
L 85.4832 60.827317 
L 86.8063 60.827317 
L 88.1294 61.415862 
L 89.4525 62.004406 
L 90.7756 62.004406 
L 92.0987 62.004406 
L 93.4218 62.004406 
L 94.7449 62.004406 
L 96.068 62.004406 
L 97.3911 62.004406 
L 98.7142 62.004406 
L 100.0373 62.004406 
L 101.3604 62.004406 
L 102.6835 62.004406 
L 104.0066 62.004406 
L 105.3297 62.004406 
L 106.6528 62.004406 
L 107.9759 62.004406 
L 109.299 62.004406 
L 110.6221 62.004406 
L 111.9452 63.538471 
L 113.2683 65.072536 
L 114.5914 65.072536 
L 115.9145 65.072536 
L 117.2376 65.072536 
L 118.5607 65.072536 
L 119.8838 65.072536 
L 121.2069 65.072536 
L 122.53 65.072536 
L 123.8531 65.072536 
L 125.1762 65.072536 
L 126.4993 65.072536 
L 127.8224 65.072536 
L 129.1455 65.072536 
L 130.4686 67.150698 
L 131.7917 69.22886 
L 133.1148 69.22886 
L 134.4379 69.22886 
L 135.761 72.627126 
L 137.0841 76.025392 
L 138.4072 76.025392 
L 139.7303 76.025392 
L 141.0534 76.025392 
L 142.3765 76.025392 
L 143.6996 76.025392 
L 145.0227 76.025392 
L 146.3458 76.025392 
L 147.6689 76.025392 
L 148.992 76.025392 
L 150.3151 76.025392 
L 151.6382 76.728109 
L 152.9613 77.430827 
L 154.2844 77.557997 
L 155.6075 77.685167 
L 156.9306 77.685167 
L 158.2537 77.685167 
L 159.5768 77.685167 
L 160.8999 77.685167 
L 162.223 77.685167 
L 163.5461 77.685167 
L 164.8692 77.685167 
L 166.1923 77.685167 
L 167.5154 77.685167 
L 168.8385 77.685167 
L 170.1616 77.685167 
L 171.4847 77.685167 
L 172.8078 77.685167 
L 174.1309 77.685167 
L 175.454 77.685167 
L 176.7771 77.685167 
L 178.1002 78.245388 
L 179.4233 78.805609 
L 180.7464 78.805609 
L 182.0695 78.805609 
" clip-path="url(#p2019958315)" style="fill: none; stroke: #686868; stroke-width: 1.5; stroke-linecap: square"/>
   </g>
   <g id="line2d_18">
    <path d="M 49.7595 28.624 
L 51.0826 28.624 
L 52.4057 33.646198 
L 53.7288 52.57532 
L 55.0519 52.57532 
L 56.375 55.378147 
L 57.6981 56.626864 
L 59.0212 61.54781 
L 60.3443 61.54781 
L 61.6674 65.08917 
L 62.9905 65.08917 
L 64.3136 65.08917 
L 65.6367 65.08917 
L 66.9598 65.08917 
L 68.2829 66.769981 
L 69.606 69.42798 
L 70.9291 69.42798 
L 72.2522 69.42798 
L 73.5753 69.42798 
L 74.8984 74.500922 
L 76.2215 74.500922 
L 77.5446 74.756371 
L 78.8677 78.041586 
L 80.1908 78.041586 
L 81.5139 78.041586 
L 82.837 78.041586 
L 84.1601 78.041586 
L 85.4832 78.25347 
L 86.8063 78.25347 
L 88.1294 78.497644 
L 89.4525 78.497644 
L 90.7756 78.497644 
L 92.0987 78.497644 
L 93.4218 78.497644 
L 94.7449 78.497644 
L 96.068 78.497644 
L 97.3911 78.497644 
L 98.7142 78.497644 
L 100.0373 78.497644 
L 101.3604 78.497644 
L 102.6835 78.497644 
L 104.0066 78.497644 
L 105.3297 78.497644 
L 106.6528 78.497644 
L 107.9759 78.497644 
L 109.299 78.497644 
L 110.6221 78.497644 
L 111.9452 78.80685 
L 113.2683 78.80685 
L 114.5914 78.80685 
L 115.9145 78.80685 
L 117.2376 78.80685 
L 118.5607 81.486867 
L 119.8838 81.486867 
L 121.2069 81.613744 
L 122.53 81.613744 
L 123.8531 81.613744 
L 125.1762 81.613744 
L 126.4993 81.613744 
L 127.8224 82.054418 
L 129.1455 82.054418 
L 130.4686 82.054418 
L 131.7917 82.054418 
L 133.1148 82.054418 
L 134.4379 82.054418 
L 135.761 82.054418 
L 137.0841 82.054418 
L 138.4072 82.054418 
L 139.7303 82.054418 
L 141.0534 82.054418 
L 142.3765 82.054418 
L 143.6996 82.054418 
L 145.0227 82.054418 
L 146.3458 82.054418 
L 147.6689 82.054418 
L 148.992 82.281937 
L 150.3151 82.281937 
L 151.6382 82.281937 
L 152.9613 82.281937 
L 154.2844 82.281937 
L 155.6075 82.281937 
L 156.9306 82.281937 
L 158.2537 82.281937 
L 159.5768 82.899887 
L 160.8999 82.899887 
L 162.223 83.420909 
L 163.5461 83.420909 
L 164.8692 83.420909 
L 166.1923 83.666927 
L 167.5154 83.666927 
L 168.8385 83.666927 
L 170.1616 83.666927 
L 171.4847 83.666927 
L 172.8078 83.666927 
L 174.1309 83.666927 
L 175.454 83.666927 
L 176.7771 83.666927 
L 178.1002 83.666927 
L 179.4233 83.666927 
L 180.7464 83.666927 
L 182.0695 83.666927 
" clip-path="url(#p2019958315)" style="fill: none; stroke: #333333; stroke-width: 1.5; stroke-linecap: square"/>
   </g>
   <g id="line2d_19">
    <path d="M 49.7595 28.624 
L 51.0826 28.624 
L 52.4057 28.624 
L 53.7288 28.624 
L 55.0519 28.624 
L 56.375 28.624 
L 57.6981 28.624 
L 59.0212 28.624 
L 60.3443 28.624 
L 61.6674 28.624 
L 62.9905 28.624 
L 64.3136 29.483578 
L 65.6367 30.343155 
L 66.9598 31.202733 
L 68.2829 32.06231 
L 69.606 32.921888 
L 70.9291 33.781465 
L 72.2522 34.641043 
L 73.5753 35.500621 
L 74.8984 36.360198 
L 76.2215 37.219776 
L 77.5446 37.219776 
L 78.8677 37.219776 
L 80.1908 37.219776 
L 81.5139 37.219776 
L 82.837 37.219776 
L 84.1601 37.219776 
L 85.4832 37.219776 
L 86.8063 37.219776 
L 88.1294 37.219776 
L 89.4525 37.219776 
L 90.7756 37.219776 
L 92.0987 37.219776 
L 93.4218 37.219776 
L 94.7449 37.219776 
L 96.068 37.219776 
L 97.3911 37.219776 
L 98.7142 37.219776 
L 100.0373 37.219776 
L 101.3604 37.219776 
L 102.6835 37.219776 
L 104.0066 37.282272 
L 105.3297 37.344767 
L 106.6528 37.407263 
L 107.9759 37.469759 
L 109.299 37.532255 
L 110.6221 37.594751 
L 111.9452 37.657247 
L 113.2683 37.719743 
L 114.5914 37.782239 
L 115.9145 37.844734 
L 117.2376 38.085142 
L 118.5607 38.32555 
L 119.8838 38.565958 
L 121.2069 38.806366 
L 122.53 39.046774 
L 123.8531 39.287182 
L 125.1762 39.52759 
L 126.4993 39.767998 
L 127.8224 40.008406 
L 129.1455 40.248814 
L 130.4686 40.59428 
L 131.7917 40.939746 
L 133.1148 41.285212 
L 134.4379 41.630678 
L 135.761 41.976144 
L 137.0841 42.32161 
L 138.4072 42.667076 
L 139.7303 43.012542 
L 141.0534 43.358008 
L 142.3765 43.703474 
L 143.6996 43.792509 
L 145.0227 43.881545 
L 146.3458 43.970581 
L 147.6689 44.059616 
L 148.992 44.148652 
L 150.3151 44.237688 
L 151.6382 44.326723 
L 152.9613 44.415759 
L 154.2844 44.504795 
L 155.6075 44.59383 
L 156.9306 44.663141 
L 158.2537 44.732451 
L 159.5768 44.801761 
L 160.8999 44.871072 
L 162.223 44.940382 
L 163.5461 45.009692 
L 164.8692 45.079003 
L 166.1923 45.148313 
L 167.5154 45.217623 
L 168.8385 45.286934 
L 170.1616 45.31923 
L 171.4847 45.351526 
L 172.8078 45.383822 
L 174.1309 45.416117 
L 175.454 45.448413 
L 176.7771 45.480709 
L 178.1002 45.513005 
L 179.4233 45.545301 
L 180.7464 45.577597 
L 182.0695 45.609893 
" clip-path="url(#p2019958315)" style="fill: none; stroke: #fdd4c2; stroke-width: 1.5; stroke-linecap: square"/>
   </g>
   <g id="line2d_20">
    <path d="M 49.7595 28.624 
L 51.0826 28.624 
L 52.4057 28.624 
L 53.7288 28.624 
L 55.0519 28.624 
L 56.375 28.624 
L 57.6981 31.14958 
L 59.0212 33.675161 
L 60.3443 36.200741 
L 61.6674 38.726321 
L 62.9905 41.251902 
L 64.3136 41.251902 
L 65.6367 41.251902 
L 66.9598 41.251902 
L 68.2829 41.251902 
L 69.606 41.251902 
L 70.9291 41.251902 
L 72.2522 41.251902 
L 73.5753 41.251902 
L 74.8984 41.251902 
L 76.2215 41.251902 
L 77.5446 41.91407 
L 78.8677 42.576238 
L 80.1908 43.238406 
L 81.5139 43.900574 
L 82.837 44.562742 
L 84.1601 44.62063 
L 85.4832 44.678517 
L 86.8063 44.736405 
L 88.1294 44.794292 
L 89.4525 44.85218 
L 90.7756 44.85218 
L 92.0987 44.85218 
L 93.4218 44.85218 
L 94.7449 44.85218 
L 96.068 44.85218 
L 97.3911 44.85218 
L 98.7142 44.85218 
L 100.0373 44.85218 
L 101.3604 44.85218 
L 102.6835 44.85218 
L 104.0066 45.402821 
L 105.3297 45.953461 
L 106.6528 46.504102 
L 107.9759 47.054742 
L 109.299 47.605383 
L 110.6221 47.605383 
L 111.9452 47.605383 
L 113.2683 47.605383 
L 114.5914 47.605383 
L 115.9145 47.605383 
L 117.2376 47.605383 
L 118.5607 47.605383 
L 119.8838 47.605383 
L 121.2069 47.605383 
L 122.53 47.605383 
L 123.8531 47.776826 
L 125.1762 47.948269 
L 126.4993 48.119713 
L 127.8224 48.291156 
L 129.1455 48.462599 
L 130.4686 48.462599 
L 131.7917 48.462599 
L 133.1148 48.462599 
L 134.4379 48.462599 
L 135.761 48.462599 
L 137.0841 49.255358 
L 138.4072 50.048118 
L 139.7303 50.840877 
L 141.0534 51.633636 
L 142.3765 52.426396 
L 143.6996 52.469992 
L 145.0227 52.513588 
L 146.3458 52.557185 
L 147.6689 52.600781 
L 148.992 52.644378 
L 150.3151 52.644378 
L 151.6382 52.644378 
L 152.9613 52.644378 
L 154.2844 52.644378 
L 155.6075 52.644378 
L 156.9306 52.644378 
L 158.2537 52.644378 
L 159.5768 52.644378 
L 160.8999 52.644378 
L 162.223 52.644378 
L 163.5461 53.388904 
L 164.8692 54.13343 
L 166.1923 54.877957 
L 167.5154 55.622483 
L 168.8385 56.367009 
L 170.1616 56.742978 
L 171.4847 57.118946 
L 172.8078 57.494915 
L 174.1309 57.870883 
L 175.454 58.246852 
L 176.7771 58.246852 
L 178.1002 58.246852 
L 179.4233 58.246852 
L 180.7464 58.246852 
L 182.0695 58.246852 
" clip-path="url(#p2019958315)" style="fill: none; stroke: #fca082; stroke-width: 1.5; stroke-linecap: square"/>
   </g>
   <g id="line2d_21">
    <path d="M 49.7595 28.624 
L 51.0826 28.624 
L 52.4057 28.624 
L 53.7288 28.624 
L 55.0519 28.624 
L 56.375 32.800945 
L 57.6981 36.97789 
L 59.0212 41.154835 
L 60.3443 45.331779 
L 61.6674 46.610969 
L 62.9905 47.890159 
L 64.3136 49.169349 
L 65.6367 50.448538 
L 66.9598 50.448538 
L 68.2829 50.448538 
L 69.606 50.448538 
L 70.9291 50.448538 
L 72.2522 50.448538 
L 73.5753 50.448538 
L 74.8984 50.448538 
L 76.2215 50.448538 
L 77.5446 50.939625 
L 78.8677 51.430712 
L 80.1908 51.921799 
L 81.5139 52.412886 
L 82.837 52.92699 
L 84.1601 53.441094 
L 85.4832 53.955198 
L 86.8063 54.469302 
L 88.1294 54.519363 
L 89.4525 54.569424 
L 90.7756 54.619484 
L 92.0987 54.669545 
L 93.4218 54.669545 
L 94.7449 54.669545 
L 96.068 54.669545 
L 97.3911 54.669545 
L 98.7142 54.669545 
L 100.0373 54.669545 
L 101.3604 54.669545 
L 102.6835 54.669545 
L 104.0066 54.669545 
L 105.3297 54.669545 
L 106.6528 54.669545 
L 107.9759 54.669545 
L 109.299 54.669545 
L 110.6221 54.669545 
L 111.9452 54.669545 
L 113.2683 54.669545 
L 114.5914 54.669545 
L 115.9145 54.669545 
L 117.2376 54.669545 
L 118.5607 54.669545 
L 119.8838 54.987072 
L 121.2069 55.304598 
L 122.53 55.622125 
L 123.8531 55.939651 
L 125.1762 55.939651 
L 126.4993 55.939651 
L 127.8224 55.939651 
L 129.1455 55.939651 
L 130.4686 55.939651 
L 131.7917 55.939651 
L 133.1148 55.939651 
L 134.4379 55.939651 
L 135.761 55.956743 
L 137.0841 55.973835 
L 138.4072 55.990927 
L 139.7303 56.008018 
L 141.0534 56.444271 
L 142.3765 56.880524 
L 143.6996 57.316777 
L 145.0227 57.75303 
L 146.3458 57.75303 
L 147.6689 57.75303 
L 148.992 57.75303 
L 150.3151 57.75303 
L 151.6382 57.75303 
L 152.9613 57.75303 
L 154.2844 57.75303 
L 155.6075 57.75303 
L 156.9306 57.779032 
L 158.2537 57.805034 
L 159.5768 57.831036 
L 160.8999 57.857038 
L 162.223 57.857038 
L 163.5461 57.857038 
L 164.8692 57.857038 
L 166.1923 57.857038 
L 167.5154 60.519503 
L 168.8385 63.181967 
L 170.1616 65.844431 
L 171.4847 68.506896 
L 172.8078 68.506896 
L 174.1309 68.506896 
L 175.454 68.506896 
L 176.7771 68.506896 
L 178.1002 68.506896 
L 179.4233 68.506896 
L 180.7464 68.506896 
L 182.0695 68.506896 
" clip-path="url(#p2019958315)" style="fill: none; stroke: #fb694a; stroke-width: 1.5; stroke-linecap: square"/>
   </g>
   <g id="line2d_22">
    <path d="M 49.7595 28.624 
L 51.0826 28.624 
L 52.4057 28.624 
L 53.7288 33.321486 
L 55.0519 38.018971 
L 56.375 41.980905 
L 57.6981 45.94284 
L 59.0212 48.215345 
L 60.3443 50.487851 
L 61.6674 50.487851 
L 62.9905 50.487851 
L 64.3136 50.487851 
L 65.6367 50.487851 
L 66.9598 51.329004 
L 68.2829 52.170157 
L 69.606 52.170157 
L 70.9291 52.170157 
L 72.2522 57.774716 
L 73.5753 63.379275 
L 74.8984 63.379275 
L 76.2215 63.379275 
L 77.5446 63.379275 
L 78.8677 63.379275 
L 80.1908 64.353331 
L 81.5139 65.327388 
L 82.837 65.327388 
L 84.1601 65.327388 
L 85.4832 67.024429 
L 86.8063 68.721471 
L 88.1294 68.721471 
L 89.4525 68.721471 
L 90.7756 70.288141 
L 92.0987 71.854812 
L 93.4218 71.854812 
L 94.7449 71.854812 
L 96.068 71.999673 
L 97.3911 72.144534 
L 98.7142 74.663574 
L 100.0373 77.182614 
L 101.3604 77.182614 
L 102.6835 77.182614 
L 104.0066 77.182614 
L 105.3297 77.182614 
L 106.6528 77.182614 
L 107.9759 77.182614 
L 109.299 77.182614 
L 110.6221 77.182614 
L 111.9452 77.182614 
L 113.2683 77.182614 
L 114.5914 77.182614 
L 115.9145 77.182614 
L 117.2376 77.182614 
L 118.5607 77.182614 
L 119.8838 77.182614 
L 121.2069 77.182614 
L 122.53 77.182614 
L 123.8531 77.182614 
L 125.1762 77.182614 
L 126.4993 77.182614 
L 127.8224 77.182614 
L 129.1455 77.182614 
L 130.4686 77.182614 
L 131.7917 77.182614 
L 133.1148 77.182614 
L 134.4379 77.182614 
L 135.761 77.182614 
L 137.0841 77.182614 
L 138.4072 77.182614 
L 139.7303 77.182614 
L 141.0534 77.182614 
L 142.3765 77.182614 
L 143.6996 77.182614 
L 145.0227 77.182614 
L 146.3458 77.182614 
L 147.6689 77.182614 
L 148.992 77.182614 
L 150.3151 77.182614 
L 151.6382 77.182614 
L 152.9613 77.182614 
L 154.2844 77.182614 
L 155.6075 77.182614 
L 156.9306 77.182614 
L 158.2537 77.182614 
L 159.5768 77.182614 
L 160.8999 77.182614 
L 162.223 77.182614 
L 163.5461 77.182614 
L 164.8692 77.182614 
L 166.1923 77.182614 
L 167.5154 77.182614 
L 168.8385 77.182614 
L 170.1616 77.182614 
L 171.4847 77.182614 
L 172.8078 77.182614 
L 174.1309 77.182614 
L 175.454 77.182614 
L 176.7771 77.182614 
L 178.1002 77.182614 
L 179.4233 77.182614 
L 180.7464 77.182614 
L 182.0695 77.182614 
" clip-path="url(#p2019958315)" style="fill: none; stroke: #e32f27; stroke-width: 1.5; stroke-linecap: square"/>
   </g>
   <g id="line2d_23">
    <path d="M 49.7595 28.624 
L 51.0826 28.624 
L 52.4057 29.095244 
L 53.7288 30.515487 
L 55.0519 30.515487 
L 56.375 31.944867 
L 57.6981 31.944867 
L 59.0212 31.944867 
L 60.3443 32.835898 
L 61.6674 37.380221 
L 62.9905 37.380221 
L 64.3136 37.380221 
L 65.6367 37.380221 
L 66.9598 37.380221 
L 68.2829 42.963219 
L 69.606 53.799411 
L 70.9291 57.04002 
L 72.2522 61.052135 
L 73.5753 62.834643 
L 74.8984 62.834643 
L 76.2215 62.834643 
L 77.5446 62.834643 
L 78.8677 62.834643 
L 80.1908 62.834643 
L 81.5139 62.834643 
L 82.837 62.834643 
L 84.1601 62.834643 
L 85.4832 62.834643 
L 86.8063 64.397838 
L 88.1294 65.775352 
L 89.4525 65.775352 
L 90.7756 65.775352 
L 92.0987 65.775352 
L 93.4218 65.775352 
L 94.7449 65.775352 
L 96.068 65.775352 
L 97.3911 67.70882 
L 98.7142 67.947164 
L 100.0373 67.947164 
L 101.3604 67.947164 
L 102.6835 67.947164 
L 104.0066 67.947164 
L 105.3297 67.947164 
L 106.6528 67.947164 
L 107.9759 67.947164 
L 109.299 74.657547 
L 110.6221 74.657547 
L 111.9452 74.657547 
L 113.2683 74.657547 
L 114.5914 75.445607 
L 115.9145 75.445607 
L 117.2376 75.445607 
L 118.5607 75.445607 
L 119.8838 75.445607 
L 121.2069 75.445607 
L 122.53 75.445607 
L 123.8531 75.445607 
L 125.1762 75.445607 
L 126.4993 75.445607 
L 127.8224 75.445607 
L 129.1455 75.445607 
L 130.4686 75.445607 
L 131.7917 75.445607 
L 133.1148 75.445607 
L 134.4379 75.445607 
L 135.761 75.445607 
L 137.0841 75.445607 
L 138.4072 75.445607 
L 139.7303 75.445607 
L 141.0534 75.445607 
L 142.3765 75.445607 
L 143.6996 75.445607 
L 145.0227 75.445607 
L 146.3458 75.445607 
L 147.6689 75.445607 
L 148.992 75.445607 
L 150.3151 75.445607 
L 151.6382 75.445607 
L 152.9613 75.445607 
L 154.2844 75.445607 
L 155.6075 76.789738 
L 156.9306 76.789738 
L 158.2537 76.789738 
L 159.5768 76.789738 
L 160.8999 76.789738 
L 162.223 76.789738 
L 163.5461 76.789738 
L 164.8692 76.789738 
L 166.1923 76.789738 
L 167.5154 76.789738 
L 168.8385 76.817371 
L 170.1616 76.817371 
L 171.4847 76.817371 
L 172.8078 76.817371 
L 174.1309 76.817371 
L 175.454 76.817371 
L 176.7771 76.817371 
L 178.1002 76.817371 
L 179.4233 76.817371 
L 180.7464 76.817371 
L 182.0695 76.817371 
" clip-path="url(#p2019958315)" style="fill: none; stroke: #b11218; stroke-width: 1.5; stroke-linecap: square"/>
   </g>
   <g id="patch_3">
    <path d="M 43.144 92.296 
L 43.144 22.56 
" style="fill: none; stroke: #000000; stroke-width: 0.8; stroke-linejoin: miter; stroke-linecap: square"/>
   </g>
   <g id="patch_4">
    <path d="M 188.685 92.296 
L 188.685 22.56 
" style="fill: none; stroke: #000000; stroke-width: 0.8; stroke-linejoin: miter; stroke-linecap: square"/>
   </g>
   <g id="patch_5">
    <path d="M 43.144 92.296 
L 188.685 92.296 
" style="fill: none; stroke: #000000; stroke-width: 0.8; stroke-linejoin: miter; stroke-linecap: square"/>
   </g>
   <g id="patch_6">
    <path d="M 43.144 22.56 
L 188.685 22.56 
" style="fill: none; stroke: #000000; stroke-width: 0.8; stroke-linejoin: miter; stroke-linecap: square"/>
   </g>
   <g id="text_11">
    <!-- Normalized Regret ($\downarrow$) -->
    <g transform="translate(57.4145 16.56) scale(0.1 -0.1)">
     <defs>
      <path id="DejaVuSans-4e" d="M 628 4666 
L 1478 4666 
L 3547 763 
L 3547 4666 
L 4159 4666 
L 4159 0 
L 3309 0 
L 1241 3903 
L 1241 0 
L 628 0 
L 628 4666 
z
" transform="scale(0.015625)"/>
      <path id="DejaVuSans-6f" d="M 1959 3097 
Q 1497 3097 1228 2736 
Q 959 2375 959 1747 
Q 959 1119 1226 758 
Q 1494 397 1959 397 
Q 2419 397 2687 759 
Q 2956 1122 2956 1747 
Q 2956 2369 2687 2733 
Q 2419 3097 1959 3097 
z
M 1959 3584 
Q 2709 3584 3137 3096 
Q 3566 2609 3566 1747 
Q 3566 888 3137 398 
Q 2709 -91 1959 -91 
Q 1206 -91 779 398 
Q 353 888 353 1747 
Q 353 2609 779 3096 
Q 1206 3584 1959 3584 
z
" transform="scale(0.015625)"/>
      <path id="DejaVuSans-72" d="M 2631 2963 
Q 2534 3019 2420 3045 
Q 2306 3072 2169 3072 
Q 1681 3072 1420 2755 
Q 1159 2438 1159 1844 
L 1159 0 
L 581 0 
L 581 3500 
L 1159 3500 
L 1159 2956 
Q 1341 3275 1631 3429 
Q 1922 3584 2338 3584 
Q 2397 3584 2469 3576 
Q 2541 3569 2628 3553 
L 2631 2963 
z
" transform="scale(0.015625)"/>
      <path id="DejaVuSans-6d" d="M 3328 2828 
Q 3544 3216 3844 3400 
Q 4144 3584 4550 3584 
Q 5097 3584 5394 3201 
Q 5691 2819 5691 2113 
L 5691 0 
L 5113 0 
L 5113 2094 
Q 5113 2597 4934 2840 
Q 4756 3084 4391 3084 
Q 3944 3084 3684 2787 
Q 3425 2491 3425 1978 
L 3425 0 
L 2847 0 
L 2847 2094 
Q 2847 2600 2669 2842 
Q 2491 3084 2119 3084 
Q 1678 3084 1418 2786 
Q 1159 2488 1159 1978 
L 1159 0 
L 581 0 
L 581 3500 
L 1159 3500 
L 1159 2956 
Q 1356 3278 1631 3431 
Q 1906 3584 2284 3584 
Q 2666 3584 2933 3390 
Q 3200 3197 3328 2828 
z
" transform="scale(0.015625)"/>
      <path id="DejaVuSans-61" d="M 2194 1759 
Q 1497 1759 1228 1600 
Q 959 1441 959 1056 
Q 959 750 1161 570 
Q 1363 391 1709 391 
Q 2188 391 2477 730 
Q 2766 1069 2766 1631 
L 2766 1759 
L 2194 1759 
z
M 3341 1997 
L 3341 0 
L 2766 0 
L 2766 531 
Q 2569 213 2275 61 
Q 1981 -91 1556 -91 
Q 1019 -91 701 211 
Q 384 513 384 1019 
Q 384 1609 779 1909 
Q 1175 2209 1959 2209 
L 2766 2209 
L 2766 2266 
Q 2766 2663 2505 2880 
Q 2244 3097 1772 3097 
Q 1472 3097 1187 3025 
Q 903 2953 641 2809 
L 641 3341 
Q 956 3463 1253 3523 
Q 1550 3584 1831 3584 
Q 2591 3584 2966 3190 
Q 3341 2797 3341 1997 
z
" transform="scale(0.015625)"/>
      <path id="DejaVuSans-6c" d="M 603 4863 
L 1178 4863 
L 1178 0 
L 603 0 
L 603 4863 
z
" transform="scale(0.015625)"/>
      <path id="DejaVuSans-69" d="M 603 3500 
L 1178 3500 
L 1178 0 
L 603 0 
L 603 3500 
z
M 603 4863 
L 1178 4863 
L 1178 4134 
L 603 4134 
L 603 4863 
z
" transform="scale(0.015625)"/>
      <path id="DejaVuSans-7a" d="M 353 3500 
L 3084 3500 
L 3084 2975 
L 922 459 
L 3084 459 
L 3084 0 
L 275 0 
L 275 525 
L 2438 3041 
L 353 3041 
L 353 3500 
z
" transform="scale(0.015625)"/>
      <path id="DejaVuSans-65" d="M 3597 1894 
L 3597 1613 
L 953 1613 
Q 991 1019 1311 708 
Q 1631 397 2203 397 
Q 2534 397 2845 478 
Q 3156 559 3463 722 
L 3463 178 
Q 3153 47 2828 -22 
Q 2503 -91 2169 -91 
Q 1331 -91 842 396 
Q 353 884 353 1716 
Q 353 2575 817 3079 
Q 1281 3584 2069 3584 
Q 2775 3584 3186 3129 
Q 3597 2675 3597 1894 
z
M 3022 2063 
Q 3016 2534 2758 2815 
Q 2500 3097 2075 3097 
Q 1594 3097 1305 2825 
Q 1016 2553 972 2059 
L 3022 2063 
z
" transform="scale(0.015625)"/>
      <path id="DejaVuSans-64" d="M 2906 2969 
L 2906 4863 
L 3481 4863 
L 3481 0 
L 2906 0 
L 2906 525 
Q 2725 213 2448 61 
Q 2172 -91 1784 -91 
Q 1150 -91 751 415 
Q 353 922 353 1747 
Q 353 2572 751 3078 
Q 1150 3584 1784 3584 
Q 2172 3584 2448 3432 
Q 2725 3281 2906 2969 
z
M 947 1747 
Q 947 1113 1208 752 
Q 1469 391 1925 391 
Q 2381 391 2643 752 
Q 2906 1113 2906 1747 
Q 2906 2381 2643 2742 
Q 2381 3103 1925 3103 
Q 1469 3103 1208 2742 
Q 947 2381 947 1747 
z
" transform="scale(0.015625)"/>
      <path id="DejaVuSans-20" transform="scale(0.015625)"/>
      <path id="DejaVuSans-52" d="M 2841 2188 
Q 3044 2119 3236 1894 
Q 3428 1669 3622 1275 
L 4263 0 
L 3584 0 
L 2988 1197 
Q 2756 1666 2539 1819 
Q 2322 1972 1947 1972 
L 1259 1972 
L 1259 0 
L 628 0 
L 628 4666 
L 2053 4666 
Q 2853 4666 3247 4331 
Q 3641 3997 3641 3322 
Q 3641 2881 3436 2590 
Q 3231 2300 2841 2188 
z
M 1259 4147 
L 1259 2491 
L 2053 2491 
Q 2509 2491 2742 2702 
Q 2975 2913 2975 3322 
Q 2975 3731 2742 3939 
Q 2509 4147 2053 4147 
L 1259 4147 
z
" transform="scale(0.015625)"/>
      <path id="DejaVuSans-67" d="M 2906 1791 
Q 2906 2416 2648 2759 
Q 2391 3103 1925 3103 
Q 1463 3103 1205 2759 
Q 947 2416 947 1791 
Q 947 1169 1205 825 
Q 1463 481 1925 481 
Q 2391 481 2648 825 
Q 2906 1169 2906 1791 
z
M 3481 434 
Q 3481 -459 3084 -895 
Q 2688 -1331 1869 -1331 
Q 1566 -1331 1297 -1286 
Q 1028 -1241 775 -1147 
L 775 -588 
Q 1028 -725 1275 -790 
Q 1522 -856 1778 -856 
Q 2344 -856 2625 -561 
Q 2906 -266 2906 331 
L 2906 616 
Q 2728 306 2450 153 
Q 2172 0 1784 0 
Q 1141 0 747 490 
Q 353 981 353 1791 
Q 353 2603 747 3093 
Q 1141 3584 1784 3584 
Q 2172 3584 2450 3431 
Q 2728 3278 2906 2969 
L 2906 3500 
L 3481 3500 
L 3481 434 
z
" transform="scale(0.015625)"/>
      <path id="DejaVuSans-74" d="M 1172 4494 
L 1172 3500 
L 2356 3500 
L 2356 3053 
L 1172 3053 
L 1172 1153 
Q 1172 725 1289 603 
Q 1406 481 1766 481 
L 2356 481 
L 2356 0 
L 1766 0 
Q 1100 0 847 248 
Q 594 497 594 1153 
L 594 3053 
L 172 3053 
L 172 3500 
L 594 3500 
L 594 4494 
L 1172 4494 
z
" transform="scale(0.015625)"/>
      <path id="DejaVuSans-28" d="M 1984 4856 
Q 1566 4138 1362 3434 
Q 1159 2731 1159 2009 
Q 1159 1288 1364 580 
Q 1569 -128 1984 -844 
L 1484 -844 
Q 1016 -109 783 600 
Q 550 1309 550 2009 
Q 550 2706 781 3412 
Q 1013 4119 1484 4856 
L 1984 4856 
z
" transform="scale(0.015625)"/>
      <path id="DejaVuSans-2193" d="M 2822 -22 
L 2541 -22 
L 1309 1209 
L 1684 1584 
L 2416 853 
L 2416 4666 
L 2947 4666 
L 2947 853 
L 3672 1584 
L 4047 1209 
L 2822 -22 
z
" transform="scale(0.015625)"/>
      <path id="DejaVuSans-29" d="M 513 4856 
L 1013 4856 
Q 1481 4119 1714 3412 
Q 1947 2706 1947 2009 
Q 1947 1309 1714 600 
Q 1481 -109 1013 -844 
L 513 -844 
Q 928 -128 1133 580 
Q 1338 1288 1338 2009 
Q 1338 2731 1133 3434 
Q 928 4138 513 4856 
z
" transform="scale(0.015625)"/>
     </defs>
     <use xlink:href="#DejaVuSans-4e" transform="translate(0 0.015625)"/>
     <use xlink:href="#DejaVuSans-6f" transform="translate(74.804688 0.015625)"/>
     <use xlink:href="#DejaVuSans-72" transform="translate(135.986328 0.015625)"/>
     <use xlink:href="#DejaVuSans-6d" transform="translate(177.099609 0.015625)"/>
     <use xlink:href="#DejaVuSans-61" transform="translate(274.511719 0.015625)"/>
     <use xlink:href="#DejaVuSans-6c" transform="translate(335.791016 0.015625)"/>
     <use xlink:href="#DejaVuSans-69" transform="translate(363.574219 0.015625)"/>
     <use xlink:href="#DejaVuSans-7a" transform="translate(391.357422 0.015625)"/>
     <use xlink:href="#DejaVuSans-65" transform="translate(443.847656 0.015625)"/>
     <use xlink:href="#DejaVuSans-64" transform="translate(505.371094 0.015625)"/>
     <use xlink:href="#DejaVuSans-20" transform="translate(568.847656 0.015625)"/>
     <use xlink:href="#DejaVuSans-52" transform="translate(600.634766 0.015625)"/>
     <use xlink:href="#DejaVuSans-65" transform="translate(670.117188 0.015625)"/>
     <use xlink:href="#DejaVuSans-67" transform="translate(731.640625 0.015625)"/>
     <use xlink:href="#DejaVuSans-72" transform="translate(795.117188 0.015625)"/>
     <use xlink:href="#DejaVuSans-65" transform="translate(836.230469 0.015625)"/>
     <use xlink:href="#DejaVuSans-74" transform="translate(897.753906 0.015625)"/>
     <use xlink:href="#DejaVuSans-20" transform="translate(936.962891 0.015625)"/>
     <use xlink:href="#DejaVuSans-28" transform="translate(968.75 0.015625)"/>
     <use xlink:href="#DejaVuSans-2193" transform="translate(1027.246094 0.015625)"/>
     <use xlink:href="#DejaVuSans-29" transform="translate(1130.517578 0.015625)"/>
    </g>
   </g>
  </g>
 </g>
 <defs>
  <clipPath id="p2019958315">
   <rect x="43.144" y="22.56" width="145.541" height="69.736"/>
  </clipPath>
 </defs>
</svg>
