<?xml version="1.0" encoding="utf-8" standalone="no"?>
<!DOCTYPE svg PUBLIC "-//W3C//DTD SVG 1.1//EN"
  "http://www.w3.org/Graphics/SVG/1.1/DTD/svg11.dtd">
<svg xmlns:xlink="http://www.w3.org/1999/xlink" width="244.8pt" height="165.6pt" viewBox="0 0 244.8 165.6" xmlns="http://www.w3.org/2000/svg" version="1.1">
 <metadata>
  <rdf:RDF xmlns:dc="http://purl.org/dc/elements/1.1/" xmlns:cc="http://creativecommons.org/ns#" xmlns:rdf="http://www.w3.org/1999/02/22-rdf-syntax-ns#">
   <cc:Work>
    <dc:type rdf:resource="http://purl.org/dc/dcmitype/StillImage"/>
    <dc:date>2026-04-01T10:48:38.629240</dc:date>
    <dc:format>image/svg+xml</dc:format>
    <dc:creator>
     <cc:Agent>
      <dc:title>Matplotlib v3.8.0, https://matplotlib.org/</dc:title>
     </cc:Agent>
    </dc:creator>
   </cc:Work>
  </rdf:RDF>
 </metadata>
 <defs>
  <style type="text/css">*{stroke-linejoin: round; stroke-linecap: butt}</style>
 </defs>
 <g id="figure_1">
  <g id="patch_1">
   <path d="M 0 165.6 
L 244.8 165.6 
L 244.8 0 
L 0 0 
L 0 165.6 
z
" style="fill: none"/>
  </g>
  <g id="axes_1">
   <g id="patch_2">
    <path d="M 43.144 127.286 
L 154.69 127.286 
L 154.69 24.5285 
L 43.144 24.5285 
L 43.144 127.286 
z
" style="fill: none"/>
   </g>
   <g id="matplotlib.axis_1">
    <g id="xtick_1">
     <g id="line2d_1">
      <path d="M 50.926279 127.286 
L 50.926279 24.5285 
" clip-path="url(#pa68fb9e04c)" style="fill: none; stroke-dasharray: 1.85,0.8; stroke-dashoffset: 0; stroke: #b0b0b0; stroke-opacity: 0.3; stroke-width: 0.5"/>
     </g>
     <g id="line2d_2">
      <defs>
       <path id="m6a84f19639" d="M 0 0 
L 0 3.5 
" style="stroke: #000000; stroke-width: 0.8"/>
      </defs>
      <g>
       <use xlink:href="#m6a84f19639" x="50.926279" y="127.286" style="stroke: #000000; stroke-width: 0.8"/>
      </g>
     </g>
     <g id="text_1">
      <!-- 0.0 -->
      <g transform="translate(44.565029 140.36475) scale(0.08 -0.08)">
       <defs>
        <path id="DejaVuSans-30" d="M 2034 4250 
Q 1547 4250 1301 3770 
Q 1056 3291 1056 2328 
Q 1056 1369 1301 889 
Q 1547 409 2034 409 
Q 2525 409 2770 889 
Q 3016 1369 3016 2328 
Q 3016 3291 2770 3770 
Q 2525 4250 2034 4250 
z
M 2034 4750 
Q 2819 4750 3233 4129 
Q 3647 3509 3647 2328 
Q 3647 1150 3233 529 
Q 2819 -91 2034 -91 
Q 1250 -91 836 529 
Q 422 1150 422 2328 
Q 422 3509 836 4129 
Q 1250 4750 2034 4750 
z
" transform="scale(0.015625)"/>
        <path id="DejaVuSans-2e" d="M 684 794 
L 1344 794 
L 1344 0 
L 684 0 
L 684 794 
z
" transform="scale(0.015625)"/>
       </defs>
       <use xlink:href="#DejaVuSans-30"/>
       <use xlink:href="#DejaVuSans-2e" x="63.623047"/>
       <use xlink:href="#DejaVuSans-30" x="95.410156"/>
      </g>
     </g>
    </g>
    <g id="xtick_2">
     <g id="line2d_3">
      <path d="M 94.161163 127.286 
L 94.161163 24.5285 
" clip-path="url(#pa68fb9e04c)" style="fill: none; stroke-dasharray: 1.85,0.8; stroke-dashoffset: 0; stroke: #b0b0b0; stroke-opacity: 0.3; stroke-width: 0.5"/>
     </g>
     <g id="line2d_4">
      <g>
       <use xlink:href="#m6a84f19639" x="94.161163" y="127.286" style="stroke: #000000; stroke-width: 0.8"/>
      </g>
     </g>
     <g id="text_2">
      <!-- 0.5 -->
      <g transform="translate(87.799913 140.36475) scale(0.08 -0.08)">
       <defs>
        <path id="DejaVuSans-35" d="M 691 4666 
L 3169 4666 
L 3169 4134 
L 1269 4134 
L 1269 2991 
Q 1406 3038 1543 3061 
Q 1681 3084 1819 3084 
Q 2600 3084 3056 2656 
Q 3513 2228 3513 1497 
Q 3513 744 3044 326 
Q 2575 -91 1722 -91 
Q 1428 -91 1123 -41 
Q 819 9 494 109 
L 494 744 
Q 775 591 1075 516 
Q 1375 441 1709 441 
Q 2250 441 2565 725 
Q 2881 1009 2881 1497 
Q 2881 1984 2565 2268 
Q 2250 2553 1709 2553 
Q 1456 2553 1204 2497 
Q 953 2441 691 2322 
L 691 4666 
z
" transform="scale(0.015625)"/>
       </defs>
       <use xlink:href="#DejaVuSans-30"/>
       <use xlink:href="#DejaVuSans-2e" x="63.623047"/>
       <use xlink:href="#DejaVuSans-35" x="95.410156"/>
      </g>
     </g>
    </g>
    <g id="xtick_3">
     <g id="line2d_5">
      <path d="M 137.396047 127.286 
L 137.396047 24.5285 
" clip-path="url(#pa68fb9e04c)" style="fill: none; stroke-dasharray: 1.85,0.8; stroke-dashoffset: 0; stroke: #b0b0b0; stroke-opacity: 0.3; stroke-width: 0.5"/>
     </g>
     <g id="line2d_6">
      <g>
       <use xlink:href="#m6a84f19639" x="137.396047" y="127.286" style="stroke: #000000; stroke-width: 0.8"/>
      </g>
     </g>
     <g id="text_3">
      <!-- 1.0 -->
      <g transform="translate(131.034797 140.36475) scale(0.08 -0.08)">
       <defs>
        <path id="DejaVuSans-31" d="M 794 531 
L 1825 531 
L 1825 4091 
L 703 3866 
L 703 4441 
L 1819 4666 
L 2450 4666 
L 2450 531 
L 3481 531 
L 3481 0 
L 794 0 
L 794 531 
z
" transform="scale(0.015625)"/>
       </defs>
       <use xlink:href="#DejaVuSans-31"/>
       <use xlink:href="#DejaVuSans-2e" x="63.623047"/>
       <use xlink:href="#DejaVuSans-30" x="95.410156"/>
      </g>
     </g>
    </g>
    <g id="text_4">
     <!-- $\tilde{r}_t$ -->
     <g transform="translate(95.267 153.948813) scale(0.1 -0.1)">
      <defs>
       <path id="DejaVuSans-303" d="M -1619 4281 
L -1797 4453 
Q -1866 4516 -1917 4545 
Q -1969 4575 -2009 4575 
Q -2128 4575 -2184 4461 
Q -2241 4347 -2247 4091 
L -2638 4091 
Q -2631 4513 -2472 4742 
Q -2313 4972 -2028 4972 
Q -1909 4972 -1809 4928 
Q -1709 4884 -1594 4781 
L -1416 4609 
Q -1347 4547 -1295 4517 
Q -1244 4488 -1203 4488 
Q -1084 4488 -1028 4602 
Q -972 4716 -966 4972 
L -575 4972 
Q -581 4550 -740 4320 
Q -900 4091 -1184 4091 
Q -1303 4091 -1403 4134 
Q -1503 4178 -1619 4281 
z
" transform="scale(0.015625)"/>
       <path id="DejaVuSans-Oblique-72" d="M 2853 2969 
Q 2766 3016 2653 3041 
Q 2541 3066 2413 3066 
Q 1953 3066 1609 2717 
Q 1266 2369 1153 1784 
L 800 0 
L 225 0 
L 909 3500 
L 1484 3500 
L 1375 2956 
Q 1603 3259 1920 3421 
Q 2238 3584 2597 3584 
Q 2691 3584 2781 3573 
Q 2872 3563 2963 3538 
L 2853 2969 
z
" transform="scale(0.015625)"/>
       <path id="DejaVuSans-Oblique-74" d="M 2706 3500 
L 2619 3053 
L 1472 3053 
L 1100 1153 
Q 1081 1047 1072 975 
Q 1063 903 1063 863 
Q 1063 663 1183 572 
Q 1303 481 1569 481 
L 2150 481 
L 2053 0 
L 1503 0 
Q 991 0 739 200 
Q 488 400 488 806 
Q 488 878 497 964 
Q 506 1050 525 1153 
L 897 3053 
L 409 3053 
L 500 3500 
L 978 3500 
L 1172 4494 
L 1747 4494 
L 1556 3500 
L 2706 3500 
z
" transform="scale(0.015625)"/>
      </defs>
      <use xlink:href="#DejaVuSans-303" transform="translate(50.49707 5.3125)"/>
      <use xlink:href="#DejaVuSans-Oblique-72" transform="translate(0 0.734375)"/>
      <use xlink:href="#DejaVuSans-Oblique-74" transform="translate(42.070312 -15.671875) scale(0.7)"/>
     </g>
    </g>
   </g>
   <g id="matplotlib.axis_2">
    <g id="ytick_1">
     <g id="line2d_7">
      <path d="M 43.144 123.247496 
L 154.69 123.247496 
" clip-path="url(#pa68fb9e04c)" style="fill: none; stroke-dasharray: 1.85,0.8; stroke-dashoffset: 0; stroke: #b0b0b0; stroke-opacity: 0.3; stroke-width: 0.5"/>
     </g>
     <g id="line2d_8">
      <defs>
       <path id="mee1a934040" d="M 0 0 
L -3.5 0 
" style="stroke: #000000; stroke-width: 0.8"/>
      </defs>
      <g>
       <use xlink:href="#mee1a934040" x="43.144" y="123.247496" style="stroke: #000000; stroke-width: 0.8"/>
      </g>
     </g>
     <g id="text_5">
      <!-- 0.0 -->
      <g transform="translate(23.4215 126.286871) scale(0.08 -0.08)">
       <use xlink:href="#DejaVuSans-30"/>
       <use xlink:href="#DejaVuSans-2e" x="63.623047"/>
       <use xlink:href="#DejaVuSans-30" x="95.410156"/>
      </g>
     </g>
    </g>
    <g id="ytick_2">
     <g id="line2d_9">
      <path d="M 43.144 100.81136 
L 154.69 100.81136 
" clip-path="url(#pa68fb9e04c)" style="fill: none; stroke-dasharray: 1.85,0.8; stroke-dashoffset: 0; stroke: #b0b0b0; stroke-opacity: 0.3; stroke-width: 0.5"/>
     </g>
     <g id="line2d_10">
      <g>
       <use xlink:href="#mee1a934040" x="43.144" y="100.81136" style="stroke: #000000; stroke-width: 0.8"/>
      </g>
     </g>
     <g id="text_6">
      <!-- 0.5 -->
      <g transform="translate(23.4215 103.850735) scale(0.08 -0.08)">
       <use xlink:href="#DejaVuSans-30"/>
       <use xlink:href="#DejaVuSans-2e" x="63.623047"/>
       <use xlink:href="#DejaVuSans-35" x="95.410156"/>
      </g>
     </g>
    </g>
    <g id="ytick_3">
     <g id="line2d_11">
      <path d="M 43.144 78.375225 
L 154.69 78.375225 
" clip-path="url(#pa68fb9e04c)" style="fill: none; stroke-dasharray: 1.85,0.8; stroke-dashoffset: 0; stroke: #b0b0b0; stroke-opacity: 0.3; stroke-width: 0.5"/>
     </g>
     <g id="line2d_12">
      <g>
       <use xlink:href="#mee1a934040" x="43.144" y="78.375225" style="stroke: #000000; stroke-width: 0.8"/>
      </g>
     </g>
     <g id="text_7">
      <!-- 1.0 -->
      <g transform="translate(23.4215 81.4146) scale(0.08 -0.08)">
       <use xlink:href="#DejaVuSans-31"/>
       <use xlink:href="#DejaVuSans-2e" x="63.623047"/>
       <use xlink:href="#DejaVuSans-30" x="95.410156"/>
      </g>
     </g>
    </g>
    <g id="ytick_4">
     <g id="line2d_13">
      <path d="M 43.144 55.93909 
L 154.69 55.93909 
" clip-path="url(#pa68fb9e04c)" style="fill: none; stroke-dasharray: 1.85,0.8; stroke-dashoffset: 0; stroke: #b0b0b0; stroke-opacity: 0.3; stroke-width: 0.5"/>
     </g>
     <g id="line2d_14">
      <g>
       <use xlink:href="#mee1a934040" x="43.144" y="55.93909" style="stroke: #000000; stroke-width: 0.8"/>
      </g>
     </g>
     <g id="text_8">
      <!-- 1.5 -->
      <g transform="translate(23.4215 58.978465) scale(0.08 -0.08)">
       <use xlink:href="#DejaVuSans-31"/>
       <use xlink:href="#DejaVuSans-2e" x="63.623047"/>
       <use xlink:href="#DejaVuSans-35" x="95.410156"/>
      </g>
     </g>
    </g>
    <g id="ytick_5">
     <g id="line2d_15">
      <path d="M 43.144 33.502954 
L 154.69 33.502954 
" clip-path="url(#pa68fb9e04c)" style="fill: none; stroke-dasharray: 1.85,0.8; stroke-dashoffset: 0; stroke: #b0b0b0; stroke-opacity: 0.3; stroke-width: 0.5"/>
     </g>
     <g id="line2d_16">
      <g>
       <use xlink:href="#mee1a934040" x="43.144" y="33.502954" style="stroke: #000000; stroke-width: 0.8"/>
      </g>
     </g>
     <g id="text_9">
      <!-- 2.0 -->
      <g transform="translate(23.4215 36.542329) scale(0.08 -0.08)">
       <defs>
        <path id="DejaVuSans-32" d="M 1228 531 
L 3431 531 
L 3431 0 
L 469 0 
L 469 531 
Q 828 903 1448 1529 
Q 2069 2156 2228 2338 
Q 2531 2678 2651 2914 
Q 2772 3150 2772 3378 
Q 2772 3750 2511 3984 
Q 2250 4219 1831 4219 
Q 1534 4219 1204 4116 
Q 875 4013 500 3803 
L 500 4441 
Q 881 4594 1212 4672 
Q 1544 4750 1819 4750 
Q 2544 4750 2975 4387 
Q 3406 4025 3406 3419 
Q 3406 3131 3298 2873 
Q 3191 2616 2906 2266 
Q 2828 2175 2409 1742 
Q 1991 1309 1228 531 
z
" transform="scale(0.015625)"/>
       </defs>
       <use xlink:href="#DejaVuSans-32"/>
       <use xlink:href="#DejaVuSans-2e" x="63.623047"/>
       <use xlink:href="#DejaVuSans-30" x="95.410156"/>
      </g>
     </g>
    </g>
    <g id="text_10">
     <!-- $\tilde{\varepsilon}_t$ -->
     <g transform="translate(17.341812 80.20725) rotate(-90) scale(0.1 -0.1)">
      <defs>
       <path id="DejaVuSans-Oblique-3b5" d="M 1263 1888 
Q 925 1963 778 2166 
Q 669 2309 669 2503 
Q 669 3034 1175 3344 
Q 1575 3588 2188 3588 
Q 2425 3588 2684 3550 
Q 2944 3513 3234 3438 
L 3134 2916 
Q 2847 3006 2606 3047 
Q 2359 3088 2138 3088 
Q 1766 3088 1522 2944 
Q 1228 2772 1228 2522 
Q 1228 2356 1381 2241 
Q 1563 2103 1925 2103 
L 2409 2103 
L 2319 1628 
L 1856 1628 
Q 1425 1628 1172 1469 
Q 828 1253 828 916 
Q 828 703 1013 563 
Q 1244 388 1716 388 
Q 2006 388 2284 444 
Q 2563 503 2806 619 
L 2700 84 
Q 2403 -3 2131 -47 
Q 1859 -91 1609 -91 
Q 866 -91 516 194 
Q 250 413 250 781 
Q 250 1278 600 1584 
Q 859 1813 1263 1888 
z
" transform="scale(0.015625)"/>
      </defs>
      <use xlink:href="#DejaVuSans-303" transform="translate(58.731934 5.3125)"/>
      <use xlink:href="#DejaVuSans-Oblique-3b5" transform="translate(0 0.671875)"/>
      <use xlink:href="#DejaVuSans-Oblique-74" transform="translate(55.009766 -15.734375) scale(0.7)"/>
     </g>
    </g>
   </g>
   <g id="line2d_17">
    <path d="M 137.396047 78.375225 
L 129.320987 78.004065 
L 94.429048 77.959724 
L 74.880293 79.996799 
L 66.801935 85.274209 
L 65.224759 89.017813 
L 65.098412 91.39631 
L 63.018603 93.536836 
L 61.994678 94.717756 
L 61.156058 95.911426 
L 59.876987 97.229552 
L 59.792786 97.802736 
L 59.641913 98.24202 
L 58.872763 99.090835 
L 57.584791 99.612288 
L 57.499267 99.572776 
L 57.499267 100.302019 
L 57.499267 100.704145 
L 57.499267 100.952112 
L 56.958808 101.053613 
L 55.243492 100.859873 
" clip-path="url(#pa68fb9e04c)" style="fill: none; stroke: #6caed6; stroke-opacity: 0.5; stroke-width: 1.5; stroke-linecap: square"/>
   </g>
   <g id="line2d_18">
    <path d="M 137.396047 78.375225 
L 116.504541 70.636807 
L 100.268242 57.106069 
L 90.306915 48.868818 
L 82.142236 47.591186 
L 76.789819 41.931905 
L 74.442659 43.609809 
L 68.277443 49.382342 
L 64.07348 51.261171 
L 63.209108 57.434052 
L 61.834392 65.123248 
L 61.723357 68.687241 
L 61.286128 70.33111 
L 61.166919 73.194582 
L 60.622284 76.851756 
L 60.622284 76.320522 
L 60.335439 76.978454 
L 60.228356 77.315162 
L 60.185436 78.375009 
L 60.10066 78.335521 
L 59.289875 82.422624 
" clip-path="url(#pa68fb9e04c)" style="fill: none; stroke: #d94801; stroke-opacity: 0.5; stroke-width: 1.5; stroke-linecap: square"/>
   </g>
   <g id="line2d_19">
    <path d="M 137.396047 78.375225 
L 137.396047 78.375225 
L 128.198753 77.200177 
L 124.165717 78.281262 
L 113.582854 79.17797 
L 108.972952 80.412172 
L 107.122438 81.535947 
L 90.74854 81.990664 
L 81.721696 84.341084 
L 79.633768 86.942779 
L 78.629759 87.98836 
L 67.79049 87.796406 
L 67.724292 87.994877 
L 66.162645 88.616255 
L 63.53107 89.302597 
L 63.454978 89.643118 
L 63.454978 90.573726 
L 63.454029 91.274624 
L 63.454029 91.751985 
L 63.454029 92.683689 
L 63.454029 93.429865 
" clip-path="url(#pa68fb9e04c)" style="fill: none; stroke: #fdd1a3; stroke-opacity: 0.5; stroke-width: 1.5; stroke-linecap: square"/>
   </g>
   <g id="line2d_20">
    <path d="M 137.396047 78.375225 
L 121.300607 79.030217 
L 110.103034 78.846721 
L 100.814331 73.240675 
L 96.014073 69.453839 
L 88.85492 63.611565 
L 87.863855 60.744721 
L 81.293409 57.041141 
L 76.09096 53.148956 
L 73.885753 50.654396 
L 73.885753 45.40139 
L 68.747952 43.57728 
L 65.367591 39.435899 
L 65.367591 36.266623 
L 65.367591 33.888058 
L 64.433672 32.477478 
L 61.88597 31.731952 
L 61.495562 30.133316 
L 61.495562 29.094709 
L 61.495562 28.608883 
L 60.686158 27.834621 
" clip-path="url(#pa68fb9e04c)" style="fill: none; stroke: #525252; stroke-opacity: 0.5; stroke-width: 1.5; stroke-linecap: square"/>
   </g>
   <g id="line2d_21">
    <path d="M 137.396047 78.375225 
L 137.396047 82.898639 
L 108.860365 80.58334 
L 96.191015 76.39183 
L 87.283879 74.866316 
L 84.486966 72.259057 
L 75.920458 66.37023 
L 73.339558 62.42243 
L 73.001275 60.337254 
L 70.66423 57.097687 
L 68.284792 57.092919 
L 65.641454 56.5497 
L 64.53769 56.046532 
L 63.673488 55.438342 
L 63.673488 55.119692 
L 63.673488 54.334452 
L 63.673488 54.88982 
L 63.673488 54.097263 
L 63.673488 53.446321 
L 61.941967 53.422466 
L 60.177523 53.197213 
" clip-path="url(#pa68fb9e04c)" style="fill: none; stroke: #979797; stroke-opacity: 0.5; stroke-width: 1.5; stroke-linecap: square"/>
   </g>
   <g id="line2d_22">
    <path d="M 137.396047 78.375225 
L 137.396047 78.375225 
L 128.414779 80.151293 
L 114.541798 78.788996 
L 97.063435 75.424395 
L 89.333317 74.459925 
L 88.211143 69.242999 
L 84.902504 69.282742 
L 84.902504 67.628838 
L 81.531383 64.496479 
L 79.134037 65.597727 
L 78.796462 64.708938 
L 78.796462 63.360247 
L 76.646608 62.229202 
L 75.84994 60.703241 
L 72.788944 60.491794 
L 72.788944 60.516042 
L 72.788944 59.347403 
L 71.248606 59.741329 
L 71.248606 58.917638 
L 71.248606 58.607063 
" clip-path="url(#pa68fb9e04c)" style="fill: none; stroke: #dadada; stroke-opacity: 0.5; stroke-width: 1.5; stroke-linecap: square"/>
   </g>
   <g id="line2d_23"/>
   <g id="line2d_24"/>
   <g id="line2d_25"/>
   <g id="line2d_26"/>
   <g id="line2d_27"/>
   <g id="line2d_28"/>
   <g id="line2d_29"/>
   <g id="line2d_30"/>
   <g id="line2d_31"/>
   <g id="patch_3">
    <path d="M 43.144 127.286 
L 43.144 24.5285 
" style="fill: none; stroke: #000000; stroke-width: 0.8; stroke-linejoin: miter; stroke-linecap: square"/>
   </g>
   <g id="patch_4">
    <path d="M 154.69 127.286 
L 154.69 24.5285 
" style="fill: none; stroke: #000000; stroke-width: 0.8; stroke-linejoin: miter; stroke-linecap: square"/>
   </g>
   <g id="patch_5">
    <path d="M 43.144 127.286 
L 154.69 127.286 
" style="fill: none; stroke: #000000; stroke-width: 0.8; stroke-linejoin: miter; stroke-linecap: square"/>
   </g>
   <g id="patch_6">
    <path d="M 43.144 24.5285 
L 154.69 24.5285 
" style="fill: none; stroke: #000000; stroke-width: 0.8; stroke-linejoin: miter; stroke-linecap: square"/>
   </g>
   <g id="text_11">
    <!-- $\langle \widetilde{S}_{\mathrm{Pareto}} \rangle$ -->
    <g transform="translate(80.267 18.5285) scale(0.1 -0.1)">
     <defs>
      <path id="DejaVuSans-27e8" d="M 572 2006 
L 1453 4856 
L 1984 4856 
L 1103 2006 
L 1984 -844 
L 1453 -844 
L 572 2006 
z
" transform="scale(0.015625)"/>
      <path id="STIXSizeTwoSym-Regular-303" d="M -1274 4864 
L -1107 4864 
Q -1280 3891 -2560 3891 
Q -2861 3891 -3097 3916 
Q -3334 3942 -3484 3974 
Q -3635 4006 -4044 4102 
Q -4454 4198 -4806 4275 
Q -5741 4474 -6093 4474 
Q -7021 4474 -7206 3891 
L -7373 3891 
Q -7200 4864 -5997 4864 
Q -5414 4864 -3718 4474 
Q -2842 4269 -2400 4269 
Q -1421 4269 -1274 4864 
z
" transform="scale(0.015625)"/>
      <path id="DejaVuSans-Oblique-53" d="M 3859 4513 
L 3738 3897 
Q 3422 4066 3111 4152 
Q 2800 4238 2509 4238 
Q 1944 4238 1609 3991 
Q 1275 3744 1275 3334 
Q 1275 3109 1398 2989 
Q 1522 2869 2034 2731 
L 2413 2638 
Q 3053 2472 3303 2217 
Q 3553 1963 3553 1503 
Q 3553 797 2998 353 
Q 2444 -91 1538 -91 
Q 1166 -91 791 -17 
Q 416 56 38 206 
L 166 856 
Q 513 641 861 531 
Q 1209 422 1556 422 
Q 2147 422 2503 684 
Q 2859 947 2859 1369 
Q 2859 1650 2717 1795 
Q 2575 1941 2106 2059 
L 1728 2156 
Q 1081 2325 845 2545 
Q 609 2766 609 3163 
Q 609 3859 1145 4304 
Q 1681 4750 2541 4750 
Q 2875 4750 3203 4690 
Q 3531 4631 3859 4513 
z
" transform="scale(0.015625)"/>
      <path id="DejaVuSans-50" d="M 1259 4147 
L 1259 2394 
L 2053 2394 
Q 2494 2394 2734 2622 
Q 2975 2850 2975 3272 
Q 2975 3691 2734 3919 
Q 2494 4147 2053 4147 
L 1259 4147 
z
M 628 4666 
L 2053 4666 
Q 2838 4666 3239 4311 
Q 3641 3956 3641 3272 
Q 3641 2581 3239 2228 
Q 2838 1875 2053 1875 
L 1259 1875 
L 1259 0 
L 628 0 
L 628 4666 
z
" transform="scale(0.015625)"/>
      <path id="DejaVuSans-61" d="M 2194 1759 
Q 1497 1759 1228 1600 
Q 959 1441 959 1056 
Q 959 750 1161 570 
Q 1363 391 1709 391 
Q 2188 391 2477 730 
Q 2766 1069 2766 1631 
L 2766 1759 
L 2194 1759 
z
M 3341 1997 
L 3341 0 
L 2766 0 
L 2766 531 
Q 2569 213 2275 61 
Q 1981 -91 1556 -91 
Q 1019 -91 701 211 
Q 384 513 384 1019 
Q 384 1609 779 1909 
Q 1175 2209 1959 2209 
L 2766 2209 
L 2766 2266 
Q 2766 2663 2505 2880 
Q 2244 3097 1772 3097 
Q 1472 3097 1187 3025 
Q 903 2953 641 2809 
L 641 3341 
Q 956 3463 1253 3523 
Q 1550 3584 1831 3584 
Q 2591 3584 2966 3190 
Q 3341 2797 3341 1997 
z
" transform="scale(0.015625)"/>
      <path id="DejaVuSans-72" d="M 2631 2963 
Q 2534 3019 2420 3045 
Q 2306 3072 2169 3072 
Q 1681 3072 1420 2755 
Q 1159 2438 1159 1844 
L 1159 0 
L 581 0 
L 581 3500 
L 1159 3500 
L 1159 2956 
Q 1341 3275 1631 3429 
Q 1922 3584 2338 3584 
Q 2397 3584 2469 3576 
Q 2541 3569 2628 3553 
L 2631 2963 
z
" transform="scale(0.015625)"/>
      <path id="DejaVuSans-65" d="M 3597 1894 
L 3597 1613 
L 953 1613 
Q 991 1019 1311 708 
Q 1631 397 2203 397 
Q 2534 397 2845 478 
Q 3156 559 3463 722 
L 3463 178 
Q 3153 47 2828 -22 
Q 2503 -91 2169 -91 
Q 1331 -91 842 396 
Q 353 884 353 1716 
Q 353 2575 817 3079 
Q 1281 3584 2069 3584 
Q 2775 3584 3186 3129 
Q 3597 2675 3597 1894 
z
M 3022 2063 
Q 3016 2534 2758 2815 
Q 2500 3097 2075 3097 
Q 1594 3097 1305 2825 
Q 1016 2553 972 2059 
L 3022 2063 
z
" transform="scale(0.015625)"/>
      <path id="DejaVuSans-74" d="M 1172 4494 
L 1172 3500 
L 2356 3500 
L 2356 3053 
L 1172 3053 
L 1172 1153 
Q 1172 725 1289 603 
Q 1406 481 1766 481 
L 2356 481 
L 2356 0 
L 1766 0 
Q 1100 0 847 248 
Q 594 497 594 1153 
L 594 3053 
L 172 3053 
L 172 3500 
L 594 3500 
L 594 4494 
L 1172 4494 
z
" transform="scale(0.015625)"/>
      <path id="DejaVuSans-6f" d="M 1959 3097 
Q 1497 3097 1228 2736 
Q 959 2375 959 1747 
Q 959 1119 1226 758 
Q 1494 397 1959 397 
Q 2419 397 2687 759 
Q 2956 1122 2956 1747 
Q 2956 2369 2687 2733 
Q 2419 3097 1959 3097 
z
M 1959 3584 
Q 2709 3584 3137 3096 
Q 3566 2609 3566 1747 
Q 3566 888 3137 398 
Q 2709 -91 1959 -91 
Q 1206 -91 779 398 
Q 353 888 353 1747 
Q 353 2609 779 3096 
Q 1206 3584 1959 3584 
z
" transform="scale(0.015625)"/>
      <path id="DejaVuSans-27e9" d="M 1925 2006 
L 1044 -844 
L 513 -844 
L 1394 2006 
L 513 4856 
L 1044 4856 
L 1925 2006 
z
" transform="scale(0.015625)"/>
     </defs>
     <use xlink:href="#DejaVuSans-27e8" transform="translate(0 0.4375)"/>
     <use xlink:href="#STIXSizeTwoSym-Regular-303" transform="translate(121.570312 47.734375) scale(0.64834)"/>
     <use xlink:href="#DejaVuSans-Oblique-53" transform="translate(39.013672 0.4375)"/>
     <use xlink:href="#DejaVuSans-50" transform="translate(103.447266 -15.96875) scale(0.7)"/>
     <use xlink:href="#DejaVuSans-61" transform="translate(145.65918 -15.96875) scale(0.7)"/>
     <use xlink:href="#DejaVuSans-72" transform="translate(188.554688 -15.96875) scale(0.7)"/>
     <use xlink:href="#DejaVuSans-65" transform="translate(217.333984 -15.96875) scale(0.7)"/>
     <use xlink:href="#DejaVuSans-74" transform="translate(260.400391 -15.96875) scale(0.7)"/>
     <use xlink:href="#DejaVuSans-6f" transform="translate(287.84668 -15.96875) scale(0.7)"/>
     <use xlink:href="#DejaVuSans-27e9" transform="translate(333.408203 0.4375)"/>
    </g>
   </g>
   <g id="legend_1">
    <g id="patch_7">
     <path d="M 159.59 128.814594 
L 234.759062 128.814594 
Q 236.159063 128.814594 236.159063 127.414594 
L 236.159063 24.399906 
Q 236.159063 22.999906 234.759062 22.999906 
L 159.59 22.999906 
Q 158.19 22.999906 158.19 24.399906 
L 158.19 127.414594 
Q 158.19 128.814594 159.59 128.814594 
z
" style="fill: #ffffff; opacity: 0.8; stroke: #cccccc; stroke-linejoin: miter"/>
    </g>
    <g id="text_12">
     <!-- Ranking top-9 -->
     <g transform="translate(169.182656 31.878656) scale(0.08 -0.08)">
      <defs>
       <path id="DejaVuSans-52" d="M 2841 2188 
Q 3044 2119 3236 1894 
Q 3428 1669 3622 1275 
L 4263 0 
L 3584 0 
L 2988 1197 
Q 2756 1666 2539 1819 
Q 2322 1972 1947 1972 
L 1259 1972 
L 1259 0 
L 628 0 
L 628 4666 
L 2053 4666 
Q 2853 4666 3247 4331 
Q 3641 3997 3641 3322 
Q 3641 2881 3436 2590 
Q 3231 2300 2841 2188 
z
M 1259 4147 
L 1259 2491 
L 2053 2491 
Q 2509 2491 2742 2702 
Q 2975 2913 2975 3322 
Q 2975 3731 2742 3939 
Q 2509 4147 2053 4147 
L 1259 4147 
z
" transform="scale(0.015625)"/>
       <path id="DejaVuSans-6e" d="M 3513 2113 
L 3513 0 
L 2938 0 
L 2938 2094 
Q 2938 2591 2744 2837 
Q 2550 3084 2163 3084 
Q 1697 3084 1428 2787 
Q 1159 2491 1159 1978 
L 1159 0 
L 581 0 
L 581 3500 
L 1159 3500 
L 1159 2956 
Q 1366 3272 1645 3428 
Q 1925 3584 2291 3584 
Q 2894 3584 3203 3211 
Q 3513 2838 3513 2113 
z
" transform="scale(0.015625)"/>
       <path id="DejaVuSans-6b" d="M 581 4863 
L 1159 4863 
L 1159 1991 
L 2875 3500 
L 3609 3500 
L 1753 1863 
L 3688 0 
L 2938 0 
L 1159 1709 
L 1159 0 
L 581 0 
L 581 4863 
z
" transform="scale(0.015625)"/>
       <path id="DejaVuSans-69" d="M 603 3500 
L 1178 3500 
L 1178 0 
L 603 0 
L 603 3500 
z
M 603 4863 
L 1178 4863 
L 1178 4134 
L 603 4134 
L 603 4863 
z
" transform="scale(0.015625)"/>
       <path id="DejaVuSans-67" d="M 2906 1791 
Q 2906 2416 2648 2759 
Q 2391 3103 1925 3103 
Q 1463 3103 1205 2759 
Q 947 2416 947 1791 
Q 947 1169 1205 825 
Q 1463 481 1925 481 
Q 2391 481 2648 825 
Q 2906 1169 2906 1791 
z
M 3481 434 
Q 3481 -459 3084 -895 
Q 2688 -1331 1869 -1331 
Q 1566 -1331 1297 -1286 
Q 1028 -1241 775 -1147 
L 775 -588 
Q 1028 -725 1275 -790 
Q 1522 -856 1778 -856 
Q 2344 -856 2625 -561 
Q 2906 -266 2906 331 
L 2906 616 
Q 2728 306 2450 153 
Q 2172 0 1784 0 
Q 1141 0 747 490 
Q 353 981 353 1791 
Q 353 2603 747 3093 
Q 1141 3584 1784 3584 
Q 2172 3584 2450 3431 
Q 2728 3278 2906 2969 
L 2906 3500 
L 3481 3500 
L 3481 434 
z
" transform="scale(0.015625)"/>
       <path id="DejaVuSans-20" transform="scale(0.015625)"/>
       <path id="DejaVuSans-70" d="M 1159 525 
L 1159 -1331 
L 581 -1331 
L 581 3500 
L 1159 3500 
L 1159 2969 
Q 1341 3281 1617 3432 
Q 1894 3584 2278 3584 
Q 2916 3584 3314 3078 
Q 3713 2572 3713 1747 
Q 3713 922 3314 415 
Q 2916 -91 2278 -91 
Q 1894 -91 1617 61 
Q 1341 213 1159 525 
z
M 3116 1747 
Q 3116 2381 2855 2742 
Q 2594 3103 2138 3103 
Q 1681 3103 1420 2742 
Q 1159 2381 1159 1747 
Q 1159 1113 1420 752 
Q 1681 391 2138 391 
Q 2594 391 2855 752 
Q 3116 1113 3116 1747 
z
" transform="scale(0.015625)"/>
       <path id="DejaVuSans-2d" d="M 313 2009 
L 1997 2009 
L 1997 1497 
L 313 1497 
L 313 2009 
z
" transform="scale(0.015625)"/>
       <path id="DejaVuSans-39" d="M 703 97 
L 703 672 
Q 941 559 1184 500 
Q 1428 441 1663 441 
Q 2288 441 2617 861 
Q 2947 1281 2994 2138 
Q 2813 1869 2534 1725 
Q 2256 1581 1919 1581 
Q 1219 1581 811 2004 
Q 403 2428 403 3163 
Q 403 3881 828 4315 
Q 1253 4750 1959 4750 
Q 2769 4750 3195 4129 
Q 3622 3509 3622 2328 
Q 3622 1225 3098 567 
Q 2575 -91 1691 -91 
Q 1453 -91 1209 -44 
Q 966 3 703 97 
z
M 1959 2075 
Q 2384 2075 2632 2365 
Q 2881 2656 2881 3163 
Q 2881 3666 2632 3958 
Q 2384 4250 1959 4250 
Q 1534 4250 1286 3958 
Q 1038 3666 1038 3163 
Q 1038 2656 1286 2365 
Q 1534 2075 1959 2075 
z
" transform="scale(0.015625)"/>
      </defs>
      <use xlink:href="#DejaVuSans-52"/>
      <use xlink:href="#DejaVuSans-61" x="67.232422"/>
      <use xlink:href="#DejaVuSans-6e" x="128.511719"/>
      <use xlink:href="#DejaVuSans-6b" x="191.890625"/>
      <use xlink:href="#DejaVuSans-69" x="249.800781"/>
      <use xlink:href="#DejaVuSans-6e" x="277.583984"/>
      <use xlink:href="#DejaVuSans-67" x="340.962891"/>
      <use xlink:href="#DejaVuSans-20" x="404.439453"/>
      <use xlink:href="#DejaVuSans-74" x="436.226562"/>
      <use xlink:href="#DejaVuSans-6f" x="475.435547"/>
      <use xlink:href="#DejaVuSans-70" x="536.617188"/>
      <use xlink:href="#DejaVuSans-2d" x="600.09375"/>
      <use xlink:href="#DejaVuSans-39" x="636.177734"/>
     </g>
    </g>
    <g id="line2d_32">
     <path d="M 160.99 39.911313 
L 167.99 39.911313 
L 174.99 39.911313 
" style="fill: none; stroke: #c7dbef; stroke-width: 3; stroke-linecap: square"/>
    </g>
    <g id="text_13">
     <!-- 8+2(GPR) (#1) -->
     <g transform="translate(180.59 42.361313) scale(0.07 -0.07)">
      <defs>
       <path id="DejaVuSans-38" d="M 2034 2216 
Q 1584 2216 1326 1975 
Q 1069 1734 1069 1313 
Q 1069 891 1326 650 
Q 1584 409 2034 409 
Q 2484 409 2743 651 
Q 3003 894 3003 1313 
Q 3003 1734 2745 1975 
Q 2488 2216 2034 2216 
z
M 1403 2484 
Q 997 2584 770 2862 
Q 544 3141 544 3541 
Q 544 4100 942 4425 
Q 1341 4750 2034 4750 
Q 2731 4750 3128 4425 
Q 3525 4100 3525 3541 
Q 3525 3141 3298 2862 
Q 3072 2584 2669 2484 
Q 3125 2378 3379 2068 
Q 3634 1759 3634 1313 
Q 3634 634 3220 271 
Q 2806 -91 2034 -91 
Q 1263 -91 848 271 
Q 434 634 434 1313 
Q 434 1759 690 2068 
Q 947 2378 1403 2484 
z
M 1172 3481 
Q 1172 3119 1398 2916 
Q 1625 2713 2034 2713 
Q 2441 2713 2670 2916 
Q 2900 3119 2900 3481 
Q 2900 3844 2670 4047 
Q 2441 4250 2034 4250 
Q 1625 4250 1398 4047 
Q 1172 3844 1172 3481 
z
" transform="scale(0.015625)"/>
       <path id="DejaVuSans-2b" d="M 2944 4013 
L 2944 2272 
L 4684 2272 
L 4684 1741 
L 2944 1741 
L 2944 0 
L 2419 0 
L 2419 1741 
L 678 1741 
L 678 2272 
L 2419 2272 
L 2419 4013 
L 2944 4013 
z
" transform="scale(0.015625)"/>
       <path id="DejaVuSans-28" d="M 1984 4856 
Q 1566 4138 1362 3434 
Q 1159 2731 1159 2009 
Q 1159 1288 1364 580 
Q 1569 -128 1984 -844 
L 1484 -844 
Q 1016 -109 783 600 
Q 550 1309 550 2009 
Q 550 2706 781 3412 
Q 1013 4119 1484 4856 
L 1984 4856 
z
" transform="scale(0.015625)"/>
       <path id="DejaVuSans-47" d="M 3809 666 
L 3809 1919 
L 2778 1919 
L 2778 2438 
L 4434 2438 
L 4434 434 
Q 4069 175 3628 42 
Q 3188 -91 2688 -91 
Q 1594 -91 976 548 
Q 359 1188 359 2328 
Q 359 3472 976 4111 
Q 1594 4750 2688 4750 
Q 3144 4750 3555 4637 
Q 3966 4525 4313 4306 
L 4313 3634 
Q 3963 3931 3569 4081 
Q 3175 4231 2741 4231 
Q 1884 4231 1454 3753 
Q 1025 3275 1025 2328 
Q 1025 1384 1454 906 
Q 1884 428 2741 428 
Q 3075 428 3337 486 
Q 3600 544 3809 666 
z
" transform="scale(0.015625)"/>
       <path id="DejaVuSans-29" d="M 513 4856 
L 1013 4856 
Q 1481 4119 1714 3412 
Q 1947 2706 1947 2009 
Q 1947 1309 1714 600 
Q 1481 -109 1013 -844 
L 513 -844 
Q 928 -128 1133 580 
Q 1338 1288 1338 2009 
Q 1338 2731 1133 3434 
Q 928 4138 513 4856 
z
" transform="scale(0.015625)"/>
       <path id="DejaVuSans-23" d="M 3272 2816 
L 2363 2816 
L 2100 1772 
L 3016 1772 
L 3272 2816 
z
M 2803 4594 
L 2478 3297 
L 3391 3297 
L 3719 4594 
L 4219 4594 
L 3897 3297 
L 4872 3297 
L 4872 2816 
L 3775 2816 
L 3519 1772 
L 4513 1772 
L 4513 1294 
L 3397 1294 
L 3072 0 
L 2572 0 
L 2894 1294 
L 1978 1294 
L 1656 0 
L 1153 0 
L 1478 1294 
L 494 1294 
L 494 1772 
L 1594 1772 
L 1856 2816 
L 850 2816 
L 850 3297 
L 1978 3297 
L 2297 4594 
L 2803 4594 
z
" transform="scale(0.015625)"/>
      </defs>
      <use xlink:href="#DejaVuSans-38"/>
      <use xlink:href="#DejaVuSans-2b" x="63.623047"/>
      <use xlink:href="#DejaVuSans-32" x="147.412109"/>
      <use xlink:href="#DejaVuSans-28" x="211.035156"/>
      <use xlink:href="#DejaVuSans-47" x="250.048828"/>
      <use xlink:href="#DejaVuSans-50" x="327.539062"/>
      <use xlink:href="#DejaVuSans-52" x="387.841797"/>
      <use xlink:href="#DejaVuSans-29" x="457.324219"/>
      <use xlink:href="#DejaVuSans-20" x="496.337891"/>
      <use xlink:href="#DejaVuSans-28" x="528.125"/>
      <use xlink:href="#DejaVuSans-23" x="567.138672"/>
      <use xlink:href="#DejaVuSans-31" x="650.927734"/>
      <use xlink:href="#DejaVuSans-29" x="714.550781"/>
     </g>
    </g>
    <g id="line2d_33">
     <path d="M 160.99 50.186 
L 167.99 50.186 
L 174.99 50.186 
" style="fill: none; stroke: #fd8e3d; stroke-width: 3; stroke-linecap: square"/>
    </g>
    <g id="text_14">
     <!-- 3+2(MLP) (#2) -->
     <g transform="translate(180.59 52.636) scale(0.07 -0.07)">
      <defs>
       <path id="DejaVuSans-33" d="M 2597 2516 
Q 3050 2419 3304 2112 
Q 3559 1806 3559 1356 
Q 3559 666 3084 287 
Q 2609 -91 1734 -91 
Q 1441 -91 1130 -33 
Q 819 25 488 141 
L 488 750 
Q 750 597 1062 519 
Q 1375 441 1716 441 
Q 2309 441 2620 675 
Q 2931 909 2931 1356 
Q 2931 1769 2642 2001 
Q 2353 2234 1838 2234 
L 1294 2234 
L 1294 2753 
L 1863 2753 
Q 2328 2753 2575 2939 
Q 2822 3125 2822 3475 
Q 2822 3834 2567 4026 
Q 2313 4219 1838 4219 
Q 1578 4219 1281 4162 
Q 984 4106 628 3988 
L 628 4550 
Q 988 4650 1302 4700 
Q 1616 4750 1894 4750 
Q 2613 4750 3031 4423 
Q 3450 4097 3450 3541 
Q 3450 3153 3228 2886 
Q 3006 2619 2597 2516 
z
" transform="scale(0.015625)"/>
       <path id="DejaVuSans-4d" d="M 628 4666 
L 1569 4666 
L 2759 1491 
L 3956 4666 
L 4897 4666 
L 4897 0 
L 4281 0 
L 4281 4097 
L 3078 897 
L 2444 897 
L 1241 4097 
L 1241 0 
L 628 0 
L 628 4666 
z
" transform="scale(0.015625)"/>
       <path id="DejaVuSans-4c" d="M 628 4666 
L 1259 4666 
L 1259 531 
L 3531 531 
L 3531 0 
L 628 0 
L 628 4666 
z
" transform="scale(0.015625)"/>
      </defs>
      <use xlink:href="#DejaVuSans-33"/>
      <use xlink:href="#DejaVuSans-2b" x="63.623047"/>
      <use xlink:href="#DejaVuSans-32" x="147.412109"/>
      <use xlink:href="#DejaVuSans-28" x="211.035156"/>
      <use xlink:href="#DejaVuSans-4d" x="250.048828"/>
      <use xlink:href="#DejaVuSans-4c" x="336.328125"/>
      <use xlink:href="#DejaVuSans-50" x="392.041016"/>
      <use xlink:href="#DejaVuSans-29" x="452.34375"/>
      <use xlink:href="#DejaVuSans-20" x="491.357422"/>
      <use xlink:href="#DejaVuSans-28" x="523.144531"/>
      <use xlink:href="#DejaVuSans-23" x="562.158203"/>
      <use xlink:href="#DejaVuSans-32" x="645.947266"/>
      <use xlink:href="#DejaVuSans-29" x="709.570312"/>
     </g>
    </g>
    <g id="line2d_34">
     <path d="M 160.99 60.460688 
L 167.99 60.460688 
L 174.99 60.460688 
" style="fill: none; stroke: #2171b5; stroke-width: 3; stroke-linecap: square"/>
    </g>
    <g id="text_15">
     <!-- 1+1(GPR) (#3) -->
     <g transform="translate(180.59 62.910688) scale(0.07 -0.07)">
      <use xlink:href="#DejaVuSans-31"/>
      <use xlink:href="#DejaVuSans-2b" x="63.623047"/>
      <use xlink:href="#DejaVuSans-31" x="147.412109"/>
      <use xlink:href="#DejaVuSans-28" x="211.035156"/>
      <use xlink:href="#DejaVuSans-47" x="250.048828"/>
      <use xlink:href="#DejaVuSans-50" x="327.539062"/>
      <use xlink:href="#DejaVuSans-52" x="387.841797"/>
      <use xlink:href="#DejaVuSans-29" x="457.324219"/>
      <use xlink:href="#DejaVuSans-20" x="496.337891"/>
      <use xlink:href="#DejaVuSans-28" x="528.125"/>
      <use xlink:href="#DejaVuSans-23" x="567.138672"/>
      <use xlink:href="#DejaVuSans-33" x="650.927734"/>
      <use xlink:href="#DejaVuSans-29" x="714.550781"/>
     </g>
    </g>
    <g id="line2d_35">
     <path d="M 160.99 70.735375 
L 167.99 70.735375 
L 174.99 70.735375 
" style="fill: none; stroke: #6caed6; stroke-opacity: 0.5; stroke-width: 1.5; stroke-linecap: square"/>
    </g>
    <g id="text_16">
     <!-- 3+2(GPR) (#4) -->
     <g transform="translate(180.59 73.185375) scale(0.07 -0.07)">
      <defs>
       <path id="DejaVuSans-34" d="M 2419 4116 
L 825 1625 
L 2419 1625 
L 2419 4116 
z
M 2253 4666 
L 3047 4666 
L 3047 1625 
L 3713 1625 
L 3713 1100 
L 3047 1100 
L 3047 0 
L 2419 0 
L 2419 1100 
L 313 1100 
L 313 1709 
L 2253 4666 
z
" transform="scale(0.015625)"/>
      </defs>
      <use xlink:href="#DejaVuSans-33"/>
      <use xlink:href="#DejaVuSans-2b" x="63.623047"/>
      <use xlink:href="#DejaVuSans-32" x="147.412109"/>
      <use xlink:href="#DejaVuSans-28" x="211.035156"/>
      <use xlink:href="#DejaVuSans-47" x="250.048828"/>
      <use xlink:href="#DejaVuSans-50" x="327.539062"/>
      <use xlink:href="#DejaVuSans-52" x="387.841797"/>
      <use xlink:href="#DejaVuSans-29" x="457.324219"/>
      <use xlink:href="#DejaVuSans-20" x="496.337891"/>
      <use xlink:href="#DejaVuSans-28" x="528.125"/>
      <use xlink:href="#DejaVuSans-23" x="567.138672"/>
      <use xlink:href="#DejaVuSans-34" x="650.927734"/>
      <use xlink:href="#DejaVuSans-29" x="714.550781"/>
     </g>
    </g>
    <g id="line2d_36">
     <path d="M 160.99 81.010063 
L 167.99 81.010063 
L 174.99 81.010063 
" style="fill: none; stroke: #fdd1a3; stroke-opacity: 0.5; stroke-width: 1.5; stroke-linecap: square"/>
    </g>
    <g id="text_17">
     <!-- 8+2(MLP) (#5) -->
     <g transform="translate(180.59 83.460063) scale(0.07 -0.07)">
      <use xlink:href="#DejaVuSans-38"/>
      <use xlink:href="#DejaVuSans-2b" x="63.623047"/>
      <use xlink:href="#DejaVuSans-32" x="147.412109"/>
      <use xlink:href="#DejaVuSans-28" x="211.035156"/>
      <use xlink:href="#DejaVuSans-4d" x="250.048828"/>
      <use xlink:href="#DejaVuSans-4c" x="336.328125"/>
      <use xlink:href="#DejaVuSans-50" x="392.041016"/>
      <use xlink:href="#DejaVuSans-29" x="452.34375"/>
      <use xlink:href="#DejaVuSans-20" x="491.357422"/>
      <use xlink:href="#DejaVuSans-28" x="523.144531"/>
      <use xlink:href="#DejaVuSans-23" x="562.158203"/>
      <use xlink:href="#DejaVuSans-35" x="645.947266"/>
      <use xlink:href="#DejaVuSans-29" x="709.570312"/>
     </g>
    </g>
    <g id="line2d_37">
     <path d="M 160.99 91.28475 
L 167.99 91.28475 
L 174.99 91.28475 
" style="fill: none; stroke: #d94801; stroke-opacity: 0.5; stroke-width: 1.5; stroke-linecap: square"/>
    </g>
    <g id="text_18">
     <!-- 1+1(MLP) (#6) -->
     <g transform="translate(180.59 93.73475) scale(0.07 -0.07)">
      <defs>
       <path id="DejaVuSans-36" d="M 2113 2584 
Q 1688 2584 1439 2293 
Q 1191 2003 1191 1497 
Q 1191 994 1439 701 
Q 1688 409 2113 409 
Q 2538 409 2786 701 
Q 3034 994 3034 1497 
Q 3034 2003 2786 2293 
Q 2538 2584 2113 2584 
z
M 3366 4563 
L 3366 3988 
Q 3128 4100 2886 4159 
Q 2644 4219 2406 4219 
Q 1781 4219 1451 3797 
Q 1122 3375 1075 2522 
Q 1259 2794 1537 2939 
Q 1816 3084 2150 3084 
Q 2853 3084 3261 2657 
Q 3669 2231 3669 1497 
Q 3669 778 3244 343 
Q 2819 -91 2113 -91 
Q 1303 -91 875 529 
Q 447 1150 447 2328 
Q 447 3434 972 4092 
Q 1497 4750 2381 4750 
Q 2619 4750 2861 4703 
Q 3103 4656 3366 4563 
z
" transform="scale(0.015625)"/>
      </defs>
      <use xlink:href="#DejaVuSans-31"/>
      <use xlink:href="#DejaVuSans-2b" x="63.623047"/>
      <use xlink:href="#DejaVuSans-31" x="147.412109"/>
      <use xlink:href="#DejaVuSans-28" x="211.035156"/>
      <use xlink:href="#DejaVuSans-4d" x="250.048828"/>
      <use xlink:href="#DejaVuSans-4c" x="336.328125"/>
      <use xlink:href="#DejaVuSans-50" x="392.041016"/>
      <use xlink:href="#DejaVuSans-29" x="452.34375"/>
      <use xlink:href="#DejaVuSans-20" x="491.357422"/>
      <use xlink:href="#DejaVuSans-28" x="523.144531"/>
      <use xlink:href="#DejaVuSans-23" x="562.158203"/>
      <use xlink:href="#DejaVuSans-36" x="645.947266"/>
      <use xlink:href="#DejaVuSans-29" x="709.570312"/>
     </g>
    </g>
    <g id="line2d_38">
     <path d="M 160.99 101.559438 
L 167.99 101.559438 
L 174.99 101.559438 
" style="fill: none; stroke: #dadada; stroke-opacity: 0.5; stroke-width: 1.5; stroke-linecap: square"/>
    </g>
    <g id="text_19">
     <!-- 8+2(kNN) (#7) -->
     <g transform="translate(180.59 104.009438) scale(0.07 -0.07)">
      <defs>
       <path id="DejaVuSans-4e" d="M 628 4666 
L 1478 4666 
L 3547 763 
L 3547 4666 
L 4159 4666 
L 4159 0 
L 3309 0 
L 1241 3903 
L 1241 0 
L 628 0 
L 628 4666 
z
" transform="scale(0.015625)"/>
       <path id="DejaVuSans-37" d="M 525 4666 
L 3525 4666 
L 3525 4397 
L 1831 0 
L 1172 0 
L 2766 4134 
L 525 4134 
L 525 4666 
z
" transform="scale(0.015625)"/>
      </defs>
      <use xlink:href="#DejaVuSans-38"/>
      <use xlink:href="#DejaVuSans-2b" x="63.623047"/>
      <use xlink:href="#DejaVuSans-32" x="147.412109"/>
      <use xlink:href="#DejaVuSans-28" x="211.035156"/>
      <use xlink:href="#DejaVuSans-6b" x="250.048828"/>
      <use xlink:href="#DejaVuSans-4e" x="307.958984"/>
      <use xlink:href="#DejaVuSans-4e" x="382.763672"/>
      <use xlink:href="#DejaVuSans-29" x="457.568359"/>
      <use xlink:href="#DejaVuSans-20" x="496.582031"/>
      <use xlink:href="#DejaVuSans-28" x="528.369141"/>
      <use xlink:href="#DejaVuSans-23" x="567.382812"/>
      <use xlink:href="#DejaVuSans-37" x="651.171875"/>
      <use xlink:href="#DejaVuSans-29" x="714.794922"/>
     </g>
    </g>
    <g id="line2d_39">
     <path d="M 160.99 111.834125 
L 167.99 111.834125 
L 174.99 111.834125 
" style="fill: none; stroke: #525252; stroke-opacity: 0.5; stroke-width: 1.5; stroke-linecap: square"/>
    </g>
    <g id="text_20">
     <!-- 1+1(kNN) (#8) -->
     <g transform="translate(180.59 114.284125) scale(0.07 -0.07)">
      <use xlink:href="#DejaVuSans-31"/>
      <use xlink:href="#DejaVuSans-2b" x="63.623047"/>
      <use xlink:href="#DejaVuSans-31" x="147.412109"/>
      <use xlink:href="#DejaVuSans-28" x="211.035156"/>
      <use xlink:href="#DejaVuSans-6b" x="250.048828"/>
      <use xlink:href="#DejaVuSans-4e" x="307.958984"/>
      <use xlink:href="#DejaVuSans-4e" x="382.763672"/>
      <use xlink:href="#DejaVuSans-29" x="457.568359"/>
      <use xlink:href="#DejaVuSans-20" x="496.582031"/>
      <use xlink:href="#DejaVuSans-28" x="528.369141"/>
      <use xlink:href="#DejaVuSans-23" x="567.382812"/>
      <use xlink:href="#DejaVuSans-38" x="651.171875"/>
      <use xlink:href="#DejaVuSans-29" x="714.794922"/>
     </g>
    </g>
    <g id="line2d_40">
     <path d="M 160.99 122.108813 
L 167.99 122.108813 
L 174.99 122.108813 
" style="fill: none; stroke: #979797; stroke-opacity: 0.5; stroke-width: 1.5; stroke-linecap: square"/>
    </g>
    <g id="text_21">
     <!-- 3+2(kNN) (#9) -->
     <g transform="translate(180.59 124.558813) scale(0.07 -0.07)">
      <use xlink:href="#DejaVuSans-33"/>
      <use xlink:href="#DejaVuSans-2b" x="63.623047"/>
      <use xlink:href="#DejaVuSans-32" x="147.412109"/>
      <use xlink:href="#DejaVuSans-28" x="211.035156"/>
      <use xlink:href="#DejaVuSans-6b" x="250.048828"/>
      <use xlink:href="#DejaVuSans-4e" x="307.958984"/>
      <use xlink:href="#DejaVuSans-4e" x="382.763672"/>
      <use xlink:href="#DejaVuSans-29" x="457.568359"/>
      <use xlink:href="#DejaVuSans-20" x="496.582031"/>
      <use xlink:href="#DejaVuSans-28" x="528.369141"/>
      <use xlink:href="#DejaVuSans-23" x="567.382812"/>
      <use xlink:href="#DejaVuSans-39" x="651.171875"/>
      <use xlink:href="#DejaVuSans-29" x="714.794922"/>
     </g>
    </g>
   </g>
   <g id="line2d_41">
    <path d="M 137.396047 78.375225 
L 121.058766 81.800062 
L 96.550807 78.295061 
L 77.618573 80.363549 
L 63.76346 83.663911 
L 61.193981 87.296465 
L 61.193981 88.900743 
L 59.908977 90.015369 
L 58.494982 91.35562 
L 58.101404 92.930269 
L 57.828597 93.069411 
L 57.828597 93.600457 
L 57.52313 94.062998 
L 57.463224 94.88084 
L 57.035925 96.593746 
L 57.01936 97.881162 
L 57.01936 99.677493 
L 57.01936 100.555103 
L 57.01936 101.49835 
L 56.799052 101.797711 
L 56.799052 102.004747 
" clip-path="url(#pa68fb9e04c)" style="fill: none; stroke: #2171b5; stroke-width: 4; stroke-linecap: square"/>
   </g>
   <g id="PathCollection_1">
    <defs>
     <path id="m243a6f78de" d="M 0 3.872983 
C 1.027127 3.872983 2.012324 3.464901 2.738613 2.738613 
C 3.464901 2.012324 3.872983 1.027127 3.872983 0 
C 3.872983 -1.027127 3.464901 -2.012324 2.738613 -2.738613 
C 2.012324 -3.464901 1.027127 -3.872983 0 -3.872983 
C -1.027127 -3.872983 -2.012324 -3.464901 -2.738613 -2.738613 
C -3.464901 -2.012324 -3.872983 -1.027127 -3.872983 0 
C -3.872983 1.027127 -3.464901 2.012324 -2.738613 2.738613 
C -2.012324 3.464901 -1.027127 3.872983 0 3.872983 
z
" style="stroke: #000000"/>
    </defs>
    <g clip-path="url(#pa68fb9e04c)">
     <use xlink:href="#m243a6f78de" x="137.396047" y="78.375225" style="fill: #ffffff; stroke: #000000"/>
    </g>
   </g>
   <g id="line2d_42">
    <path d="M 137.396047 78.375225 
L 134.94263 76.865015 
L 125.032963 79.382461 
L 107.582058 80.104862 
L 94.083653 81.632636 
L 86.585173 84.420624 
L 72.631138 86.05292 
L 71.704746 87.627779 
L 69.271248 87.734563 
L 68.639525 87.86683 
L 66.996852 88.796201 
L 66.354859 88.237667 
L 64.875691 88.562813 
L 64.650169 89.634441 
L 63.48 90.143091 
L 63.104607 90.328429 
L 63.104607 90.027237 
L 63.104607 89.887177 
L 63.04441 90.716528 
L 63.04441 90.811671 
L 63.04441 91.395607 
" clip-path="url(#pa68fb9e04c)" style="fill: none; stroke: #fd8e3d; stroke-width: 4; stroke-linecap: square"/>
   </g>
   <g id="PathCollection_2">
    <g clip-path="url(#pa68fb9e04c)">
     <use xlink:href="#m243a6f78de" x="137.396047" y="78.375225" style="fill: #ffffff; stroke: #000000"/>
    </g>
   </g>
   <g id="line2d_43">
    <path d="M 137.396047 78.375225 
L 137.396047 78.375225 
L 116.855807 80.126774 
L 93.516666 76.50993 
L 83.012578 79.453441 
L 77.127241 83.849952 
L 68.507735 87.693008 
L 67.2628 90.929987 
L 63.762002 92.842837 
L 62.272661 93.910599 
L 61.941618 95.19923 
L 61.713429 96.706319 
L 60.970943 98.88977 
L 60.902337 98.719228 
L 59.375795 100.428919 
L 58.883631 100.84532 
L 58.883631 101.619702 
L 58.877708 102.248455 
L 58.877708 102.652994 
L 58.598713 103.113694 
L 58.598713 103.570997 
" clip-path="url(#pa68fb9e04c)" style="fill: none; stroke: #c7dbef; stroke-width: 4; stroke-linecap: square"/>
   </g>
   <g id="PathCollection_3">
    <g clip-path="url(#pa68fb9e04c)">
     <use xlink:href="#m243a6f78de" x="137.396047" y="78.375225" style="fill: #ffffff; stroke: #000000"/>
    </g>
   </g>
   <g id="PathCollection_4">
    <defs>
     <path id="mbf69f39c1d" d="M -0 5.477226 
L 3.286335 0 
L 0 -5.477226 
L -3.286335 -0 
z
" style="stroke: #000000"/>
    </defs>
    <g clip-path="url(#pa68fb9e04c)">
     <use xlink:href="#mbf69f39c1d" x="56.799052" y="102.004747" style="fill: #2171b5; stroke: #000000"/>
    </g>
   </g>
   <g id="PathCollection_5">
    <defs>
     <path id="md878976554" d="M -0 5.477226 
L 3.286335 0 
L 0 -5.477226 
L -3.286335 -0 
z
" style="stroke: #000000"/>
    </defs>
    <g clip-path="url(#pa68fb9e04c)">
     <use xlink:href="#md878976554" x="63.04441" y="91.395607" style="fill: #fd8e3d; stroke: #000000"/>
    </g>
   </g>
   <g id="PathCollection_6">
    <defs>
     <path id="m7b1192e47e" d="M -0 5.477226 
L 3.286335 0 
L 0 -5.477226 
L -3.286335 -0 
z
" style="stroke: #000000"/>
    </defs>
    <g clip-path="url(#pa68fb9e04c)">
     <use xlink:href="#m7b1192e47e" x="58.598713" y="103.570997" style="fill: #c7dbef; stroke: #000000"/>
    </g>
   </g>
  </g>
 </g>
 <defs>
  <clipPath id="pa68fb9e04c">
   <rect x="43.144" y="24.5285" width="111.546" height="102.7575"/>
  </clipPath>
 </defs>
</svg>
