<?xml version="1.0" encoding="utf-8" standalone="no"?>
<!DOCTYPE svg PUBLIC "-//W3C//DTD SVG 1.1//EN"
  "http://www.w3.org/Graphics/SVG/1.1/DTD/svg11.dtd">
<svg xmlns:xlink="http://www.w3.org/1999/xlink" width="165.6pt" height="165.6pt" viewBox="0 0 165.6 165.6" xmlns="http://www.w3.org/2000/svg" version="1.1">
 <metadata>
  <rdf:RDF xmlns:dc="http://purl.org/dc/elements/1.1/" xmlns:cc="http://creativecommons.org/ns#" xmlns:rdf="http://www.w3.org/1999/02/22-rdf-syntax-ns#">
   <cc:Work>
    <dc:type rdf:resource="http://purl.org/dc/dcmitype/StillImage"/>
    <dc:date>2026-03-31T12:57:00.115674</dc:date>
    <dc:format>image/svg+xml</dc:format>
    <dc:creator>
     <cc:Agent>
      <dc:title>Matplotlib v3.8.0, https://matplotlib.org/</dc:title>
     </cc:Agent>
    </dc:creator>
   </cc:Work>
  </rdf:RDF>
 </metadata>
 <defs>
  <style type="text/css">*{stroke-linejoin: round; stroke-linecap: butt}</style>
 </defs>
 <g id="figure_1">
  <g id="patch_1">
   <path d="M 0 165.6 
L 165.6 165.6 
L 165.6 0 
L 0 0 
L 0 165.6 
z
" style="fill: none"/>
  </g>
  <g id="axes_1">
   <g id="line2d_1"/>
   <g id="line2d_2"/>
   <g id="line2d_3"/>
   <g id="line2d_4"/>
   <g id="line2d_5"/>
   <g id="line2d_6"/>
   <g id="line2d_7"/>
   <g id="line2d_8"/>
   <g id="line2d_9"/>
   <g id="legend_1">
    <g id="patch_2">
     <path d="M 103.763437 92.701875 
L 152.76 92.701875 
Q 153.96 92.701875 153.96 91.501875 
L 153.96 12.84 
Q 153.96 11.64 152.76 11.64 
L 103.763437 11.64 
Q 102.563437 11.64 102.563437 12.84 
L 102.563437 91.501875 
Q 102.563437 92.701875 103.763437 92.701875 
z
" style="fill: #ffffff; opacity: 0.8; stroke: #cccccc; stroke-linejoin: miter"/>
    </g>
    <g id="line2d_10">
     <path d="M 104.963437 16.499063 
L 110.963437 16.499063 
L 116.963437 16.499063 
" style="fill: none; stroke: #2171b5; stroke-width: 3; stroke-linecap: square"/>
    </g>
    <g id="text_1">
     <!-- 1+1(GPR) -->
     <g transform="translate(121.763437 18.599063) scale(0.06 -0.06)">
      <defs>
       <path id="DejaVuSans-31" d="M 794 531 
L 1825 531 
L 1825 4091 
L 703 3866 
L 703 4441 
L 1819 4666 
L 2450 4666 
L 2450 531 
L 3481 531 
L 3481 0 
L 794 0 
L 794 531 
z
" transform="scale(0.015625)"/>
       <path id="DejaVuSans-2b" d="M 2944 4013 
L 2944 2272 
L 4684 2272 
L 4684 1741 
L 2944 1741 
L 2944 0 
L 2419 0 
L 2419 1741 
L 678 1741 
L 678 2272 
L 2419 2272 
L 2419 4013 
L 2944 4013 
z
" transform="scale(0.015625)"/>
       <path id="DejaVuSans-28" d="M 1984 4856 
Q 1566 4138 1362 3434 
Q 1159 2731 1159 2009 
Q 1159 1288 1364 580 
Q 1569 -128 1984 -844 
L 1484 -844 
Q 1016 -109 783 600 
Q 550 1309 550 2009 
Q 550 2706 781 3412 
Q 1013 4119 1484 4856 
L 1984 4856 
z
" transform="scale(0.015625)"/>
       <path id="DejaVuSans-47" d="M 3809 666 
L 3809 1919 
L 2778 1919 
L 2778 2438 
L 4434 2438 
L 4434 434 
Q 4069 175 3628 42 
Q 3188 -91 2688 -91 
Q 1594 -91 976 548 
Q 359 1188 359 2328 
Q 359 3472 976 4111 
Q 1594 4750 2688 4750 
Q 3144 4750 3555 4637 
Q 3966 4525 4313 4306 
L 4313 3634 
Q 3963 3931 3569 4081 
Q 3175 4231 2741 4231 
Q 1884 4231 1454 3753 
Q 1025 3275 1025 2328 
Q 1025 1384 1454 906 
Q 1884 428 2741 428 
Q 3075 428 3337 486 
Q 3600 544 3809 666 
z
" transform="scale(0.015625)"/>
       <path id="DejaVuSans-50" d="M 1259 4147 
L 1259 2394 
L 2053 2394 
Q 2494 2394 2734 2622 
Q 2975 2850 2975 3272 
Q 2975 3691 2734 3919 
Q 2494 4147 2053 4147 
L 1259 4147 
z
M 628 4666 
L 2053 4666 
Q 2838 4666 3239 4311 
Q 3641 3956 3641 3272 
Q 3641 2581 3239 2228 
Q 2838 1875 2053 1875 
L 1259 1875 
L 1259 0 
L 628 0 
L 628 4666 
z
" transform="scale(0.015625)"/>
       <path id="DejaVuSans-52" d="M 2841 2188 
Q 3044 2119 3236 1894 
Q 3428 1669 3622 1275 
L 4263 0 
L 3584 0 
L 2988 1197 
Q 2756 1666 2539 1819 
Q 2322 1972 1947 1972 
L 1259 1972 
L 1259 0 
L 628 0 
L 628 4666 
L 2053 4666 
Q 2853 4666 3247 4331 
Q 3641 3997 3641 3322 
Q 3641 2881 3436 2590 
Q 3231 2300 2841 2188 
z
M 1259 4147 
L 1259 2491 
L 2053 2491 
Q 2509 2491 2742 2702 
Q 2975 2913 2975 3322 
Q 2975 3731 2742 3939 
Q 2509 4147 2053 4147 
L 1259 4147 
z
" transform="scale(0.015625)"/>
       <path id="DejaVuSans-29" d="M 513 4856 
L 1013 4856 
Q 1481 4119 1714 3412 
Q 1947 2706 1947 2009 
Q 1947 1309 1714 600 
Q 1481 -109 1013 -844 
L 513 -844 
Q 928 -128 1133 580 
Q 1338 1288 1338 2009 
Q 1338 2731 1133 3434 
Q 928 4138 513 4856 
z
" transform="scale(0.015625)"/>
      </defs>
      <use xlink:href="#DejaVuSans-31"/>
      <use xlink:href="#DejaVuSans-2b" x="63.623047"/>
      <use xlink:href="#DejaVuSans-31" x="147.412109"/>
      <use xlink:href="#DejaVuSans-28" x="211.035156"/>
      <use xlink:href="#DejaVuSans-47" x="250.048828"/>
      <use xlink:href="#DejaVuSans-50" x="327.539062"/>
      <use xlink:href="#DejaVuSans-52" x="387.841797"/>
      <use xlink:href="#DejaVuSans-29" x="457.324219"/>
     </g>
    </g>
    <g id="line2d_11">
     <path d="M 104.963437 25.305938 
L 110.963437 25.305938 
L 116.963437 25.305938 
" style="fill: none; stroke: #6caed6; stroke-width: 3; stroke-linecap: square"/>
    </g>
    <g id="text_2">
     <!-- 3+2(GPR) -->
     <g transform="translate(121.763437 27.405938) scale(0.06 -0.06)">
      <defs>
       <path id="DejaVuSans-33" d="M 2597 2516 
Q 3050 2419 3304 2112 
Q 3559 1806 3559 1356 
Q 3559 666 3084 287 
Q 2609 -91 1734 -91 
Q 1441 -91 1130 -33 
Q 819 25 488 141 
L 488 750 
Q 750 597 1062 519 
Q 1375 441 1716 441 
Q 2309 441 2620 675 
Q 2931 909 2931 1356 
Q 2931 1769 2642 2001 
Q 2353 2234 1838 2234 
L 1294 2234 
L 1294 2753 
L 1863 2753 
Q 2328 2753 2575 2939 
Q 2822 3125 2822 3475 
Q 2822 3834 2567 4026 
Q 2313 4219 1838 4219 
Q 1578 4219 1281 4162 
Q 984 4106 628 3988 
L 628 4550 
Q 988 4650 1302 4700 
Q 1616 4750 1894 4750 
Q 2613 4750 3031 4423 
Q 3450 4097 3450 3541 
Q 3450 3153 3228 2886 
Q 3006 2619 2597 2516 
z
" transform="scale(0.015625)"/>
       <path id="DejaVuSans-32" d="M 1228 531 
L 3431 531 
L 3431 0 
L 469 0 
L 469 531 
Q 828 903 1448 1529 
Q 2069 2156 2228 2338 
Q 2531 2678 2651 2914 
Q 2772 3150 2772 3378 
Q 2772 3750 2511 3984 
Q 2250 4219 1831 4219 
Q 1534 4219 1204 4116 
Q 875 4013 500 3803 
L 500 4441 
Q 881 4594 1212 4672 
Q 1544 4750 1819 4750 
Q 2544 4750 2975 4387 
Q 3406 4025 3406 3419 
Q 3406 3131 3298 2873 
Q 3191 2616 2906 2266 
Q 2828 2175 2409 1742 
Q 1991 1309 1228 531 
z
" transform="scale(0.015625)"/>
      </defs>
      <use xlink:href="#DejaVuSans-33"/>
      <use xlink:href="#DejaVuSans-2b" x="63.623047"/>
      <use xlink:href="#DejaVuSans-32" x="147.412109"/>
      <use xlink:href="#DejaVuSans-28" x="211.035156"/>
      <use xlink:href="#DejaVuSans-47" x="250.048828"/>
      <use xlink:href="#DejaVuSans-50" x="327.539062"/>
      <use xlink:href="#DejaVuSans-52" x="387.841797"/>
      <use xlink:href="#DejaVuSans-29" x="457.324219"/>
     </g>
    </g>
    <g id="line2d_12">
     <path d="M 104.963437 34.112813 
L 110.963437 34.112813 
L 116.963437 34.112813 
" style="fill: none; stroke: #c7dbef; stroke-width: 3; stroke-linecap: square"/>
    </g>
    <g id="text_3">
     <!-- 8+2(GPR) -->
     <g transform="translate(121.763437 36.212813) scale(0.06 -0.06)">
      <defs>
       <path id="DejaVuSans-38" d="M 2034 2216 
Q 1584 2216 1326 1975 
Q 1069 1734 1069 1313 
Q 1069 891 1326 650 
Q 1584 409 2034 409 
Q 2484 409 2743 651 
Q 3003 894 3003 1313 
Q 3003 1734 2745 1975 
Q 2488 2216 2034 2216 
z
M 1403 2484 
Q 997 2584 770 2862 
Q 544 3141 544 3541 
Q 544 4100 942 4425 
Q 1341 4750 2034 4750 
Q 2731 4750 3128 4425 
Q 3525 4100 3525 3541 
Q 3525 3141 3298 2862 
Q 3072 2584 2669 2484 
Q 3125 2378 3379 2068 
Q 3634 1759 3634 1313 
Q 3634 634 3220 271 
Q 2806 -91 2034 -91 
Q 1263 -91 848 271 
Q 434 634 434 1313 
Q 434 1759 690 2068 
Q 947 2378 1403 2484 
z
M 1172 3481 
Q 1172 3119 1398 2916 
Q 1625 2713 2034 2713 
Q 2441 2713 2670 2916 
Q 2900 3119 2900 3481 
Q 2900 3844 2670 4047 
Q 2441 4250 2034 4250 
Q 1625 4250 1398 4047 
Q 1172 3844 1172 3481 
z
" transform="scale(0.015625)"/>
      </defs>
      <use xlink:href="#DejaVuSans-38"/>
      <use xlink:href="#DejaVuSans-2b" x="63.623047"/>
      <use xlink:href="#DejaVuSans-32" x="147.412109"/>
      <use xlink:href="#DejaVuSans-28" x="211.035156"/>
      <use xlink:href="#DejaVuSans-47" x="250.048828"/>
      <use xlink:href="#DejaVuSans-50" x="327.539062"/>
      <use xlink:href="#DejaVuSans-52" x="387.841797"/>
      <use xlink:href="#DejaVuSans-29" x="457.324219"/>
     </g>
    </g>
    <g id="line2d_13">
     <path d="M 104.963437 42.919688 
L 110.963437 42.919688 
L 116.963437 42.919688 
" style="fill: none; stroke: #d94801; stroke-width: 3; stroke-linecap: square"/>
    </g>
    <g id="text_4">
     <!-- 1+1(MLP) -->
     <g transform="translate(121.763437 45.019688) scale(0.06 -0.06)">
      <defs>
       <path id="DejaVuSans-4d" d="M 628 4666 
L 1569 4666 
L 2759 1491 
L 3956 4666 
L 4897 4666 
L 4897 0 
L 4281 0 
L 4281 4097 
L 3078 897 
L 2444 897 
L 1241 4097 
L 1241 0 
L 628 0 
L 628 4666 
z
" transform="scale(0.015625)"/>
       <path id="DejaVuSans-4c" d="M 628 4666 
L 1259 4666 
L 1259 531 
L 3531 531 
L 3531 0 
L 628 0 
L 628 4666 
z
" transform="scale(0.015625)"/>
      </defs>
      <use xlink:href="#DejaVuSans-31"/>
      <use xlink:href="#DejaVuSans-2b" x="63.623047"/>
      <use xlink:href="#DejaVuSans-31" x="147.412109"/>
      <use xlink:href="#DejaVuSans-28" x="211.035156"/>
      <use xlink:href="#DejaVuSans-4d" x="250.048828"/>
      <use xlink:href="#DejaVuSans-4c" x="336.328125"/>
      <use xlink:href="#DejaVuSans-50" x="392.041016"/>
      <use xlink:href="#DejaVuSans-29" x="452.34375"/>
     </g>
    </g>
    <g id="line2d_14">
     <path d="M 104.963437 51.726563 
L 110.963437 51.726563 
L 116.963437 51.726563 
" style="fill: none; stroke: #fd8e3d; stroke-width: 3; stroke-linecap: square"/>
    </g>
    <g id="text_5">
     <!-- 3+2(MLP) -->
     <g transform="translate(121.763437 53.826563) scale(0.06 -0.06)">
      <use xlink:href="#DejaVuSans-33"/>
      <use xlink:href="#DejaVuSans-2b" x="63.623047"/>
      <use xlink:href="#DejaVuSans-32" x="147.412109"/>
      <use xlink:href="#DejaVuSans-28" x="211.035156"/>
      <use xlink:href="#DejaVuSans-4d" x="250.048828"/>
      <use xlink:href="#DejaVuSans-4c" x="336.328125"/>
      <use xlink:href="#DejaVuSans-50" x="392.041016"/>
      <use xlink:href="#DejaVuSans-29" x="452.34375"/>
     </g>
    </g>
    <g id="line2d_15">
     <path d="M 104.963437 60.533438 
L 110.963437 60.533438 
L 116.963437 60.533438 
" style="fill: none; stroke: #fdd1a3; stroke-width: 3; stroke-linecap: square"/>
    </g>
    <g id="text_6">
     <!-- 8+2(MLP) -->
     <g transform="translate(121.763437 62.633438) scale(0.06 -0.06)">
      <use xlink:href="#DejaVuSans-38"/>
      <use xlink:href="#DejaVuSans-2b" x="63.623047"/>
      <use xlink:href="#DejaVuSans-32" x="147.412109"/>
      <use xlink:href="#DejaVuSans-28" x="211.035156"/>
      <use xlink:href="#DejaVuSans-4d" x="250.048828"/>
      <use xlink:href="#DejaVuSans-4c" x="336.328125"/>
      <use xlink:href="#DejaVuSans-50" x="392.041016"/>
      <use xlink:href="#DejaVuSans-29" x="452.34375"/>
     </g>
    </g>
    <g id="line2d_16">
     <path d="M 104.963437 69.340313 
L 110.963437 69.340313 
L 116.963437 69.340313 
" style="fill: none; stroke: #525252; stroke-width: 3; stroke-linecap: square"/>
    </g>
    <g id="text_7">
     <!-- 1+1(kNN) -->
     <g transform="translate(121.763437 71.440313) scale(0.06 -0.06)">
      <defs>
       <path id="DejaVuSans-6b" d="M 581 4863 
L 1159 4863 
L 1159 1991 
L 2875 3500 
L 3609 3500 
L 1753 1863 
L 3688 0 
L 2938 0 
L 1159 1709 
L 1159 0 
L 581 0 
L 581 4863 
z
" transform="scale(0.015625)"/>
       <path id="DejaVuSans-4e" d="M 628 4666 
L 1478 4666 
L 3547 763 
L 3547 4666 
L 4159 4666 
L 4159 0 
L 3309 0 
L 1241 3903 
L 1241 0 
L 628 0 
L 628 4666 
z
" transform="scale(0.015625)"/>
      </defs>
      <use xlink:href="#DejaVuSans-31"/>
      <use xlink:href="#DejaVuSans-2b" x="63.623047"/>
      <use xlink:href="#DejaVuSans-31" x="147.412109"/>
      <use xlink:href="#DejaVuSans-28" x="211.035156"/>
      <use xlink:href="#DejaVuSans-6b" x="250.048828"/>
      <use xlink:href="#DejaVuSans-4e" x="307.958984"/>
      <use xlink:href="#DejaVuSans-4e" x="382.763672"/>
      <use xlink:href="#DejaVuSans-29" x="457.568359"/>
     </g>
    </g>
    <g id="line2d_17">
     <path d="M 104.963437 78.147188 
L 110.963437 78.147188 
L 116.963437 78.147188 
" style="fill: none; stroke: #979797; stroke-width: 3; stroke-linecap: square"/>
    </g>
    <g id="text_8">
     <!-- 3+2(kNN) -->
     <g transform="translate(121.763437 80.247188) scale(0.06 -0.06)">
      <use xlink:href="#DejaVuSans-33"/>
      <use xlink:href="#DejaVuSans-2b" x="63.623047"/>
      <use xlink:href="#DejaVuSans-32" x="147.412109"/>
      <use xlink:href="#DejaVuSans-28" x="211.035156"/>
      <use xlink:href="#DejaVuSans-6b" x="250.048828"/>
      <use xlink:href="#DejaVuSans-4e" x="307.958984"/>
      <use xlink:href="#DejaVuSans-4e" x="382.763672"/>
      <use xlink:href="#DejaVuSans-29" x="457.568359"/>
     </g>
    </g>
    <g id="line2d_18">
     <path d="M 104.963437 86.954063 
L 110.963437 86.954063 
L 116.963437 86.954063 
" style="fill: none; stroke: #dadada; stroke-width: 3; stroke-linecap: square"/>
    </g>
    <g id="text_9">
     <!-- 8+2(kNN) -->
     <g transform="translate(121.763437 89.054063) scale(0.06 -0.06)">
      <use xlink:href="#DejaVuSans-38"/>
      <use xlink:href="#DejaVuSans-2b" x="63.623047"/>
      <use xlink:href="#DejaVuSans-32" x="147.412109"/>
      <use xlink:href="#DejaVuSans-28" x="211.035156"/>
      <use xlink:href="#DejaVuSans-6b" x="250.048828"/>
      <use xlink:href="#DejaVuSans-4e" x="307.958984"/>
      <use xlink:href="#DejaVuSans-4e" x="382.763672"/>
      <use xlink:href="#DejaVuSans-29" x="457.568359"/>
     </g>
    </g>
   </g>
  </g>
 </g>
</svg>
